SplineFontDB: 3.0
FontName: Neuton-ExtraBold
FullName: Neuton Extrabold
FamilyName: Neuton
Weight: ExtraBold
Copyright: Copyright (c) 2010, Brian M Zick (http://21326.info/),\nwith Reserved Font Name "Neuton".\n\nThis Font Software is licensed under the SIL Open Font License, Version 1.1.\nThis license is available with a FAQ at: http://scripts.sil.org/OFL
Version: 1.42
ItalicAngle: 0
UnderlinePosition: -361
UnderlineWidth: 0
Ascent: 1638
Descent: 410
sfntRevision: 0x00016b85
LayerCount: 2
Layer: 0 1 "Back"  1
Layer: 1 1 "Fore"  0
XUID: [1021 288 713564382 13169518]
FSType: 0
OS2Version: 1
OS2_WeightWidthSlopeOnly: 0
OS2_UseTypoMetrics: 1
CreationTime: 1307367768
ModificationTime: 1313787576
PfmFamily: 17
TTFWeight: 800
TTFWidth: 5
LineGap: 0
VLineGap: 0
Panose: 2 0 8 3 0 0 0 0 0 0
OS2TypoAscent: 468
OS2TypoAOffset: 1
OS2TypoDescent: -75
OS2TypoDOffset: 1
OS2TypoLinegap: 0
OS2WinAscent: 0
OS2WinAOffset: 1
OS2WinDescent: 18
OS2WinDOffset: 1
HheadAscent: 0
HheadAOffset: 1
HheadDescent: -19
HheadDOffset: 1
OS2SubXSize: 1095
OS2SubYSize: 1179
OS2SubXOff: 0
OS2SubYOff: 235
OS2SupXSize: 1095
OS2SupYSize: 1179
OS2SupXOff: 0
OS2SupYOff: 809
OS2StrikeYSize: 84
OS2StrikeYPos: 4436
OS2Vendor: 'PfEd'
OS2CodePages: a0000093.00000000
OS2UnicodeRanges: a00000ef.1000204a.00000000.00000000
MarkAttachClasses: 1
DEI: 91125
TtTable: prep
PUSHW_1
 511
SCANCTRL
PUSHB_1
 4
SCANTYPE
EndTTInstrs
ShortTable: cvt  2
  68
  1297
EndShort
ShortTable: maxp 16
  1
  0
  393
  87
  5
  0
  0
  2
  0
  1
  1
  0
  64
  0
  0
  0
EndShort
LangName: 1033 "" "" "" "" "" "" "" "" "" "Brian M Zick" "" "" "http://21326.info/" "This Font Software is licensed under the SIL Open Font License, Version 1.1.+AAoA-This license is available with a FAQ at: http://scripts.sil.org/OFL" "http://scripts.sil.org/OFL" 
GaspTable: 1 65535 15
Encoding: UnicodeBmp
UnicodeInterp: none
NameList: Adobe Glyph List
DisplaySize: -36
AntiAlias: 1
FitToEm: 1
WinInfo: 64 16 16
BeginPrivate: 0
EndPrivate
BeginChars: 65567 393

StartChar: .notdef
Encoding: 65536 -1 0
Width: 748
Flags: W
LayerCount: 2
Fore
SplineSet
68 0 m 1,0,-1
 68 1365 l 1,1,-1
 612 1365 l 1,2,-1
 612 0 l 1,3,-1
 68 0 l 1,0,-1
136 68 m 1,4,-1
 544 68 l 1,5,-1
 544 1297 l 1,6,-1
 136 1297 l 1,7,-1
 136 68 l 1,4,-1
EndSplineSet
EndChar

StartChar: exclam
Encoding: 33 33 4
Width: 427
Flags: W
LayerCount: 2
Fore
SplineSet
19 1194 m 0,0,1
 19 1306 19 1306 225 1306 c 0,2,3
 307 1306 307 1306 343 1286.5 c 128,-1,4
 379 1267 379 1267 379 1215 c 0,5,6
 379 890 379 890 300 362 c 1,7,-1
 133 391 l 1,8,9
 97 579 97 579 58 850.5 c 128,-1,10
 19 1122 19 1122 19 1194 c 0,0,1
0 127 m 0,11,12
 0 187 0 187 49.5 233.5 c 128,-1,13
 99 280 99 280 212.5 280 c 128,-1,14
 326 280 326 280 376.5 234.5 c 128,-1,15
 427 189 427 189 427 130 c 0,16,17
 427 -26 427 -26 213.5 -26 c 128,-1,18
 0 -26 0 -26 0 127 c 0,11,12
EndSplineSet
EndChar

StartChar: quotedbl
Encoding: 34 34 5
Width: 658
Flags: W
LayerCount: 2
Fore
SplineSet
-17 1302 m 1,0,-1
 294 1278 l 1,1,-1
 233 920 l 1,2,-1
 58 894 l 1,3,-1
 -17 1302 l 1,0,-1
313 1302 m 1,4,-1
 624 1278 l 1,5,-1
 563 920 l 1,6,-1
 388 894 l 1,7,-1
 313 1302 l 1,4,-1
EndSplineSet
EndChar

StartChar: numbersign
Encoding: 35 35 6
Width: 1154
Flags: W
LayerCount: 2
Fore
SplineSet
0 266 m 1,0,-1
 55 488 l 1,1,-1
 269 488 l 1,2,-1
 294 650 l 1,3,-1
 72 650 l 1,4,-1
 127 872 l 1,5,-1
 327 872 l 1,6,-1
 368 1146 l 1,7,-1
 581 1156 l 1,8,-1
 538 872 l 1,9,-1
 682 872 l 1,10,-1
 723 1146 l 1,11,-1
 937 1155 l 1,12,-1
 895 872 l 1,13,-1
 1154 872 l 1,14,-1
 1101 650 l 1,15,-1
 861 650 l 1,16,-1
 837 488 l 1,17,-1
 1080 488 l 1,18,-1
 1026 266 l 1,19,-1
 804 266 l 1,20,-1
 761 -19 l 1,21,-1
 547 -26 l 1,22,-1
 591 266 l 1,23,-1
 448 266 l 1,24,-1
 405 -19 l 1,25,-1
 192 -26 l 1,26,-1
 236 266 l 1,27,-1
 0 266 l 1,0,-1
624 488 m 1,28,-1
 649 650 l 1,29,-1
 505 650 l 1,30,-1
 481 488 l 1,31,-1
 624 488 l 1,28,-1
EndSplineSet
EndChar

StartChar: dollar
Encoding: 36 36 7
Width: 939
Flags: W
LayerCount: 2
Fore
SplineSet
0 136 m 1,0,-1
 34 468 l 1,1,-1
 211 439 l 1,2,-1
 273 212 l 1,3,4
 310 163 310 163 382 145 c 1,5,-1
 406 455 l 1,6,7
 406 455 406 455 331 494 c 0,8,9
 239 542 239 542 199 573.5 c 128,-1,10
 159 605 159 605 124 638.5 c 128,-1,11
 89 672 89 672 71 704 c 0,12,13
 26 782 26 782 26 862 c 0,14,15
 26 1036 26 1036 134.5 1136 c 128,-1,16
 243 1236 243 1236 419 1259 c 1,17,-1
 409 1390 l 1,18,-1
 697 1425 l 1,19,-1
 656 1253 l 1,20,21
 747 1235 747 1235 852 1187 c 1,22,-1
 824 835 l 1,23,-1
 651 865 l 1,24,-1
 612 1068 l 1,25,26
 598 1079 598 1079 557 1090 c 1,27,-1
 535 811 l 1,28,29
 535 811 535 811 656 747 c 0,30,31
 738 703 738 703 768 681 c 1,32,33
 768 681 768 681 826 634 c 1,34,35
 870 597 870 597 897 549 c 0,36,37
 939 474 939 474 939 391 c 128,-1,38
 939 308 939 308 903.5 235 c 128,-1,39
 868 162 868 162 808 114 c 0,40,41
 695 22 695 22 543 -9 c 1,42,-1
 545 -158 l 1,43,-1
 259 -183 l 1,44,-1
 292 -9 l 1,45,46
 200 11 200 11 117.5 51.5 c 128,-1,47
 35 92 35 92 0 136 c 1,0,-1
453 859 m 1,48,-1
 473 1104 l 1,49,50
 465 1105 465 1105 436 1105 c 128,-1,51
 407 1105 407 1105 378 1081 c 128,-1,52
 349 1057 349 1057 349 1007 c 0,53,54
 349 928 349 928 453 859 c 1,48,-1
488 412 m 1,55,-1
 467 139 l 1,56,57
 529 146 529 146 569 184 c 128,-1,58
 609 222 609 222 609 284 c 128,-1,59
 609 346 609 346 488 412 c 1,55,-1
EndSplineSet
EndChar

StartChar: percent
Encoding: 37 37 8
Width: 1595
Flags: W
LayerCount: 2
Fore
SplineSet
1299 269 m 0,0,1
 1299 474 1299 474 1243 474 c 0,2,3
 1205 474 1205 474 1191.5 420 c 128,-1,4
 1178 366 1178 366 1178 291 c 128,-1,5
 1178 216 1178 216 1180 187.5 c 128,-1,6
 1182 159 1182 159 1188 134 c 0,7,8
 1200 87 1200 87 1238 87 c 128,-1,9
 1276 87 1276 87 1287.5 129.5 c 128,-1,10
 1299 172 1299 172 1299 269 c 0,0,1
868 276 m 0,11,12
 868 357 868 357 926.5 431 c 128,-1,13
 985 505 985 505 1071.5 547 c 128,-1,14
 1158 589 1158 589 1243 589 c 0,15,16
 1383 589 1383 589 1489 496.5 c 128,-1,17
 1595 404 1595 404 1595 273 c 0,18,19
 1595 192 1595 192 1541 119 c 128,-1,20
 1487 46 1487 46 1406.5 5 c 128,-1,21
 1326 -36 1326 -36 1245 -36 c 0,22,23
 1082 -36 1082 -36 975 50 c 128,-1,24
 868 136 868 136 868 276 c 0,11,12
387 1087 m 1,25,-1
 367 1090 l 1,26,27
 306 1090 306 1090 306 896 c 2,28,-1
 306 891 l 2,29,30
 306 730 306 730 332 708 c 0,31,32
 346 695 346 695 369 695 c 0,33,34
 404 695 404 695 417 746 c 128,-1,35
 430 797 430 797 430 950.5 c 128,-1,36
 430 1104 430 1104 421 1208 c 1,37,-1
 1180 1207 l 1,38,-1
 1482 1205 l 1,39,-1
 1482 1130 l 1,40,-1
 941 591 l 1,41,-1
 448 -19 l 1,42,-1
 80 35 l 1,43,-1
 637 588 l 1,44,-1
 1107 1124 l 1,45,-1
 617 1105 l 1,46,47
 722 1024 722 1024 722 896 c 0,48,49
 722 811 722 811 668.5 736.5 c 128,-1,50
 615 662 615 662 534 620.5 c 128,-1,51
 453 579 453 579 369 578 c 0,52,53
 202 577 202 577 101 662.5 c 128,-1,54
 0 748 0 748 0 896 c 0,55,56
 0 963 0 963 51 1036 c 128,-1,57
 102 1109 102 1109 186 1158.5 c 128,-1,58
 270 1208 270 1208 355 1208 c 0,59,60
 364 1208 364 1208 377 1206 c 1,61,-1
 387 1087 l 1,25,-1
EndSplineSet
EndChar

StartChar: ampersand
Encoding: 38 38 9
Width: 1386
Flags: W
LayerCount: 2
Fore
SplineSet
460 1029 m 0,0,1
 460 964 460 964 574 846 c 1,2,3
 611 902 611 902 611 969 c 128,-1,4
 611 1036 611 1036 585.5 1069 c 128,-1,5
 560 1102 560 1102 529.5 1102 c 128,-1,6
 499 1102 499 1102 479.5 1082 c 128,-1,7
 460 1062 460 1062 460 1029 c 0,0,1
413 550 m 1,8,9
 332 484 332 484 332 399 c 128,-1,10
 332 314 332 314 380.5 259 c 128,-1,11
 429 204 429 204 503.5 204 c 128,-1,12
 578 204 578 204 651 293 c 1,13,-1
 422 546 l 1,14,-1
 413 550 l 1,8,9
21 150 m 128,-1,16
 0 206 0 206 0 269.5 c 128,-1,17
 0 333 0 333 11.5 378.5 c 128,-1,18
 23 424 23 424 47 460.5 c 128,-1,19
 71 497 71 497 96 525 c 128,-1,20
 121 553 121 553 161 580 c 0,21,22
 226 622 226 622 309 664 c 1,23,24
 252 716 252 716 221.5 792 c 128,-1,25
 191 868 191 868 191 940.5 c 128,-1,26
 191 1013 191 1013 225.5 1078.5 c 128,-1,27
 260 1144 260 1144 316 1186 c 1,28,29
 436 1273 436 1273 566 1273 c 128,-1,30
 696 1273 696 1273 776.5 1208.5 c 128,-1,31
 857 1144 857 1144 857 1031.5 c 128,-1,32
 857 919 857 919 817.5 852 c 128,-1,33
 778 785 778 785 702 731 c 1,34,-1
 702 715 l 1,35,-1
 848 563 l 1,36,-1
 978 741 l 1,37,-1
 897 780 l 1,38,-1
 921 940 l 1,39,-1
 1386 940 l 1,40,-1
 1364 780 l 1,41,-1
 1190 722 l 1,42,-1
 977 429 l 1,43,44
 1189 208 1189 208 1289 162 c 2,45,-1
 1335 141 l 1,46,-1
 1305 6 l 1,47,48
 1283 -1 1283 -1 1222.5 -9.5 c 128,-1,49
 1162 -18 1162 -18 1124 -18 c 0,50,51
 939 -18 939 -18 811 120 c 2,52,-1
 777 157 l 1,53,54
 703 68 703 68 596.5 19.5 c 128,-1,55
 490 -29 490 -29 402.5 -29 c 128,-1,56
 315 -29 315 -29 263 -21.5 c 128,-1,57
 211 -14 211 -14 160.5 6.5 c 128,-1,58
 110 27 110 27 76 60.5 c 128,-1,15
 42 94 42 94 21 150 c 128,-1,16
EndSplineSet
EndChar

StartChar: quotesingle
Encoding: 39 39 10
Width: 328
Flags: W
LayerCount: 2
Fore
SplineSet
0 1302 m 1,0,-1
 311 1278 l 1,1,-1
 250 920 l 1,2,-1
 75 894 l 1,3,-1
 0 1302 l 1,0,-1
EndSplineSet
EndChar

StartChar: parenleft
Encoding: 40 40 11
Width: 468
Flags: W
LayerCount: 2
Fore
SplineSet
462 1130 m 1,0,1
 342 974 342 974 315 720 c 0,2,3
 303 607 303 607 303 432.5 c 128,-1,4
 303 258 303 258 327 110 c 128,-1,5
 351 -38 351 -38 384 -120 c 128,-1,6
 417 -202 417 -202 468 -278 c 1,7,-1
 337 -376 l 1,8,-1
 283 -323 l 1,9,10
 -6 -34 -6 -34 -6 426 c 0,11,12
 -6 928 -6 928 293 1220 c 0,13,14
 313 1239 313 1239 332 1255 c 1,15,-1
 462 1130 l 1,0,1
EndSplineSet
EndChar

StartChar: parenright
Encoding: 41 41 12
Width: 468
Flags: W
LayerCount: 2
Fore
SplineSet
6 1130 m 1,0,-1
 136 1255 l 1,1,2
 270 1142 270 1142 361 955 c 0,3,4
 474 722 474 722 474 426 c 0,5,6
 474 -34 474 -34 185 -323 c 1,7,-1
 131 -376 l 1,8,-1
 0 -278 l 1,9,10
 51 -202 51 -202 84 -120 c 0,11,12
 165 81 165 81 165 454 c 0,13,14
 165 758 165 758 117 910 c 0,15,16
 77 1038 77 1038 6 1130 c 1,0,-1
EndSplineSet
EndChar

StartChar: asterisk
Encoding: 42 42 13
Width: 740
Flags: W
LayerCount: 2
Fore
SplineSet
0 913 m 1,0,-1
 82 1088 l 1,1,-1
 315 993 l 1,2,-1
 260 1300 l 1,3,-1
 449 1275 l 1,4,-1
 423 1005 l 1,5,-1
 703 1175 l 1,6,-1
 740 989 l 1,7,-1
 485 906 l 1,8,-1
 727 714 l 1,9,-1
 556 623 l 1,10,-1
 411 824 l 1,11,-1
 285 548 l 1,12,-1
 146 686 l 1,13,-1
 317 876 l 1,14,-1
 0 913 l 1,0,-1
EndSplineSet
EndChar

StartChar: plus
Encoding: 43 43 14
Width: 631
Flags: W
LayerCount: 2
Fore
SplineSet
0 376 m 1,0,-1
 8 541 l 1,1,-1
 227 541 l 1,2,-1
 227 786 l 1,3,-1
 415 774 l 1,4,-1
 415 541 l 1,5,-1
 641 541 l 1,6,-1
 628 376 l 1,7,-1
 415 376 l 1,8,-1
 415 142 l 1,9,-1
 227 146 l 1,10,-1
 227 376 l 1,11,-1
 0 376 l 1,0,-1
EndSplineSet
EndChar

StartChar: comma
Encoding: 44 44 15
Width: 445
Flags: W
LayerCount: 2
Fore
SplineSet
7 -259 m 1,0,1
 88 -232 88 -232 130 -181.5 c 128,-1,2
 172 -131 172 -131 172 -85 c 128,-1,3
 172 -39 172 -39 147 -14.5 c 128,-1,4
 122 10 122 10 89.5 10 c 128,-1,5
 57 10 57 10 31 -3 c 1,6,7
 0 49 0 49 0 96 c 0,8,9
 0 183 0 183 56 230.5 c 128,-1,10
 112 278 112 278 202 278 c 0,11,12
 445 278 445 278 445 12 c 0,13,14
 445 -118 445 -118 352 -229 c 1,15,16
 250 -349 250 -349 51 -377 c 1,17,-1
 7 -259 l 1,0,1
EndSplineSet
EndChar

StartChar: hyphen
Encoding: 45 45 16
Width: 595
Flags: W
LayerCount: 2
Fore
SplineSet
0 357 m 1,0,-1
 15 535 l 1,1,-1
 595 557 l 1,2,-1
 580 372 l 1,3,-1
 0 357 l 1,0,-1
EndSplineSet
EndChar

StartChar: period
Encoding: 46 46 17
Width: 427
Flags: W
LayerCount: 2
Fore
SplineSet
0 127 m 0,0,1
 0 187 0 187 49.5 233.5 c 128,-1,2
 99 280 99 280 212.5 280 c 128,-1,3
 326 280 326 280 376.5 234.5 c 128,-1,4
 427 189 427 189 427 130 c 0,5,6
 427 -26 427 -26 213.5 -26 c 128,-1,7
 0 -26 0 -26 0 127 c 0,0,1
EndSplineSet
EndChar

StartChar: slash
Encoding: 47 47 18
Width: 692
Flags: W
LayerCount: 2
Fore
SplineSet
0 -372 m 1,0,-1
 462 1224 l 1,1,-1
 692 1244 l 1,2,-1
 226 -358 l 1,3,-1
 0 -372 l 1,0,-1
EndSplineSet
EndChar

StartChar: zero
Encoding: 48 48 19
Width: 946
Flags: W
LayerCount: 2
Fore
SplineSet
400 853.5 m 128,-1,1
 392 758 392 758 392 549.5 c 128,-1,2
 392 341 392 341 410 241 c 128,-1,3
 428 141 428 141 480 141 c 0,4,5
 522 141 522 141 538.5 245.5 c 128,-1,6
 555 350 555 350 555 556.5 c 128,-1,7
 555 763 555 763 546.5 855.5 c 128,-1,8
 538 948 538 948 518.5 987 c 128,-1,9
 499 1026 499 1026 468.5 1026 c 128,-1,10
 438 1026 438 1026 423 987.5 c 128,-1,0
 408 949 408 949 400 853.5 c 128,-1,1
0 590 m 0,11,12
 0 699 0 699 20.5 795 c 128,-1,13
 41 891 41 891 78 958 c 128,-1,14
 115 1025 115 1025 162 1074.5 c 128,-1,15
 209 1124 209 1124 265 1152 c 0,16,17
 375 1207 375 1207 470 1207 c 128,-1,18
 565 1207 565 1207 629 1189 c 128,-1,19
 693 1171 693 1171 753 1126.5 c 128,-1,20
 813 1082 813 1082 854 1012 c 0,21,22
 946 859 946 859 946 583 c 0,23,24
 946 212 946 212 730 56 c 1,25,26
 613 -27 613 -27 470 -27 c 0,27,28
 166 -27 166 -27 54 248 c 0,29,30
 0 380 0 380 0 590 c 0,11,12
EndSplineSet
EndChar

StartChar: one
Encoding: 49 49 20
Width: 861
Flags: W
LayerCount: 2
Fore
SplineSet
0 -5 m 1,0,-1
 17 124 l 1,1,-1
 241 191 l 1,2,-1
 241 915 l 1,3,-1
 25 915 l 1,4,-1
 37 1082 l 1,5,-1
 533 1186 l 1,6,-1
 624 1186 l 1,7,-1
 624 178 l 1,8,-1
 861 132 l 1,9,-1
 848 -5 l 1,10,-1
 0 -5 l 1,0,-1
EndSplineSet
EndChar

StartChar: two
Encoding: 50 50 21
Width: 951
Flags: W
LayerCount: 2
Fore
SplineSet
13 213 m 1,0,-1
 231 371 l 2,1,2
 315 431 315 431 374 500 c 0,3,4
 485 630 485 630 485 750.5 c 128,-1,5
 485 871 485 871 442.5 932.5 c 128,-1,6
 400 994 400 994 332 994 c 0,7,8
 310 994 310 994 278 985 c 1,9,-1
 209 607 l 1,10,-1
 51 634 l 1,11,-1
 0 1006 l 1,12,13
 82 1099 82 1099 232 1155.5 c 128,-1,14
 382 1212 382 1212 502.5 1212 c 128,-1,15
 623 1212 623 1212 700.5 1183.5 c 128,-1,16
 778 1155 778 1155 824 1108 c 1,17,18
 916 1011 916 1011 916 889 c 0,19,20
 916 801 916 801 884.5 718 c 128,-1,21
 853 635 853 635 809.5 575.5 c 128,-1,22
 766 516 766 516 699 456 c 0,23,24
 604 372 604 372 471 291 c 1,25,-1
 401 249 l 1,26,-1
 678 249 l 1,27,-1
 790 451 l 1,28,-1
 951 435 l 1,29,-1
 900 0 l 1,30,-1
 19 0 l 1,31,-1
 13 213 l 1,0,-1
EndSplineSet
EndChar

StartChar: three
Encoding: 51 51 22
Width: 964
Flags: W
LayerCount: 2
Fore
SplineSet
16 9 m 1,0,-1
 91 455 l 1,1,-1
 271 435 l 1,2,-1
 299 160 l 1,3,4
 333 152 333 152 365 152 c 0,5,6
 440 152 440 152 494 194.5 c 128,-1,7
 548 237 548 237 548 317 c 0,8,9
 548 429 548 429 471 489.5 c 128,-1,10
 394 550 394 550 240 529 c 1,11,-1
 200 657 l 1,12,13
 350 685 350 685 437 742 c 128,-1,14
 524 799 524 799 524 883.5 c 128,-1,15
 524 968 524 968 467.5 1016.5 c 128,-1,16
 411 1065 411 1065 332 1065 c 0,17,18
 317 1065 317 1065 289 1061 c 1,19,-1
 231 729 l 1,20,-1
 65 740 l 1,21,-1
 0 1118 l 1,22,23
 39 1157 39 1157 173 1190.5 c 128,-1,24
 307 1224 307 1224 419.5 1224 c 128,-1,25
 532 1224 532 1224 618.5 1212 c 128,-1,26
 705 1200 705 1200 776 1172 c 0,27,28
 922 1113 922 1113 922 965 c 0,29,30
 922 790 922 790 572 673 c 1,31,-1
 572 655 l 1,32,33
 755 662 755 662 857.5 588.5 c 128,-1,34
 960 515 960 515 963.5 395.5 c 128,-1,35
 967 276 967 276 885 184 c 128,-1,36
 803 92 803 92 648.5 36.5 c 128,-1,37
 494 -19 494 -19 317.5 -19 c 128,-1,38
 141 -19 141 -19 16 9 c 1,0,-1
EndSplineSet
EndChar

StartChar: four
Encoding: 52 52 23
Width: 1115
Flags: W
LayerCount: 2
Fore
SplineSet
315 514 m 1,0,-1
 531 514 l 1,1,-1
 531 817 l 1,2,-1
 315 514 l 1,0,-1
0 464 m 1,3,-1
 746 1243 l 1,4,-1
 872 1210 l 1,5,6
 860 970 860 970 860 682 c 2,7,-1
 860 514 l 1,8,-1
 1115 514 l 1,9,-1
 1099 316 l 1,10,-1
 860 316 l 1,11,-1
 860 183 l 1,12,-1
 1082 126 l 1,13,-1
 1074 -2 l 1,14,-1
 280 -2 l 1,15,-1
 284 107 l 1,16,-1
 532 182 l 1,17,-1
 532 319 l 1,18,-1
 25 319 l 1,19,-1
 0 464 l 1,3,-1
EndSplineSet
EndChar

StartChar: five
Encoding: 53 53 24
Width: 806
Flags: W
LayerCount: 2
Fore
SplineSet
0 7 m 1,0,-1
 77 428 l 1,1,-1
 227 392 l 1,2,-1
 269 117 l 1,3,4
 295 101 295 101 359.5 101 c 128,-1,5
 424 101 424 101 464 138 c 128,-1,6
 504 175 504 175 504 230 c 128,-1,7
 504 285 504 285 488.5 322.5 c 128,-1,8
 473 360 473 360 439.5 395.5 c 128,-1,9
 406 431 406 431 358 458 c 0,10,11
 254 519 254 519 93 519 c 1,12,-1
 216 1166 l 1,13,-1
 765 1198 l 1,14,-1
 722 888 l 1,15,-1
 324 875 l 1,16,-1
 312 770 l 1,17,18
 690 767 690 767 798 525 c 0,19,20
 829 457 829 457 829 369 c 128,-1,21
 829 281 829 281 781 197.5 c 128,-1,22
 733 114 733 114 655 60 c 0,23,24
 491 -52 491 -52 283 -52 c 0,25,26
 207 -52 207 -52 125 -36.5 c 128,-1,27
 43 -21 43 -21 0 7 c 1,0,-1
EndSplineSet
EndChar

StartChar: six
Encoding: 54 54 25
Width: 943
Flags: W
LayerCount: 2
Fore
SplineSet
372 366 m 0,0,1
 372 122 372 122 473 122 c 0,2,3
 513 122 513 122 544 176.5 c 128,-1,4
 575 231 575 231 575 330 c 0,5,6
 575 336 575 336 576 360 c 128,-1,7
 577 384 577 384 576.5 400 c 128,-1,8
 576 416 576 416 574.5 441.5 c 128,-1,9
 573 467 573 467 567 484.5 c 128,-1,10
 561 502 561 502 552 519 c 0,11,12
 532 554 532 554 479 554 c 128,-1,13
 426 554 426 554 378 500 c 1,14,15
 372 422 372 422 372 366 c 0,0,1
52.5 202 m 128,-1,17
 0 300 0 300 0 425.5 c 128,-1,18
 0 551 0 551 51 671 c 128,-1,19
 102 791 102 791 181 877.5 c 128,-1,20
 260 964 260 964 362 1036 c 0,21,22
 544 1163 544 1163 749 1215 c 1,23,-1
 816 1125 l 1,24,25
 661 1042 661 1042 537 920 c 128,-1,26
 413 798 413 798 385 664 c 1,27,-1
 404 664 l 1,28,29
 489 756 489 756 622.5 756 c 128,-1,30
 756 756 756 756 849.5 656.5 c 128,-1,31
 943 557 943 557 943 403 c 0,32,33
 943 158 943 158 728 44 c 1,34,35
 612 -19 612 -19 466.5 -19 c 128,-1,36
 321 -19 321 -19 213 42.5 c 128,-1,16
 105 104 105 104 52.5 202 c 128,-1,17
EndSplineSet
EndChar

StartChar: seven
Encoding: 55 55 26
Width: 899
Flags: W
LayerCount: 2
Fore
SplineSet
0 682 m 1,0,-1
 13 1184 l 1,1,-1
 899 1184 l 1,2,-1
 899 1057 l 1,3,-1
 447 -33 l 1,4,-1
 51 6 l 1,5,-1
 600 888 l 1,6,-1
 233 888 l 1,7,-1
 132 655 l 1,8,-1
 0 682 l 1,0,-1
EndSplineSet
EndChar

StartChar: eight
Encoding: 56 56 27
Width: 941
Flags: W
LayerCount: 2
Fore
SplineSet
463 1063 m 0,0,1
 400 1063 400 1063 400 980 c 0,2,3
 400 938 400 938 441 874.5 c 128,-1,4
 482 811 482 811 550 769 c 1,5,6
 589 795 589 795 589 878 c 128,-1,7
 589 961 589 961 549.5 1012 c 128,-1,8
 510 1063 510 1063 463 1063 c 0,0,1
342 347 m 0,9,10
 342 247 342 247 386 181 c 128,-1,11
 430 115 430 115 518 115 c 0,12,13
 559 115 559 115 587.5 139.5 c 128,-1,14
 616 164 616 164 616 190 c 128,-1,15
 616 216 616 216 605 237 c 128,-1,16
 594 258 594 258 567.5 282.5 c 128,-1,17
 541 307 541 307 514 328 c 0,18,19
 389 427 389 427 356 454 c 1,20,21
 338 425 338 425 340 390.5 c 128,-1,22
 342 356 342 356 342 347 c 0,9,10
0 270 m 0,23,24
 0 471 0 471 214 558 c 1,25,-1
 214 573 l 1,26,27
 45 708 45 708 45 863 c 0,28,29
 45 997 45 997 156 1094 c 0,30,31
 275 1199 275 1199 505 1199 c 0,32,33
 677 1199 677 1199 782.5 1117 c 128,-1,34
 888 1035 888 1035 888 925 c 0,35,36
 888 856 888 856 836 789.5 c 128,-1,37
 784 723 784 723 695 681 c 1,38,-1
 696 665 l 1,39,40
 831 577 831 577 890 498.5 c 128,-1,41
 949 420 949 420 949 331 c 0,42,43
 949 184 949 184 804.5 78.5 c 128,-1,44
 660 -27 660 -27 437 -27 c 0,45,46
 120 -27 120 -27 26 160 c 0,47,48
 0 212 0 212 0 270 c 0,23,24
EndSplineSet
EndChar

StartChar: nine
Encoding: 57 57 28
Width: 918
Flags: W
LayerCount: 2
Fore
SplineSet
378 1019 m 128,-1,1
 360 973 360 973 360 857 c 0,2,3
 360 623 360 623 440 623 c 0,4,5
 487 623 487 623 529 659 c 1,6,7
 537 715 537 715 537 828 c 0,8,9
 537 1068 537 1068 439 1066 c 0,10,0
 396 1065 396 1065 378 1019 c 128,-1,1
0 773 m 0,11,12
 0 868 0 868 37.5 957 c 128,-1,13
 75 1046 75 1046 139 1102 c 0,14,15
 270 1217 270 1217 457 1217 c 0,16,17
 692 1217 692 1217 805 1102.5 c 128,-1,18
 918 988 918 988 918 780.5 c 128,-1,19
 918 573 918 573 831 395.5 c 128,-1,20
 744 218 744 218 585 105.5 c 128,-1,21
 426 -7 426 -7 225 -25 c 1,22,-1
 176 90 l 1,23,24
 320 147 320 147 413 244.5 c 128,-1,25
 506 342 506 342 527 467 c 1,26,-1
 519 476 l 1,27,28
 457 422 457 422 305 422 c 0,29,30
 194 422 194 422 101 506 c 0,31,32
 0 596 0 596 0 773 c 0,11,12
EndSplineSet
EndChar

StartChar: colon
Encoding: 58 58 29
Width: 405
Flags: W
LayerCount: 2
Fore
SplineSet
0 144 m 0,0,1
 0 201 0 201 44 245 c 128,-1,2
 88 289 88 289 190.5 289 c 128,-1,3
 293 289 293 289 338.5 246 c 128,-1,4
 384 203 384 203 384 146 c 0,5,6
 384 -2 384 -2 192 -2 c 128,-1,7
 0 -2 0 -2 0 144 c 0,0,1
0 759 m 0,8,9
 0 816 0 816 44 860 c 128,-1,10
 88 904 88 904 166 904 c 128,-1,11
 244 904 244 904 284 891 c 128,-1,12
 324 878 324 878 345 856 c 0,13,14
 384 814 384 814 384 762 c 0,15,16
 384 613 384 613 192 613 c 128,-1,17
 0 613 0 613 0 759 c 0,8,9
EndSplineSet
EndChar

StartChar: semicolon
Encoding: 59 59 30
Width: 433
Flags: W
LayerCount: 2
Fore
SplineSet
10 759 m 0,0,1
 10 816 10 816 54 860 c 128,-1,2
 98 904 98 904 176 904 c 128,-1,3
 254 904 254 904 294 891 c 128,-1,4
 334 878 334 878 355 856 c 0,5,6
 394 814 394 814 394 762 c 0,7,8
 394 613 394 613 202 613 c 128,-1,9
 10 613 10 613 10 759 c 0,0,1
7 -238 m 1,10,11
 84 -214 84 -214 123.5 -169 c 128,-1,12
 163 -124 163 -124 163 -82 c 128,-1,13
 163 -40 163 -40 140 -18 c 128,-1,14
 117 4 117 4 85.5 4 c 128,-1,15
 54 4 54 4 29 -8 c 1,16,17
 0 38 0 38 0 81 c 0,18,19
 0 160 0 160 53 202.5 c 128,-1,20
 106 245 106 245 192 245 c 0,21,22
 423 245 423 245 423 6 c 0,23,24
 423 -116 423 -116 327 -217.5 c 128,-1,25
 231 -319 231 -319 48 -344 c 1,26,-1
 7 -238 l 1,10,11
EndSplineSet
EndChar

StartChar: less
Encoding: 60 60 31
Width: 699
Flags: W
LayerCount: 2
Fore
SplineSet
699 36 m 1,0,-1
 553 -84 l 1,1,-1
 -79 410 l 1,2,-1
 -89 504 l 1,3,-1
 540 974 l 1,4,-1
 687 840 l 1,5,-1
 351 454 l 1,6,-1
 699 36 l 1,0,-1
EndSplineSet
EndChar

StartChar: equal
Encoding: 61 61 32
Width: 636
Flags: W
LayerCount: 2
Fore
SplineSet
3 276 m 1,0,-1
 14 464 l 1,1,-1
 639 464 l 1,2,-1
 626 276 l 1,3,-1
 3 276 l 1,0,-1
0 557 m 1,4,-1
 11 745 l 1,5,-1
 636 745 l 1,6,-1
 623 557 l 1,7,-1
 0 557 l 1,4,-1
EndSplineSet
EndChar

StartChar: greater
Encoding: 62 62 33
Width: 699
Flags: W
LayerCount: 2
Fore
SplineSet
0 36 m 1,0,-1
 348 454 l 1,1,-1
 12 840 l 1,2,-1
 159 974 l 1,3,-1
 788 504 l 1,4,-1
 778 410 l 1,5,-1
 146 -84 l 1,6,-1
 0 36 l 1,0,-1
EndSplineSet
EndChar

StartChar: question
Encoding: 63 63 34
Width: 616
Flags: W
LayerCount: 2
Fore
SplineSet
85 127 m 0,0,1
 85 187 85 187 134.5 233.5 c 128,-1,2
 184 280 184 280 297.5 280 c 128,-1,3
 411 280 411 280 461.5 234.5 c 128,-1,4
 512 189 512 189 512 130 c 0,5,6
 512 -26 512 -26 298.5 -26 c 128,-1,7
 85 -26 85 -26 85 127 c 0,0,1
35.5 1001 m 128,-1,9
 0 1065 0 1065 0 1133.5 c 128,-1,10
 0 1202 0 1202 55 1246.5 c 128,-1,11
 110 1291 110 1291 209 1291 c 128,-1,12
 308 1291 308 1291 387.5 1245.5 c 128,-1,13
 467 1200 467 1200 526.5 1130.5 c 128,-1,14
 586 1061 586 1061 623.5 974 c 128,-1,15
 661 887 661 887 661 818 c 128,-1,16
 661 749 661 749 645 705.5 c 128,-1,17
 629 662 629 662 603.5 636.5 c 128,-1,18
 578 611 578 611 547.5 592 c 128,-1,19
 517 573 517 573 486.5 558.5 c 128,-1,20
 456 544 456 544 430 530 c 0,21,22
 373 497 373 497 373 439 c 0,23,24
 373 414 373 414 386 362 c 1,25,-1
 216 374 l 1,26,27
 170 443 170 443 146 516.5 c 128,-1,28
 122 590 122 590 122 635.5 c 128,-1,29
 122 681 122 681 155.5 715.5 c 128,-1,30
 189 750 189 750 237.5 770 c 128,-1,31
 286 790 286 790 334 808 c 0,32,33
 449 849 449 849 449 900 c 0,34,35
 449 934 449 934 410 954.5 c 128,-1,36
 371 975 371 975 318.5 975 c 128,-1,37
 266 975 266 975 198 956 c 128,-1,38
 130 937 130 937 111 916 c 1,39,8
 71 937 71 937 35.5 1001 c 128,-1,9
EndSplineSet
EndChar

StartChar: at
Encoding: 64 64 35
Width: 1426
Flags: W
LayerCount: 2
Fore
SplineSet
621 395 m 0,0,1
 621 294 621 294 674 294 c 0,2,3
 688 294 688 294 729 306 c 1,4,-1
 773 648 l 1,5,6
 771 647 771 647 770.5 647.5 c 128,-1,7
 770 648 770 648 767.5 650 c 128,-1,8
 765 652 765 652 762 654 c 0,9,10
 756 659 756 659 730.5 659 c 128,-1,11
 705 659 705 659 679.5 625.5 c 128,-1,12
 654 592 654 592 642 544 c 0,13,14
 621 453 621 453 621 395 c 0,0,1
713 197 m 1,15,16
 636 86 636 86 528 86 c 0,17,18
 449 86 449 86 395 153.5 c 128,-1,19
 341 221 341 221 341 322 c 128,-1,20
 341 423 341 423 372.5 501 c 128,-1,21
 404 579 404 579 465 646 c 128,-1,22
 526 713 526 713 629.5 754.5 c 128,-1,23
 733 796 733 796 839.5 796 c 128,-1,24
 946 796 946 796 1025 778 c 1,25,-1
 1041 761 l 1,26,-1
 1001 395 l 1,27,28
 986 275 986 275 1004 254 c 0,29,30
 1013 243 1013 243 1045.5 243 c 128,-1,31
 1078 243 1078 243 1113 280 c 128,-1,32
 1148 317 1148 317 1168 372 c 0,33,34
 1208 485 1208 485 1208 567 c 0,35,36
 1208 896 1208 896 811 894 c 0,37,38
 547 893 547 893 397.5 746 c 128,-1,39
 248 599 248 599 248 375.5 c 128,-1,40
 248 152 248 152 377.5 43.5 c 128,-1,41
 507 -65 507 -65 783 -65 c 0,42,43
 902 -65 902 -65 990.5 -47 c 128,-1,44
 1079 -29 1079 -29 1144 26 c 1,45,-1
 1189 -84 l 1,46,47
 1104 -149 1104 -149 976.5 -185 c 128,-1,48
 849 -221 849 -221 709 -221 c 0,49,50
 378 -221 378 -221 189 -71.5 c 128,-1,51
 0 78 0 78 0 326 c 0,52,53
 0 552 0 552 155 734 c 0,54,55
 322 930 322 930 583 1004 c 0,56,57
 724 1043 724 1043 846 1043 c 128,-1,58
 968 1043 968 1043 1047.5 1029 c 128,-1,59
 1127 1015 1127 1015 1201 982.5 c 128,-1,60
 1275 950 1275 950 1329 902 c 0,61,62
 1448 798 1448 798 1448 637.5 c 128,-1,63
 1448 477 1448 477 1376.5 350 c 128,-1,64
 1305 223 1305 223 1185.5 147.5 c 128,-1,65
 1066 72 1066 72 932 72 c 0,66,67
 857 72 857 72 810 92 c 1,68,69
 722 127 722 127 724 197 c 1,70,-1
 713 197 l 1,15,16
EndSplineSet
EndChar

StartChar: A
Encoding: 65 65 36
Width: 1453
Flags: W
LayerCount: 2
Fore
SplineSet
538 561 m 1,0,-1
 789 561 l 1,1,-1
 662 933 l 1,2,-1
 538 561 l 1,0,-1
0 0 m 1,3,-1
 19 138 l 1,4,-1
 180 241 l 1,5,-1
 568 1205 l 1,6,-1
 915 1270 l 1,7,-1
 1305 238 l 1,8,-1
 1453 145 l 1,9,-1
 1441 -2 l 1,10,-1
 716 -2 l 1,11,-1
 732 136 l 1,12,-1
 898 240 l 1,13,-1
 860 352 l 1,14,-1
 468 352 l 1,15,-1
 431 240 l 1,16,-1
 620 148 l 1,17,-1
 605 0 l 1,18,-1
 0 0 l 1,3,-1
EndSplineSet
EndChar

StartChar: B
Encoding: 66 66 37
Width: 1228
Flags: W
LayerCount: 2
Fore
SplineSet
552 728 m 1,0,-1
 726 728 l 1,1,2
 788 802 788 802 788 892 c 0,3,4
 788 1080 788 1080 604 1080 c 0,5,6
 584 1080 584 1080 552 1075 c 1,7,-1
 552 728 l 1,0,-1
552 186 m 1,8,-1
 664 186 l 2,9,10
 745 186 745 186 799 228.5 c 128,-1,11
 853 271 853 271 853 356.5 c 128,-1,12
 853 442 853 442 792 501.5 c 128,-1,13
 731 561 731 561 631 561 c 2,14,-1
 552 561 l 1,15,-1
 552 186 l 1,8,-1
0 0 m 1,16,-1
 14 138 l 1,17,-1
 180 217 l 1,18,-1
 180 1008 l 1,19,-1
 11 1052 l 1,20,-1
 21 1211 l 1,21,22
 367 1257 367 1257 560.5 1257 c 128,-1,23
 754 1257 754 1257 862 1231 c 128,-1,24
 970 1205 970 1205 1030 1160 c 0,25,26
 1146 1073 1146 1073 1146 951 c 0,27,28
 1146 869 1146 869 1085.5 790 c 128,-1,29
 1025 711 1025 711 943 684 c 1,30,-1
 943 674 l 1,31,32
 1089 666 1089 666 1162 571 c 0,33,34
 1228 485 1228 485 1228 379 c 0,35,36
 1228 199 1228 199 1076 99.5 c 128,-1,37
 924 0 924 0 644 0 c 2,38,-1
 0 0 l 1,16,-1
EndSplineSet
EndChar

StartChar: C
Encoding: 67 67 38
Width: 1242
Flags: W
LayerCount: 2
Fore
SplineSet
0 583 m 0,0,1
 0 788 0 788 96 952 c 0,2,3
 151 1046 151 1046 234.5 1115 c 128,-1,4
 318 1184 318 1184 455 1228 c 128,-1,5
 592 1272 592 1272 731.5 1272 c 128,-1,6
 871 1272 871 1272 989 1244 c 128,-1,7
 1107 1216 1107 1216 1162 1172 c 1,8,-1
 1131 748 l 1,9,-1
 961 771 l 1,10,-1
 897 1003 l 1,11,12
 864 1044 864 1044 810.5 1067 c 128,-1,13
 757 1090 757 1090 703 1090 c 0,14,15
 540 1090 540 1090 466 996.5 c 128,-1,16
 392 903 392 903 392 706 c 0,17,18
 392 205 392 205 809 205 c 0,19,20
 990 205 990 205 1135 313 c 1,21,-1
 1194 178 l 1,22,23
 1120 86 1120 86 989.5 28.5 c 128,-1,24
 859 -29 859 -29 680 -29 c 0,25,26
 338 -29 338 -29 169 131 c 128,-1,27
 0 291 0 291 0 583 c 0,0,1
EndSplineSet
EndChar

StartChar: D
Encoding: 68 68 39
Width: 1451
Flags: W
LayerCount: 2
Fore
SplineSet
573 202 m 1,0,-1
 648 202 l 2,1,2
 964 202 964 202 1030 459 c 0,3,4
 1046 523 1046 523 1046 591 c 128,-1,5
 1046 659 1046 659 1030.5 720.5 c 128,-1,6
 1015 782 1015 782 980 843.5 c 128,-1,7
 945 905 945 905 894 952 c 0,8,9
 780 1057 780 1057 591 1057 c 1,10,-1
 578 1056 l 2,11,12
 578 1055 578 1055 585 1053.5 c 128,-1,13
 592 1052 592 1052 584 1051.5 c 128,-1,14
 576 1051 576 1051 573 1051 c 1,15,-1
 573 202 l 1,0,-1
0 0 m 1,16,-1
 23 138 l 1,17,-1
 203 241 l 1,18,-1
 203 1003 l 1,19,-1
 30 1049 l 1,20,-1
 37 1206 l 1,21,22
 363 1258 363 1258 566.5 1258 c 128,-1,23
 770 1258 770 1258 886 1240.5 c 128,-1,24
 1002 1223 1002 1223 1086 1192 c 128,-1,25
 1170 1161 1170 1161 1234.5 1116 c 128,-1,26
 1299 1071 1299 1071 1339.5 1020 c 128,-1,27
 1380 969 1380 969 1406 906 c 0,28,29
 1451 795 1451 795 1451 659.5 c 128,-1,30
 1451 524 1451 524 1391.5 406 c 128,-1,31
 1332 288 1332 288 1226.5 198 c 128,-1,32
 1121 108 1121 108 962.5 54 c 128,-1,33
 804 0 804 0 618 0 c 2,34,-1
 0 0 l 1,16,-1
EndSplineSet
EndChar

StartChar: E
Encoding: 69 69 40
Width: 1237
Flags: W
LayerCount: 2
Fore
SplineSet
0 1100 m 1,0,-1
 19 1244 l 1,1,-1
 1192 1244 l 1,2,-1
 1162 826 l 1,3,-1
 991 852 l 1,4,-1
 908 1072 l 1,5,-1
 563 1072 l 1,6,-1
 563 712 l 1,7,-1
 696 723 l 1,8,-1
 982 746 l 1,9,-1
 949 470 l 1,10,-1
 563 540 l 1,11,-1
 563 210 l 1,12,-1
 926 170 l 1,13,-1
 1072 428 l 1,14,-1
 1237 411 l 1,15,-1
 1207 0 l 1,16,-1
 16 0 l 1,17,-1
 26 138 l 1,18,-1
 190 217 l 1,19,-1
 190 1030 l 1,20,-1
 0 1100 l 1,0,-1
EndSplineSet
EndChar

StartChar: F
Encoding: 70 70 41
Width: 1187
Flags: W
LayerCount: 2
Fore
SplineSet
0 1100 m 1,0,-1
 19 1244 l 1,1,-1
 1187 1244 l 1,2,-1
 1128 834 l 1,3,-1
 961 861 l 1,4,-1
 901 1072 l 1,5,-1
 565 1072 l 1,6,-1
 565 686 l 1,7,-1
 792 709 l 1,8,-1
 984 728 l 1,9,-1
 951 452 l 1,10,-1
 798 477 l 1,11,-1
 565 514 l 1,12,-1
 565 227 l 1,13,-1
 790 143 l 1,14,-1
 774 0 l 1,15,-1
 15 0 l 1,16,-1
 31 138 l 1,17,-1
 193 217 l 1,18,-1
 193 1030 l 1,19,-1
 0 1100 l 1,0,-1
EndSplineSet
EndChar

StartChar: G
Encoding: 71 71 42
Width: 1391
Flags: W
LayerCount: 2
Fore
SplineSet
0 580 m 0,0,1
 0 710 0 710 43 823 c 128,-1,2
 86 936 86 936 160 1017 c 128,-1,3
 234 1098 234 1098 332 1156 c 0,4,5
 525 1271 525 1271 761 1271 c 0,6,7
 927 1271 927 1271 1057 1242 c 0,8,9
 1090 1234 1090 1234 1166 1210 c 2,10,-1
 1242 1185 l 1,11,-1
 1201 746 l 1,12,-1
 1013 761 l 1,13,-1
 972 979 l 1,14,15
 922 1030 922 1030 862.5 1058.5 c 128,-1,16
 803 1087 803 1087 714 1087 c 0,17,18
 564 1087 564 1087 486 994 c 128,-1,19
 408 901 408 901 408 683 c 128,-1,20
 408 465 408 465 494 322 c 128,-1,21
 580 179 580 179 724 179 c 0,22,23
 833 179 833 179 909 235 c 1,24,-1
 909 355 l 1,25,-1
 688 419 l 1,26,-1
 711 591 l 1,27,-1
 1371 591 l 1,28,-1
 1350 435 l 1,29,-1
 1245 363 l 1,30,-1
 1245 93 l 1,31,32
 1180 51 1180 51 1018.5 13.5 c 128,-1,33
 857 -24 857 -24 740 -24 c 0,34,35
 372 -24 372 -24 186 129.5 c 128,-1,36
 0 283 0 283 0 580 c 0,0,1
EndSplineSet
EndChar

StartChar: H
Encoding: 72 72 43
Width: 1570
Flags: W
LayerCount: 2
Fore
SplineSet
0 1094 m 1,0,-1
 25 1244 l 1,1,-1
 745 1244 l 1,2,-1
 726 1094 l 1,3,-1
 559 1027 l 1,4,-1
 559 744 l 1,5,-1
 1006 744 l 1,6,-1
 1006 1020 l 1,7,-1
 825 1094 l 1,8,-1
 842 1244 l 1,9,-1
 1570 1244 l 1,10,-1
 1551 1094 l 1,11,-1
 1383 1027 l 1,12,-1
 1383 211 l 1,13,-1
 1562 148 l 1,14,-1
 1548 0 l 1,15,-1
 825 0 l 1,16,-1
 839 138 l 1,17,-1
 1006 217 l 1,18,-1
 1006 493 l 1,19,-1
 559 493 l 1,20,-1
 559 211 l 1,21,-1
 740 148 l 1,22,-1
 722 0 l 1,23,-1
 5 0 l 1,24,-1
 17 138 l 1,25,-1
 186 217 l 1,26,-1
 186 1020 l 1,27,-1
 0 1094 l 1,0,-1
EndSplineSet
EndChar

StartChar: I
Encoding: 73 73 44
Width: 757
Flags: W
LayerCount: 2
Fore
SplineSet
0 1094 m 1,0,-1
 20 1244 l 1,1,-1
 747 1244 l 1,2,-1
 731 1084 l 1,3,-1
 552 1017 l 1,4,-1
 552 223 l 1,5,-1
 732 160 l 1,6,-1
 719 0 l 1,7,-1
 2 0 l 1,8,-1
 12 142 l 1,9,-1
 188 221 l 1,10,-1
 188 1020 l 1,11,-1
 0 1094 l 1,0,-1
EndSplineSet
EndChar

StartChar: J
Encoding: 74 74 45
Width: 761
Flags: W
LayerCount: 2
Fore
SplineSet
0 -151 m 1,0,1
 101 -70 101 -70 152.5 49.5 c 128,-1,2
 204 169 204 169 204 285 c 2,3,-1
 204 1020 l 1,4,-1
 25 1094 l 1,5,-1
 44 1244 l 1,6,-1
 761 1244 l 1,7,-1
 741 1094 l 1,8,-1
 571 1027 l 1,9,-1
 571 434 l 2,10,11
 571 199 571 199 516 54 c 0,12,13
 465 -80 465 -80 303 -202 c 0,14,15
 230 -258 230 -258 117 -326 c 1,16,-1
 0 -151 l 1,0,1
EndSplineSet
EndChar

StartChar: K
Encoding: 75 75 46
Width: 1507
Flags: W
LayerCount: 2
Fore
SplineSet
630 655 m 1,0,1
 681 717 681 717 695 740 c 2,2,-1
 867 1003 l 1,3,-1
 907 1244 l 1,4,-1
 1428 1244 l 1,5,-1
 1398 1094 l 1,6,-1
 1174 1000 l 1,7,-1
 942 685 l 1,8,-1
 1100 470 l 2,9,10
 1172 372 1172 372 1207 328 c 128,-1,11
 1242 284 1242 284 1289 238.5 c 128,-1,12
 1336 193 1336 193 1378.5 173 c 128,-1,13
 1421 153 1421 153 1482 139 c 2,14,-1
 1507 133 l 1,15,-1
 1475 2 l 1,16,17
 1444 -10 1444 -10 1369 -18.5 c 128,-1,18
 1294 -27 1294 -27 1232 -27 c 128,-1,19
 1170 -27 1170 -27 1098.5 -1 c 128,-1,20
 1027 25 1027 25 968 78 c 0,21,22
 865 169 865 169 763 346 c 2,23,-1
 627 584 l 1,24,-1
 630 655 l 1,0,1
0 1094 m 1,25,-1
 32 1244 l 1,26,-1
 742 1244 l 1,27,-1
 721 1094 l 1,28,-1
 585 1000 l 1,29,-1
 585 240 l 1,30,-1
 780 148 l 1,31,-1
 768 0 l 1,32,-1
 3 0 l 1,33,-1
 19 138 l 1,34,-1
 221 241 l 1,35,-1
 221 993 l 1,36,-1
 0 1094 l 1,25,-1
EndSplineSet
EndChar

StartChar: L
Encoding: 76 76 47
Width: 1202
Flags: W
LayerCount: 2
Fore
SplineSet
0 0 m 1,0,-1
 16 138 l 1,1,-1
 176 217 l 1,2,-1
 176 998 l 1,3,-1
 4 1098 l 1,4,-1
 23 1245 l 1,5,-1
 766 1245 l 1,6,-1
 745 1098 l 1,7,-1
 549 1000 l 1,8,-1
 549 200 l 1,9,-1
 819 178 l 1,10,-1
 993 453 l 1,11,-1
 1159 430 l 1,12,-1
 1112 0 l 1,13,-1
 0 0 l 1,0,-1
EndSplineSet
EndChar

StartChar: M
Encoding: 77 77 48
Width: 1804
Flags: W
LayerCount: 2
Fore
SplineSet
0 0 m 1,0,-1
 21 154 l 1,1,-1
 189 233 l 1,2,-1
 247 1030 l 1,3,-1
 63 1087 l 1,4,-1
 79 1244 l 1,5,-1
 696 1244 l 1,6,-1
 767 1039 l 1,7,-1
 915 543 l 1,8,-1
 1071 1041 l 1,9,-1
 1138 1244 l 1,10,-1
 1738 1244 l 1,11,-1
 1720 1087 l 1,12,-1
 1558 1033 l 1,13,-1
 1628 229 l 1,14,-1
 1804 161 l 1,15,-1
 1790 0 l 1,16,-1
 1149 0 l 1,17,-1
 1172 154 l 1,18,-1
 1284 233 l 1,19,-1
 1231 776 l 1,20,-1
 1006 31 l 1,21,-1
 723 -8 l 1,22,-1
 484 787 l 1,23,-1
 451 229 l 1,24,-1
 580 161 l 1,25,-1
 555 0 l 1,26,-1
 0 0 l 1,0,-1
EndSplineSet
EndChar

StartChar: N
Encoding: 78 78 49
Width: 1403
Flags: W
LayerCount: 2
Fore
SplineSet
4 1087 m 1,0,-1
 18 1244 l 1,1,-1
 458 1244 l 1,2,-1
 990 532 l 1,3,-1
 990 1020 l 1,4,-1
 802 1094 l 1,5,-1
 826 1244 l 1,6,-1
 1403 1244 l 1,7,-1
 1378 1094 l 1,8,-1
 1210 1027 l 1,9,-1
 1210 15 l 1,10,-1
 927 -29 l 1,11,-1
 414 619 l 1,12,-1
 414 211 l 1,13,-1
 594 148 l 1,14,-1
 581 0 l 1,15,-1
 0 0 l 1,16,-1
 10 138 l 1,17,-1
 181 217 l 1,18,-1
 181 1003 l 1,19,-1
 4 1087 l 1,0,-1
EndSplineSet
EndChar

StartChar: O
Encoding: 79 79 50
Width: 1462
Flags: W
LayerCount: 2
Fore
SplineSet
736 163 m 0,0,1
 998 163 998 163 998 573 c 0,2,3
 998 655 998 655 983.5 745 c 128,-1,4
 969 835 969 835 947.5 889 c 128,-1,5
 926 943 926 943 896 990 c 0,6,7
 829 1094 829 1094 700 1094 c 0,8,9
 448 1094 448 1094 448 671 c 0,10,11
 448 553 448 553 474 455 c 128,-1,12
 500 357 500 357 530 299.5 c 128,-1,13
 560 242 560 242 614 202.5 c 128,-1,14
 668 163 668 163 736 163 c 0,0,1
0 619 m 128,-1,16
 0 912 0 912 202.5 1090.5 c 128,-1,17
 405 1269 405 1269 753 1269 c 0,18,19
 1302 1269 1302 1269 1428 865 c 0,20,21
 1462 754 1462 754 1462 607 c 128,-1,22
 1462 460 1462 460 1401.5 337.5 c 128,-1,23
 1341 215 1341 215 1236 136 c 0,24,25
 1018 -27 1018 -27 683 -27 c 0,26,27
 337 -27 337 -27 164 154 c 0,28,15
 0 326 0 326 0 619 c 128,-1,16
EndSplineSet
EndChar

StartChar: P
Encoding: 80 80 51
Width: 1195
Flags: W
LayerCount: 2
Fore
SplineSet
0 0 m 1,0,-1
 22 138 l 1,1,-1
 209 217 l 1,2,-1
 209 1008 l 1,3,-1
 19 1052 l 1,4,-1
 32 1211 l 1,5,6
 225 1241 225 1241 361 1254 c 128,-1,7
 497 1267 497 1267 648.5 1267 c 128,-1,8
 800 1267 800 1267 891.5 1247.5 c 128,-1,9
 983 1228 983 1228 1053 1184 c 0,10,11
 1195 1095 1195 1095 1195 878 c 0,12,13
 1195 694 1195 694 1056.5 568.5 c 128,-1,14
 918 443 918 443 698 443 c 0,15,16
 664 443 664 443 617 448 c 1,17,-1
 585 622 l 1,18,-1
 606 622 l 2,19,20
 714 622 714 622 769.5 678.5 c 128,-1,21
 825 735 825 735 825 831 c 128,-1,22
 825 927 825 927 775 990.5 c 128,-1,23
 725 1054 725 1054 630 1054 c 0,24,25
 603 1054 603 1054 563 1047 c 1,26,-1
 563 233 l 1,27,-1
 814 164 l 1,28,-1
 790 0 l 1,29,-1
 0 0 l 1,0,-1
EndSplineSet
EndChar

StartChar: Q
Encoding: 81 81 52
Width: 1451
Flags: W
LayerCount: 2
Fore
SplineSet
435 671 m 0,0,1
 435 491 435 491 527 338 c 0,2,3
 572 264 572 264 645.5 212.5 c 128,-1,4
 719 161 719 161 811 148 c 1,5,6
 921 204 921 204 961 306.5 c 128,-1,7
 1001 409 1001 409 1001 573 c 0,8,9
 1001 845 1001 845 889 999 c 0,10,11
 820 1094 820 1094 697 1094 c 0,12,13
 435 1094 435 1094 435 671 c 0,0,1
0 609 m 0,14,15
 0 752 0 752 55 874.5 c 128,-1,16
 110 997 110 997 208 1084 c 128,-1,17
 306 1171 306 1171 447 1220 c 128,-1,18
 588 1269 588 1269 751 1269 c 128,-1,19
 914 1269 914 1269 1039 1231.5 c 128,-1,20
 1164 1194 1164 1194 1258 1118 c 1,21,22
 1451 959 1451 959 1451 623 c 0,23,24
 1451 394 1451 394 1312 228 c 1,25,26
 1179 71 1179 71 993 16 c 1,27,28
 1075 -133 1075 -133 1428 -200 c 1,29,-1
 1407 -335 l 1,30,31
 1265 -383 1265 -383 1149.5 -383 c 128,-1,32
 1034 -383 1034 -383 959.5 -362.5 c 128,-1,33
 885 -342 885 -342 826.5 -301 c 128,-1,34
 768 -260 768 -260 740 -189 c 128,-1,35
 712 -118 712 -118 724 -26 c 1,36,37
 707 -27 707 -27 685 -27 c 0,38,39
 356 -27 356 -27 176 148 c 1,40,41
 0 321 0 321 0 609 c 0,14,15
EndSplineSet
EndChar

StartChar: R
Encoding: 82 82 53
Width: 1456
Flags: W
LayerCount: 2
Fore
SplineSet
732 668 m 1,0,1
 851 733 851 733 851 860 c 0,2,3
 851 949 851 949 784.5 1012 c 128,-1,4
 718 1075 718 1075 612 1075 c 0,5,6
 590 1075 590 1075 579 1074 c 1,7,-1
 579 668 l 1,8,-1
 732 668 l 1,0,1
0 0 m 1,9,-1
 19 138 l 1,10,-1
 209 217 l 1,11,-1
 209 996 l 1,12,-1
 17 1043 l 1,13,-1
 29 1203 l 1,14,15
 140 1221 140 1221 348.5 1238 c 128,-1,16
 557 1255 557 1255 666 1255 c 0,17,18
 963 1255 963 1255 1107.5 1175.5 c 128,-1,19
 1252 1096 1252 1096 1252 908 c 0,20,21
 1252 730 1252 730 1066 607 c 0,22,23
 1020 577 1020 577 976 562 c 1,24,-1
 976 561 l 1,25,-1
 1097 400 l 2,26,27
 1225 230 1225 230 1318 179 c 0,28,29
 1364 154 1364 154 1417 142 c 2,30,-1
 1456 133 l 1,31,-1
 1425 2 l 1,32,33
 1329 -27 1329 -27 1208 -27 c 0,34,35
 1035 -27 1035 -27 927.5 52 c 128,-1,36
 820 131 820 131 743 283 c 2,37,-1
 653 459 l 1,38,-1
 579 459 l 1,39,-1
 579 229 l 1,40,-1
 722 155 l 1,41,-1
 710 0 l 1,42,-1
 0 0 l 1,9,-1
EndSplineSet
EndChar

StartChar: S
Encoding: 83 83 54
Width: 969
Flags: W
LayerCount: 2
Fore
SplineSet
0 126 m 1,0,-1
 34 488 l 1,1,-1
 211 459 l 1,2,-1
 253 272 l 1,3,4
 283 229 283 229 346.5 205 c 128,-1,5
 410 181 410 181 472.5 181 c 128,-1,6
 535 181 535 181 570 210.5 c 128,-1,7
 605 240 605 240 605 280 c 128,-1,8
 605 320 605 320 572 351.5 c 128,-1,9
 539 383 539 383 486.5 407 c 128,-1,10
 434 431 434 431 370 455.5 c 128,-1,11
 306 480 306 480 242.5 514 c 128,-1,12
 179 548 179 548 126 591 c 0,13,14
 8 688 8 688 8 857 c 0,15,16
 8 1094 8 1094 246 1204 c 0,17,18
 378 1266 378 1266 548 1266 c 0,19,20
 634 1266 634 1266 750 1238.5 c 128,-1,21
 866 1211 866 1211 902 1176 c 1,22,-1
 874 814 l 1,23,-1
 701 844 l 1,24,-1
 662 987 l 1,25,26
 630 1033 630 1033 569 1059.5 c 128,-1,27
 508 1086 508 1086 451.5 1086 c 128,-1,28
 395 1086 395 1086 368 1060 c 128,-1,29
 341 1034 341 1034 341 992.5 c 128,-1,30
 341 951 341 951 377.5 917.5 c 128,-1,31
 414 884 414 884 472 857.5 c 128,-1,32
 530 831 530 831 600 802.5 c 128,-1,33
 670 774 670 774 740 736.5 c 128,-1,34
 810 699 810 699 868 653 c 128,-1,35
 926 607 926 607 962.5 537 c 128,-1,36
 999 467 999 467 999 379.5 c 128,-1,37
 999 292 999 292 959.5 219.5 c 128,-1,38
 920 147 920 147 860.5 103 c 128,-1,39
 801 59 801 59 725 30 c 0,40,41
 590 -23 590 -23 437.5 -23 c 128,-1,42
 285 -23 285 -23 163.5 19 c 128,-1,43
 42 61 42 61 0 126 c 1,0,-1
EndSplineSet
EndChar

StartChar: T
Encoding: 84 84 55
Width: 1264
Flags: W
LayerCount: 2
Fore
SplineSet
0 1244 m 1,0,-1
 1264 1244 l 1,1,-1
 1232 796 l 1,2,-1
 1049 827 l 1,3,-1
 985 1072 l 1,4,-1
 801 1072 l 1,5,-1
 801 208 l 1,6,-1
 1003 153 l 1,7,-1
 987 0 l 1,8,-1
 250 0 l 1,9,-1
 263 140 l 1,10,-1
 440 209 l 1,11,-1
 440 1072 l 1,12,-1
 260 1072 l 1,13,-1
 173 786 l 1,14,-1
 3 812 l 1,15,-1
 0 1244 l 1,0,-1
EndSplineSet
EndChar

StartChar: U
Encoding: 85 85 56
Width: 1544
Flags: W
LayerCount: 2
Fore
SplineSet
0 1094 m 1,0,-1
 29 1244 l 1,1,-1
 749 1244 l 1,2,-1
 727 1094 l 1,3,-1
 562 1027 l 1,4,-1
 562 541 l 2,5,6
 562 382 562 382 640.5 307.5 c 128,-1,7
 719 233 719 233 848 233 c 0,8,9
 1115 233 1115 233 1115 537 c 2,10,-1
 1115 1020 l 1,11,-1
 939 1094 l 1,12,-1
 959 1244 l 1,13,-1
 1544 1244 l 1,14,-1
 1527 1094 l 1,15,-1
 1362 1027 l 1,16,-1
 1358 565 l 2,17,18
 1352 -27 1352 -27 777 -27 c 0,19,20
 614 -27 614 -27 548.5 -10 c 128,-1,21
 483 7 483 7 437.5 25.5 c 128,-1,22
 392 44 392 44 358 69.5 c 128,-1,23
 324 95 324 95 291 134 c 128,-1,24
 258 173 258 173 237 222 c 0,25,26
 190 332 190 332 190 484 c 2,27,-1
 190 1020 l 1,28,-1
 0 1094 l 1,0,-1
EndSplineSet
EndChar

StartChar: V
Encoding: 86 86 57
Width: 1470
Flags: W
LayerCount: 2
Fore
SplineSet
0 1087 m 1,0,-1
 20 1244 l 1,1,-1
 776 1244 l 1,2,-1
 753 1087 l 1,3,-1
 591 1027 l 1,4,-1
 826 421 l 1,5,-1
 1044 1025 l 1,6,-1
 870 1087 l 1,7,-1
 885 1244 l 1,8,-1
 1470 1244 l 1,9,-1
 1455 1087 l 1,10,-1
 1321 1027 l 1,11,-1
 927 35 l 1,12,-1
 574 -23 l 1,13,-1
 145 1025 l 1,14,-1
 0 1087 l 1,0,-1
EndSplineSet
EndChar

StartChar: W
Encoding: 87 87 58
Width: 2037
Flags: W
LayerCount: 2
Fore
SplineSet
0 1089 m 1,0,-1
 11 1244 l 1,1,-1
 766 1244 l 1,2,-1
 730 1081 l 1,3,-1
 577 1027 l 1,4,-1
 731 486 l 1,5,-1
 906 1200 l 1,6,-1
 1245 1240 l 1,7,-1
 1451 502 l 1,8,-1
 1604 1030 l 1,9,-1
 1437 1084 l 1,10,-1
 1458 1244 l 1,11,-1
 2037 1244 l 1,12,-1
 2012 1087 l 1,13,-1
 1880 1033 l 1,14,-1
 1545 38 l 1,15,-1
 1212 -23 l 1,16,-1
 1005 721 l 1,17,-1
 827 38 l 1,18,-1
 481 -24 l 1,19,-1
 176 1023 l 1,20,-1
 0 1089 l 1,0,-1
EndSplineSet
EndChar

StartChar: X
Encoding: 88 88 59
Width: 1344
Flags: W
LayerCount: 2
Fore
SplineSet
0 0 m 1,0,-1
 25 157 l 1,1,-1
 154 233 l 1,2,-1
 480 611 l 1,3,-1
 139 1012 l 1,4,-1
 13 1066 l 1,5,-1
 41 1244 l 1,6,-1
 686 1244 l 1,7,-1
 659 1076 l 1,8,-1
 568 1010 l 1,9,-1
 728 810 l 1,10,-1
 887 1014 l 1,11,-1
 773 1084 l 1,12,-1
 800 1244 l 1,13,-1
 1308 1244 l 1,14,-1
 1284 1087 l 1,15,-1
 1154 1015 l 1,16,-1
 849 665 l 1,17,-1
 1241 225 l 1,18,-1
 1344 179 l 1,19,-1
 1318 0 l 1,20,-1
 674 0 l 1,21,-1
 703 166 l 1,22,-1
 793 231 l 1,23,-1
 609 466 l 1,24,-1
 448 232 l 1,25,-1
 591 167 l 1,26,-1
 560 0 l 1,27,-1
 0 0 l 1,0,-1
EndSplineSet
EndChar

StartChar: Y
Encoding: 89 89 60
Width: 1308
Flags: W
LayerCount: 2
Fore
SplineSet
0 1089 m 1,0,-1
 32 1245 l 1,1,-1
 693 1245 l 1,2,-1
 665 1089 l 1,3,-1
 590 1028 l 1,4,-1
 739 739 l 1,5,-1
 890 1025 l 1,6,-1
 791 1087 l 1,7,-1
 815 1244 l 1,8,-1
 1288 1244 l 1,9,-1
 1264 1087 l 1,10,-1
 1150 1027 l 1,11,-1
 834 498 l 1,12,-1
 834 221 l 1,13,-1
 1001 140 l 1,14,-1
 988 0 l 1,15,-1
 286 0 l 1,16,-1
 304 138 l 1,17,-1
 463 217 l 1,18,-1
 463 485 l 1,19,-1
 134 1027 l 1,20,-1
 0 1089 l 1,0,-1
EndSplineSet
EndChar

StartChar: Z
Encoding: 90 90 61
Width: 1072
Flags: W
LayerCount: 2
Fore
SplineSet
0 236 m 1,0,-1
 631 1069 l 1,1,-1
 291 1069 l 1,2,-1
 228 812 l 1,3,-1
 28 844 l 1,4,-1
 39 1244 l 1,5,-1
 1070 1244 l 1,6,-1
 1062 1089 l 1,7,-1
 377 206 l 1,8,-1
 735 176 l 1,9,-1
 922 457 l 1,10,-1
 1072 434 l 1,11,-1
 1011 0 l 1,12,-1
 13 0 l 1,13,-1
 0 236 l 1,0,-1
EndSplineSet
EndChar

StartChar: bracketleft
Encoding: 91 91 62
Width: 477
Flags: W
LayerCount: 2
Fore
SplineSet
477 -214 m 1,0,-1
 449 -378 l 1,1,-1
 0 -378 l 1,2,-1
 4 1255 l 1,3,-1
 440 1255 l 1,4,-1
 470 1094 l 1,5,-1
 231 1075 l 1,6,-1
 231 -193 l 1,7,-1
 477 -214 l 1,0,-1
EndSplineSet
EndChar

StartChar: backslash
Encoding: 92 92 63
Width: 696
Flags: W
LayerCount: 2
Fore
SplineSet
0 1333 m 1,0,-1
 235 1316 l 1,1,-1
 696 -410 l 1,2,-1
 469 -397 l 1,3,-1
 0 1333 l 1,0,-1
EndSplineSet
EndChar

StartChar: bracketright
Encoding: 93 93 64
Width: 477
Flags: W
LayerCount: 2
Fore
SplineSet
0 -214 m 1,0,-1
 246 -193 l 1,1,-1
 246 1075 l 1,2,-1
 7 1094 l 1,3,-1
 37 1255 l 1,4,-1
 473 1255 l 1,5,-1
 477 -378 l 1,6,-1
 28 -378 l 1,7,-1
 0 -214 l 1,0,-1
EndSplineSet
EndChar

StartChar: asciicircum
Encoding: 94 94 65
Width: 640
Flags: W
LayerCount: 2
Fore
SplineSet
0 825 m 1,0,-1
 241 1237 l 1,1,-1
 385 1250 l 1,2,-1
 640 823 l 1,3,-1
 518 789 l 1,4,-1
 302 963 l 1,5,-1
 291 963 l 1,6,-1
 114 796 l 1,7,-1
 0 825 l 1,0,-1
EndSplineSet
EndChar

StartChar: underscore
Encoding: 95 95 66
Width: 843
Flags: W
LayerCount: 2
Fore
SplineSet
0 -130 m 1,0,-1
 16 52 l 1,1,-1
 843 52 l 1,2,-1
 827 -130 l 1,3,-1
 0 -130 l 1,0,-1
EndSplineSet
EndChar

StartChar: grave
Encoding: 96 96 67
Width: 368
Flags: W
LayerCount: 2
Fore
SplineSet
0 1656 m 1,0,-1
 218 1696 l 1,1,-1
 368 1348 l 1,2,-1
 209 1317 l 1,3,-1
 0 1656 l 1,0,-1
EndSplineSet
EndChar

StartChar: a
Encoding: 97 97 68
Width: 932
Flags: W
LayerCount: 2
Fore
SplineSet
335 353 m 128,-1,1
 296 318 296 318 296 283 c 128,-1,2
 296 248 296 248 317.5 226.5 c 128,-1,3
 339 205 339 205 378 205 c 128,-1,4
 417 205 417 205 458 234 c 1,5,-1
 458 398 l 1,6,0
 374 388 374 388 335 353 c 128,-1,1
0 188 m 0,7,8
 0 328 0 328 122.5 420.5 c 128,-1,9
 245 513 245 513 458 512 c 1,10,-1
 458 607 l 2,11,12
 458 676 458 676 421 723 c 128,-1,13
 384 770 384 770 340 770 c 128,-1,14
 296 770 296 770 277.5 722.5 c 128,-1,15
 259 675 259 675 250 552 c 1,16,17
 88 552 88 552 50 616 c 0,18,19
 34 642 34 642 34 690.5 c 128,-1,20
 34 739 34 739 105 802 c 128,-1,21
 176 865 176 865 284.5 907 c 128,-1,22
 393 949 393 949 504.5 949 c 128,-1,23
 616 949 616 949 691 876 c 128,-1,24
 766 803 766 803 766 641 c 2,25,-1
 766 374 l 2,26,27
 766 285 766 285 783 254.5 c 128,-1,28
 800 224 800 224 864 210 c 2,29,-1
 892 204 l 1,30,-1
 867 34 l 1,31,32
 818 2 818 2 805.5 -2 c 128,-1,33
 793 -6 793 -6 780.5 -11 c 128,-1,34
 768 -16 768 -16 759.5 -17 c 128,-1,35
 751 -18 751 -18 738 -20 c 0,36,37
 720 -24 720 -24 662 -24 c 0,38,39
 550 -24 550 -24 499 106 c 2,40,-1
 494 119 l 1,41,-1
 481 125 l 1,42,43
 459 66 459 66 380 21.5 c 128,-1,44
 301 -23 301 -23 209 -23 c 128,-1,45
 117 -23 117 -23 58.5 29.5 c 128,-1,46
 0 82 0 82 0 188 c 0,7,8
EndSplineSet
EndChar

StartChar: b
Encoding: 98 98 69
Width: 1078
Flags: W
LayerCount: 2
Fore
SplineSet
461 259 m 1,0,1
 524 202 524 202 585.5 202 c 128,-1,2
 647 202 647 202 688 270.5 c 128,-1,3
 729 339 729 339 729 433.5 c 128,-1,4
 729 528 729 528 698.5 586.5 c 128,-1,5
 668 645 668 645 606.5 645 c 128,-1,6
 545 645 545 645 461 578 c 1,7,-1
 461 259 l 1,0,1
0 1086 m 1,8,-1
 28 1251 l 1,9,-1
 404 1277 l 1,10,-1
 461 1223 l 1,11,-1
 461 878 l 1,12,-1
 446 777 l 1,13,-1
 461 771 l 1,14,15
 534 852 534 852 591.5 891 c 128,-1,16
 649 930 649 930 725 930 c 0,17,18
 886 930 886 930 982 810 c 128,-1,19
 1078 690 1078 690 1078 516.5 c 128,-1,20
 1078 343 1078 343 998.5 222.5 c 128,-1,21
 919 102 919 102 793 39.5 c 128,-1,22
 667 -23 667 -23 522 -23 c 0,23,24
 439 -23 439 -23 324.5 -4 c 128,-1,25
 210 15 210 15 145 51 c 1,26,-1
 145 986 l 1,27,-1
 0 1086 l 1,8,-1
EndSplineSet
EndChar

StartChar: c
Encoding: 99 99 70
Width: 857
Flags: W
LayerCount: 2
Fore
SplineSet
0 426 m 0,0,1
 0 718 0 718 244 878 c 0,2,3
 380 967 380 967 521.5 967 c 128,-1,4
 663 967 663 967 743 898 c 128,-1,5
 823 829 823 829 823 736 c 128,-1,6
 823 643 823 643 767 601.5 c 128,-1,7
 711 560 711 560 621 550 c 1,8,9
 579 681 579 681 542 728.5 c 128,-1,10
 505 776 505 776 449 776 c 0,11,12
 333 776 333 776 333 515 c 0,13,14
 333 389 333 389 397.5 294.5 c 128,-1,15
 462 200 462 200 573 200 c 0,16,17
 650 200 650 200 701.5 216.5 c 128,-1,18
 753 233 753 233 817 271 c 1,19,-1
 857 167 l 1,20,21
 818 84 818 84 712.5 26.5 c 128,-1,22
 607 -31 607 -31 482 -31 c 0,23,24
 0 -31 0 -31 0 426 c 0,0,1
EndSplineSet
EndChar

StartChar: d
Encoding: 100 100 71
Width: 1064
Flags: W
LayerCount: 2
Fore
SplineSet
370 627 m 128,-1,1
 337 554 337 554 337 466.5 c 128,-1,2
 337 379 337 379 373 316 c 128,-1,3
 409 253 409 253 468 253 c 128,-1,4
 527 253 527 253 592 291 c 1,5,-1
 592 610 l 1,6,7
 517 700 517 700 460 700 c 128,-1,0
 403 700 403 700 370 627 c 128,-1,1
270 862.5 m 128,-1,9
 366 911 366 911 463 911 c 128,-1,10
 560 911 560 911 602 883 c 1,11,-1
 606 883 l 1,12,-1
 596 956 l 1,13,-1
 596 987 l 1,14,-1
 423 1088 l 1,15,-1
 448 1252 l 1,16,-1
 838 1279 l 1,17,-1
 898 1224 l 1,18,-1
 898 375 l 2,19,20
 898 300 898 300 924.5 270.5 c 128,-1,21
 951 241 951 241 1036 214 c 2,22,-1
 1064 205 l 1,23,-1
 1039 35 l 1,24,25
 915 -23 915 -23 803 -23 c 0,26,27
 651 -23 651 -23 601 107 c 2,28,-1
 596 120 l 1,29,-1
 583 126 l 1,30,31
 534 58 534 58 475.5 19.5 c 128,-1,32
 417 -19 417 -19 330.5 -19 c 128,-1,33
 244 -19 244 -19 181.5 12.5 c 128,-1,34
 119 44 119 44 80 98 c 0,35,36
 0 209 0 209 0 367 c 0,37,38
 0 575 0 575 116 735 c 0,39,8
 174 814 174 814 270 862.5 c 128,-1,9
EndSplineSet
EndChar

StartChar: e
Encoding: 101 101 72
Width: 845
Flags: W
LayerCount: 2
Fore
SplineSet
319 506 m 1,0,-1
 495 529 l 1,1,2
 501 547 501 547 501 604.5 c 128,-1,3
 501 662 501 662 481 702.5 c 128,-1,4
 461 743 461 743 414.5 743 c 128,-1,5
 368 743 368 743 342.5 676 c 128,-1,6
 317 609 317 609 319 506 c 1,0,-1
328 387 m 1,7,8
 340 199 340 199 578 199 c 0,9,10
 729 199 729 199 826 255 c 1,11,-1
 845 122 l 1,12,13
 802 65 802 65 724 29 c 0,14,15
 594 -31 594 -31 414 -31 c 128,-1,16
 234 -31 234 -31 117 88 c 128,-1,17
 0 207 0 207 0 430 c 0,18,19
 0 540 0 540 42.5 638.5 c 128,-1,20
 85 737 85 737 153.5 804.5 c 128,-1,21
 222 872 222 872 311 911 c 128,-1,22
 400 950 400 950 491 950 c 0,23,24
 651 950 651 950 739 847.5 c 128,-1,25
 827 745 827 745 827 580 c 0,26,27
 827 510 827 510 806 401 c 1,28,-1
 328 387 l 1,7,8
EndSplineSet
EndChar

StartChar: f
Encoding: 102 102 73
Width: 895
Flags: W
LayerCount: 2
Fore
SplineSet
0 0 m 1,0,-1
 12 158 l 1,1,-1
 167 230 l 1,2,-1
 167 700 l 1,3,-1
 17 700 l 1,4,-1
 27 849 l 1,5,-1
 165 873 l 1,6,7
 177 1064 177 1064 300 1175 c 128,-1,8
 423 1286 423 1286 612 1286 c 0,9,10
 741 1286 741 1286 780.5 1270 c 128,-1,11
 820 1254 820 1254 844 1238 c 1,12,13
 895 1207 895 1207 895 1139 c 128,-1,14
 895 1071 895 1071 835 1021 c 128,-1,15
 775 971 775 971 708 965 c 1,16,-1
 675 1033 l 1,17,18
 624 1134 624 1134 570 1134 c 128,-1,19
 516 1134 516 1134 489.5 1097.5 c 128,-1,20
 463 1061 463 1061 463 955 c 2,21,-1
 463 866 l 1,22,-1
 726 866 l 1,23,-1
 712 700 l 1,24,-1
 463 700 l 1,25,-1
 463 240 l 1,26,-1
 708 172 l 1,27,-1
 700 0 l 1,28,-1
 0 0 l 1,0,-1
EndSplineSet
EndChar

StartChar: g
Encoding: 103 103 74
Width: 1017
Flags: W
LayerCount: 2
Fore
SplineSet
371 645 m 0,0,1
 371 506 371 506 466 465 c 1,2,3
 465 464 465 464 463 464 c 1,4,5
 529 464 529 464 548.5 497 c 128,-1,6
 568 530 568 530 568 638 c 0,7,8
 568 668 568 668 552 716 c 0,9,10
 521 814 521 814 450 814 c 0,11,12
 416 814 416 814 393.5 775 c 128,-1,13
 371 736 371 736 371 645 c 0,0,1
278 -79 m 0,14,15
 278 -207 278 -207 463.5 -207 c 128,-1,16
 649 -207 649 -207 649 -103 c 0,17,18
 649 -49 649 -49 612.5 -23 c 128,-1,19
 576 3 576 3 492 3 c 2,20,-1
 295 3 l 1,21,22
 278 -43 278 -43 278 -79 c 0,14,15
27.5 -248.5 m 128,-1,24
 0 -205 0 -205 0 -155 c 128,-1,25
 0 -105 0 -105 43 -58 c 128,-1,26
 86 -11 86 -11 158 5 c 1,27,-1
 158 22 l 1,28,29
 110 45 110 45 87 80 c 128,-1,30
 64 115 64 115 64 175 c 128,-1,31
 64 235 64 235 126 287 c 128,-1,32
 188 339 188 339 259 355 c 1,33,-1
 256 373 l 1,34,35
 199 396 199 396 146 469 c 128,-1,36
 93 542 93 542 93 623 c 0,37,38
 93 750 93 750 197.5 847 c 128,-1,39
 302 944 302 944 470.5 944 c 128,-1,40
 639 944 639 944 751 881 c 1,41,-1
 987 913 l 1,42,-1
 1017 879 l 1,43,-1
 972 686 l 1,44,-1
 938 682 l 1,45,-1
 848 710 l 1,46,-1
 843 705 l 1,47,48
 846 679 846 679 846 655 c 0,49,50
 846 554 846 554 795 480 c 0,51,52
 695 333 695 333 480 333 c 0,53,54
 468 333 468 333 412 341 c 1,55,56
 387 314 387 314 387 290 c 0,57,58
 387 240 387 240 483 240 c 2,59,-1
 620 240 l 2,60,61
 792 240 792 240 876 181.5 c 128,-1,62
 960 123 960 123 960 -4 c 0,63,64
 960 -146 960 -146 812 -262 c 0,65,66
 741 -317 741 -317 630 -351 c 128,-1,67
 519 -385 519 -385 429.5 -385 c 128,-1,68
 340 -385 340 -385 293 -379.5 c 128,-1,69
 246 -374 246 -374 191.5 -358 c 128,-1,70
 137 -342 137 -342 96 -317 c 128,-1,23
 55 -292 55 -292 27.5 -248.5 c 128,-1,24
EndSplineSet
EndChar

StartChar: h
Encoding: 104 104 75
Width: 1165
Flags: W
LayerCount: 2
Fore
SplineSet
15 -2 m 1,0,-1
 32 155 l 1,1,-1
 174 227 l 1,2,-1
 174 982 l 1,3,-1
 0 1083 l 1,4,-1
 25 1247 l 1,5,-1
 415 1274 l 1,6,-1
 475 1219 l 1,7,-1
 475 898 l 1,8,-1
 455 765 l 1,9,-1
 470 759 l 1,10,11
 631 927 631 927 771 927 c 0,12,13
 887 927 887 927 952 857.5 c 128,-1,14
 1017 788 1017 788 1017 639 c 2,15,-1
 1017 227 l 1,16,-1
 1165 163 l 1,17,-1
 1142 -2 l 1,18,-1
 706 -2 l 1,19,-1
 706 427 l 2,20,21
 706 520 706 520 682.5 560 c 128,-1,22
 659 600 659 600 604 600 c 128,-1,23
 549 600 549 600 492 550 c 1,24,-1
 492 227 l 1,25,-1
 605 164 l 1,26,-1
 577 -2 l 1,27,-1
 15 -2 l 1,0,-1
EndSplineSet
EndChar

StartChar: i
Encoding: 105 105 76
Width: 638
Flags: W
LayerCount: 2
Fore
SplineSet
124 1022.5 m 128,-1,1
 70 1067 70 1067 70 1135.5 c 128,-1,2
 70 1204 70 1204 131 1247 c 128,-1,3
 192 1290 192 1290 304 1290 c 128,-1,4
 416 1290 416 1290 477 1246 c 128,-1,5
 538 1202 538 1202 538 1135.5 c 128,-1,6
 538 1069 538 1069 479 1023.5 c 128,-1,7
 420 978 420 978 299 978 c 128,-1,0
 178 978 178 978 124 1022.5 c 128,-1,1
0 0 m 1,8,-1
 8 176 l 1,9,-1
 162 230 l 1,10,-1
 162 619 l 1,11,-1
 14 728 l 1,12,-1
 47 901 l 1,13,-1
 420 928 l 1,14,-1
 476 872 l 1,15,-1
 476 230 l 1,16,-1
 638 174 l 1,17,-1
 627 0 l 1,18,-1
 0 0 l 1,8,-1
EndSplineSet
EndChar

StartChar: j
Encoding: 106 106 77
Width: 632
Flags: W
LayerCount: 2
Fore
SplineSet
211.5 1009 m 128,-1,1
 157 1057 157 1057 157 1130.5 c 128,-1,2
 157 1204 157 1204 218.5 1250 c 128,-1,3
 280 1296 280 1296 393.5 1296 c 128,-1,4
 507 1296 507 1296 569.5 1249 c 128,-1,5
 632 1202 632 1202 632 1130.5 c 128,-1,6
 632 1059 632 1059 572 1010 c 128,-1,7
 512 961 512 961 389 961 c 128,-1,0
 266 961 266 961 211.5 1009 c 128,-1,1
0 -213 m 1,8,-1
 68 -164 l 2,9,10
 113 -131 113 -131 130 -112 c 2,11,-1
 168 -70 l 2,12,13
 188 -47 188 -47 198 -28 c 1,14,-1
 220 20 l 1,15,16
 256 95 256 95 256 218 c 2,17,-1
 256 606 l 1,18,-1
 110 718 l 1,19,-1
 147 900 l 1,20,-1
 513 923 l 1,21,-1
 572 870 l 1,22,-1
 572 150 l 2,23,24
 572 -193 572 -193 216 -339 c 0,25,26
 180 -354 180 -354 132 -371 c 1,27,-1
 81 -382 l 1,28,-1
 0 -213 l 1,8,-1
EndSplineSet
EndChar

StartChar: k
Encoding: 107 107 78
Width: 1157
Flags: W
LayerCount: 2
Fore
SplineSet
504 402 m 1,0,-1
 514 447 l 1,1,-1
 699 760 l 1,2,-1
 564 817 l 1,3,-1
 586 975 l 1,4,-1
 1122 975 l 1,5,-1
 1093 824 l 1,6,-1
 946 761 l 1,7,-1
 780 503 l 1,8,-1
 793 483 l 2,9,10
 881 347 881 347 954.5 270 c 128,-1,11
 1028 193 1028 193 1116 135 c 2,12,-1
 1157 108 l 1,13,-1
 1130 0 l 1,14,-1
 1101 -5 l 2,15,16
 924 -35 924 -35 832 2 c 0,17,18
 711 51 711 51 576 280 c 2,19,-1
 504 402 l 1,0,-1
0 0 m 1,20,-1
 16 176 l 1,21,-1
 167 230 l 1,22,-1
 167 975 l 1,23,-1
 0 1077 l 1,24,-1
 34 1249 l 1,25,-1
 422 1277 l 1,26,-1
 482 1218 l 1,27,-1
 482 230 l 1,28,-1
 593 174 l 1,29,-1
 568 0 l 1,30,-1
 0 0 l 1,20,-1
EndSplineSet
EndChar

StartChar: l
Encoding: 108 108 79
Width: 638
Flags: W
LayerCount: 2
Fore
SplineSet
0 0 m 1,0,-1
 15 176 l 1,1,-1
 167 230 l 1,2,-1
 167 975 l 1,3,-1
 0 1077 l 1,4,-1
 34 1250 l 1,5,-1
 425 1275 l 1,6,-1
 482 1218 l 1,7,-1
 482 230 l 1,8,-1
 638 174 l 1,9,-1
 625 0 l 1,10,-1
 0 0 l 1,0,-1
EndSplineSet
EndChar

StartChar: m
Encoding: 109 109 80
Width: 1696
Flags: W
LayerCount: 2
Fore
SplineSet
0 0 m 1,0,-1
 17 157 l 1,1,-1
 159 229 l 1,2,-1
 159 640 l 1,3,-1
 17 721 l 1,4,-1
 44 889 l 1,5,-1
 447 918 l 1,6,-1
 485 879 l 1,7,-1
 462 777 l 1,8,-1
 477 771 l 1,9,10
 553 850 553 850 620 889.5 c 128,-1,11
 687 929 687 929 766 929 c 0,12,13
 946 929 946 929 990 761 c 1,14,-1
 1004 756 l 1,15,16
 1083 837 1083 837 1155 883 c 128,-1,17
 1227 929 1227 929 1302 929 c 0,18,19
 1418 929 1418 929 1483 859.5 c 128,-1,20
 1548 790 1548 790 1548 641 c 2,21,-1
 1548 229 l 1,22,-1
 1696 165 l 1,23,-1
 1673 0 l 1,24,-1
 1237 0 l 1,25,-1
 1237 429 l 2,26,27
 1237 522 1237 522 1213.5 562 c 128,-1,28
 1190 602 1190 602 1128 602 c 128,-1,29
 1066 602 1066 602 1012 555 c 1,30,-1
 1012 229 l 1,31,-1
 1143 165 l 1,32,-1
 1120 0 l 1,33,-1
 701 0 l 1,34,-1
 701 429 l 2,35,36
 701 522 701 522 677.5 562 c 128,-1,37
 654 602 654 602 594 602 c 128,-1,38
 534 602 534 602 477 552 c 1,39,-1
 477 229 l 1,40,-1
 600 166 l 1,41,-1
 572 0 l 1,42,-1
 0 0 l 1,0,-1
EndSplineSet
EndChar

StartChar: n
Encoding: 110 110 81
Width: 1160
Flags: W
LayerCount: 2
Fore
SplineSet
0 0 m 1,0,-1
 17 157 l 1,1,-1
 159 229 l 1,2,-1
 159 640 l 1,3,-1
 17 721 l 1,4,-1
 44 889 l 1,5,-1
 447 918 l 1,6,-1
 485 879 l 1,7,-1
 462 777 l 1,8,-1
 477 771 l 1,9,10
 553 850 553 850 620 889.5 c 128,-1,11
 687 929 687 929 766 929 c 0,12,13
 882 929 882 929 947 859.5 c 128,-1,14
 1012 790 1012 790 1012 641 c 2,15,-1
 1012 229 l 1,16,-1
 1160 165 l 1,17,-1
 1137 0 l 1,18,-1
 701 0 l 1,19,-1
 701 429 l 2,20,21
 701 522 701 522 677.5 562 c 128,-1,22
 654 602 654 602 594 602 c 128,-1,23
 534 602 534 602 477 552 c 1,24,-1
 477 229 l 1,25,-1
 600 166 l 1,26,-1
 572 0 l 1,27,-1
 0 0 l 1,0,-1
EndSplineSet
EndChar

StartChar: o
Encoding: 111 111 82
Width: 978
Flags: W
LayerCount: 2
Fore
SplineSet
361 690 m 128,-1,1
 334 637 334 637 334 490 c 0,2,3
 334 168 334 168 505 168 c 0,4,5
 569 168 569 168 594.5 209 c 128,-1,6
 620 250 620 250 620 336 c 128,-1,7
 620 422 620 422 617.5 468.5 c 128,-1,8
 615 515 615 515 605.5 570.5 c 128,-1,9
 596 626 596 626 580 661 c 0,10,11
 541 743 541 743 464.5 743 c 128,-1,0
 388 743 388 743 361 690 c 128,-1,1
0 470 m 0,12,13
 0 575 0 575 46 669 c 128,-1,14
 92 763 92 763 164 824 c 0,15,16
 317 951 317 951 495 951 c 0,17,18
 958 951 958 951 958 490 c 0,19,20
 958 254 958 254 825.5 113.5 c 128,-1,21
 693 -27 693 -27 474 -27 c 0,22,23
 209 -27 209 -27 98 127 c 0,24,25
 0 263 0 263 0 470 c 0,12,13
EndSplineSet
EndChar

StartChar: p
Encoding: 112 112 83
Width: 1101
Flags: W
LayerCount: 2
Fore
SplineSet
0 -370 m 1,0,-1
 18 -212 l 1,1,-1
 173 -142 l 1,2,-1
 173 645 l 1,3,-1
 21 726 l 1,4,-1
 48 894 l 1,5,-1
 464 923 l 1,6,-1
 502 884 l 1,7,-1
 479 802 l 1,8,-1
 494 796 l 1,9,10
 536 857 536 857 604.5 898.5 c 128,-1,11
 673 940 673 940 752 940 c 128,-1,12
 831 940 831 940 889 915 c 128,-1,13
 947 890 947 890 996 838 c 0,14,15
 1101 726 1101 726 1101 490 c 0,16,17
 1101 234 1101 234 956 104 c 1,18,19
 817 -19 817 -19 603 -19 c 0,20,21
 519 -19 519 -19 484 -13 c 1,22,-1
 484 -144 l 1,23,-1
 729 -210 l 1,24,-1
 707 -370 l 1,25,-1
 0 -370 l 1,0,-1
484 208 m 1,26,27
 549 180 549 180 616 180 c 128,-1,28
 683 180 683 180 730 232.5 c 128,-1,29
 777 285 777 285 777 395 c 128,-1,30
 777 505 777 505 744 574 c 128,-1,31
 711 643 711 643 637.5 643 c 128,-1,32
 564 643 564 643 484 590 c 1,33,-1
 484 208 l 1,26,27
EndSplineSet
EndChar

StartChar: q
Encoding: 113 113 84
Width: 1060
Flags: W
LayerCount: 2
Fore
SplineSet
0 386 m 0,0,1
 0 482 0 482 39 579.5 c 128,-1,2
 78 677 78 677 144 755.5 c 128,-1,3
 210 834 210 834 305.5 883.5 c 128,-1,4
 401 933 401 933 497.5 933 c 128,-1,5
 594 933 594 933 680 897 c 1,6,-1
 850 936 l 1,7,-1
 901 931 l 1,8,-1
 901 -137 l 1,9,-1
 1060 -204 l 1,10,-1
 1041 -363 l 1,11,-1
 434 -363 l 1,12,-1
 452 -204 l 1,13,-1
 604 -137 l 1,14,-1
 604 82 l 1,15,16
 515 -19 515 -19 321 -19 c 0,17,18
 173 -19 173 -19 86.5 80.5 c 128,-1,19
 0 180 0 180 0 386 c 0,0,1
604 259 m 1,20,-1
 604 582 l 1,21,22
 585 628 585 628 541.5 656 c 128,-1,23
 498 684 498 684 464 684 c 0,24,25
 389 684 389 684 356 633 c 128,-1,26
 323 582 323 582 323 472.5 c 128,-1,27
 323 363 323 363 365.5 296.5 c 128,-1,28
 408 230 408 230 468 230 c 0,29,30
 554 230 554 230 604 259 c 1,20,-1
EndSplineSet
EndChar

StartChar: r
Encoding: 114 114 85
Width: 871
Flags: W
LayerCount: 2
Fore
SplineSet
0 2 m 1,0,-1
 22 161 l 1,1,-1
 168 229 l 1,2,-1
 168 643 l 1,3,-1
 28 721 l 1,4,-1
 55 889 l 1,5,-1
 420 918 l 1,6,-1
 458 879 l 1,7,-1
 440 738 l 1,8,-1
 459 728 l 1,9,10
 527 930 527 930 705 930 c 0,11,12
 782 930 782 930 826.5 885 c 128,-1,13
 871 840 871 840 871 770 c 0,14,15
 871 647 871 647 766 546 c 1,16,17
 683 586 683 586 642 586 c 128,-1,18
 601 586 601 586 581 579 c 128,-1,19
 561 572 561 572 548.5 564 c 128,-1,20
 536 556 536 556 523.5 539.5 c 128,-1,21
 511 523 511 523 505.5 513.5 c 128,-1,22
 500 504 500 504 490 484 c 2,23,24
 490 484 490 484 478 460 c 1,25,-1
 478 251 l 1,26,-1
 717 188 l 1,27,-1
 703 2 l 1,28,-1
 0 2 l 1,0,-1
EndSplineSet
EndChar

StartChar: s
Encoding: 115 115 86
Width: 779
Flags: W
LayerCount: 2
Fore
SplineSet
53 60 m 0,0,1
 0 107 0 107 0 173 c 128,-1,2
 0 239 0 239 50 279.5 c 128,-1,3
 100 320 100 320 192 328 c 1,4,5
 220 229 220 229 268 176.5 c 128,-1,6
 316 124 316 124 375.5 124 c 128,-1,7
 435 124 435 124 459.5 137 c 128,-1,8
 484 150 484 150 484 179.5 c 128,-1,9
 484 209 484 209 459 231 c 128,-1,10
 434 253 434 253 394 273 c 2,11,12
 394 273 394 273 307 316 c 0,13,14
 114 409 114 409 59 522 c 0,15,16
 34 573 34 573 34 621.5 c 128,-1,17
 34 670 34 670 45.5 709.5 c 128,-1,18
 57 749 57 749 86.5 792.5 c 128,-1,19
 116 836 116 836 159 870 c 0,20,21
 258 948 258 948 420.5 948 c 128,-1,22
 583 948 583 948 673.5 902 c 128,-1,23
 764 856 764 856 764 782.5 c 128,-1,24
 764 709 764 709 707 664 c 128,-1,25
 650 619 650 619 573 611 c 1,26,-1
 540 697 l 2,27,28
 501 799 501 799 388 799 c 0,29,30
 349 799 349 799 326 780 c 128,-1,31
 303 761 303 761 303 734.5 c 128,-1,32
 303 708 303 708 329.5 685 c 128,-1,33
 356 662 356 662 397.5 641 c 128,-1,34
 439 620 439 620 490 596.5 c 128,-1,35
 541 573 541 573 592 542.5 c 128,-1,36
 643 512 643 512 684 476 c 0,37,38
 779 392 779 392 779 259 c 128,-1,39
 779 126 779 126 659 45 c 128,-1,40
 539 -36 539 -36 348 -36 c 0,41,42
 160 -36 160 -36 53 60 c 0,0,1
EndSplineSet
EndChar

StartChar: t
Encoding: 116 116 87
Width: 762
Flags: W
LayerCount: 2
Fore
SplineSet
450 354 m 1,0,1
 448 227 448 227 582 227 c 0,2,3
 648 227 648 227 712 256 c 1,4,-1
 742 123 l 1,5,6
 700 65 700 65 616.5 21 c 128,-1,7
 533 -23 533 -23 418 -23 c 0,8,9
 250 -23 250 -23 187.5 47 c 128,-1,10
 125 117 125 117 127 295 c 2,11,-1
 130 663 l 1,12,-1
 30 663 l 1,13,-1
 30 812 l 1,14,15
 183 905 183 905 293 1077 c 1,16,-1
 456 1077 l 1,17,-1
 456 856 l 1,18,-1
 730 856 l 1,19,-1
 718 660 l 1,20,-1
 452 660 l 1,21,-1
 450 354 l 1,0,1
EndSplineSet
EndChar

StartChar: u
Encoding: 117 117 88
Width: 1143
Flags: W
LayerCount: 2
Fore
SplineSet
0 718 m 1,0,-1
 34 901 l 1,1,-1
 398 923 l 1,2,-1
 454 870 l 1,3,-1
 454 469 l 2,4,5
 454 373 454 373 472.5 334.5 c 128,-1,6
 491 296 491 296 547.5 296 c 128,-1,7
 604 296 604 296 661 346 c 1,8,-1
 661 604 l 1,9,-1
 532 680 l 1,10,-1
 566 889 l 1,11,-1
 924 931 l 1,12,-1
 977 878 l 1,13,-1
 977 373 l 2,14,15
 977 296 977 296 1005 262 c 128,-1,16
 1033 228 1033 228 1115 202 c 2,17,-1
 1143 193 l 1,18,-1
 1118 23 l 1,19,20
 994 -35 994 -35 889 -35 c 0,21,22
 675 -35 675 -35 675 115 c 2,23,-1
 675 128 l 1,24,-1
 662 134 l 1,25,26
 619 57 619 57 543.5 13 c 128,-1,27
 468 -31 468 -31 393 -31 c 0,28,29
 240 -31 240 -31 182.5 37.5 c 128,-1,30
 125 106 125 106 125 267 c 2,31,-1
 125 613 l 1,32,-1
 0 718 l 1,0,-1
EndSplineSet
EndChar

StartChar: v
Encoding: 118 118 89
Width: 1032
Flags: W
LayerCount: 2
Fore
SplineSet
0 766 m 1,0,-1
 22 922 l 1,1,-1
 573 922 l 1,2,-1
 553 766 l 1,3,-1
 460 709 l 1,4,-1
 574 332 l 1,5,-1
 706 706 l 1,6,-1
 622 766 l 1,7,-1
 650 922 l 1,8,-1
 1032 922 l 1,9,-1
 1007 766 l 1,10,-1
 921 709 l 1,11,-1
 661 -6 l 1,12,-1
 382 -32 l 1,13,-1
 112 706 l 1,14,-1
 0 766 l 1,0,-1
EndSplineSet
EndChar

StartChar: w
Encoding: 119 119 90
Width: 1310
Flags: W
LayerCount: 2
Fore
SplineSet
0 766 m 1,0,-1
 23 925 l 1,1,-1
 508 925 l 1,2,-1
 487 768 l 1,3,-1
 409 693 l 1,4,-1
 472 341 l 1,5,-1
 487 457 l 1,6,-1
 566 860 l 1,7,-1
 797 880 l 1,8,-1
 920 317 l 1,9,-1
 931 476 l 1,10,-1
 957 691 l 1,11,-1
 897 766 l 1,12,-1
 918 925 l 1,13,-1
 1310 925 l 1,14,-1
 1286 768 l 1,15,-1
 1180 693 l 1,16,-1
 1002 -10 l 1,17,-1
 743 -41 l 1,18,-1
 639 414 l 1,19,-1
 543 -11 l 1,20,-1
 305 -39 l 1,21,-1
 114 691 l 1,22,-1
 0 766 l 1,0,-1
EndSplineSet
EndChar

StartChar: x
Encoding: 120 120 91
Width: 990
Flags: W
LayerCount: 2
Fore
SplineSet
0 0 m 1,0,-1
 13 157 l 1,1,-1
 150 209 l 1,2,-1
 326 446 l 1,3,-1
 93 731 l 1,4,-1
 11 770 l 1,5,-1
 42 931 l 1,6,-1
 335 931 l 1,7,-1
 539 635 l 1,8,-1
 613 742 l 1,9,-1
 551 800 l 1,10,-1
 579 931 l 1,11,-1
 990 931 l 1,12,-1
 967 775 l 1,13,-1
 841 732 l 1,14,-1
 650 504 l 1,15,-1
 874 223 l 1,16,-1
 990 179 l 1,17,-1
 967 0 l 1,18,-1
 656 0 l 1,19,-1
 439 312 l 1,20,-1
 382 199 l 1,21,-1
 483 134 l 1,22,-1
 458 0 l 1,23,-1
 0 0 l 1,0,-1
EndSplineSet
EndChar

StartChar: y
Encoding: 121 121 92
Width: 1120
Flags: W
LayerCount: 2
Fore
SplineSet
72 -334 m 128,-1,1
 0 -286 0 -286 0 -223.5 c 128,-1,2
 0 -161 0 -161 16.5 -116 c 128,-1,3
 33 -71 33 -71 84 -21 c 1,4,5
 120 -60 120 -60 183 -83 c 128,-1,6
 246 -106 246 -106 310 -106 c 0,7,8
 409 -106 409 -106 449 -41 c 2,9,-1
 463 -18 l 1,10,-1
 150 704 l 1,11,-1
 24 763 l 1,12,-1
 47 922 l 1,13,-1
 602 922 l 1,14,-1
 581 766 l 1,15,-1
 491 709 l 1,16,-1
 634 321 l 1,17,-1
 788 701 l 1,18,-1
 672 766 l 1,19,-1
 699 922 l 1,20,-1
 1120 922 l 1,21,-1
 1103 766 l 1,22,-1
 1005 704 l 1,23,-1
 681 -15 l 2,24,25
 592 -213 592 -213 490.5 -297.5 c 128,-1,26
 389 -382 389 -382 230 -382 c 0,27,0
 144 -382 144 -382 72 -334 c 128,-1,1
EndSplineSet
EndChar

StartChar: z
Encoding: 122 122 93
Width: 817
Flags: W
LayerCount: 2
Fore
SplineSet
16 180 m 1,0,-1
 407 747 l 1,1,-1
 260 747 l 1,2,-1
 161 574 l 1,3,-1
 0 603 l 1,4,-1
 25 922 l 1,5,-1
 798 922 l 1,6,-1
 792 763 l 1,7,-1
 370 181 l 1,8,-1
 553 181 l 1,9,-1
 675 366 l 1,10,-1
 817 330 l 1,11,-1
 778 0 l 1,12,-1
 24 0 l 1,13,-1
 16 180 l 1,0,-1
EndSplineSet
EndChar

StartChar: braceleft
Encoding: 123 123 94
Width: 677
Flags: W
LayerCount: 2
Fore
SplineSet
677 -379 m 1,0,-1
 432 -379 l 2,1,2
 348 -379 348 -379 295.5 -343 c 128,-1,3
 243 -307 243 -307 223 -248 c 128,-1,4
 203 -189 203 -189 196 -117 c 128,-1,5
 189 -45 189 -45 187.5 29 c 128,-1,6
 186 103 186 103 178 166 c 0,7,8
 161 312 161 312 61 333 c 2,9,-1
 0 346 l 1,10,-1
 0 545 l 1,11,-1
 58 557 l 2,12,13
 155 577 155 577 175 690 c 0,14,15
 194 797 194 797 194 893.5 c 128,-1,16
 194 990 194 990 205.5 1049 c 128,-1,17
 217 1108 217 1108 238 1154 c 0,18,19
 284 1255 284 1255 430 1255 c 2,20,-1
 670 1255 l 1,21,-1
 664 1052 l 1,22,-1
 531 1049 l 2,23,24
 498 1048 498 1048 488.5 991.5 c 128,-1,25
 479 935 479 935 480.5 852.5 c 128,-1,26
 482 770 482 770 478.5 685.5 c 128,-1,27
 475 601 475 601 443 536 c 128,-1,28
 411 471 411 471 346 459 c 1,29,-1
 346 446 l 1,30,31
 401 410 401 410 431.5 348 c 128,-1,32
 462 286 462 286 467.5 219.5 c 128,-1,33
 473 153 473 153 474.5 83 c 128,-1,34
 476 13 476 13 475 -42 c 0,35,36
 473 -167 473 -167 541 -169 c 2,37,-1
 665 -173 l 1,38,-1
 677 -379 l 1,0,-1
EndSplineSet
EndChar

StartChar: bar
Encoding: 124 124 95
Width: 196
Flags: W
LayerCount: 2
Fore
SplineSet
0 -363 m 1,0,-1
 0 1260 l 1,1,-1
 196 1248 l 1,2,-1
 196 -379 l 1,3,-1
 0 -363 l 1,0,-1
EndSplineSet
EndChar

StartChar: braceright
Encoding: 125 125 96
Width: 677
Flags: W
LayerCount: 2
Fore
SplineSet
0 -379 m 1,0,-1
 12 -173 l 1,1,-1
 136 -169 l 2,2,3
 204 -167 204 -167 202 -42 c 0,4,5
 199 98 199 98 207 192 c 0,6,7
 222 375 222 375 331 446 c 1,8,-1
 331 459 l 1,9,10
 266 471 266 471 234 536 c 128,-1,11
 202 601 202 601 198.5 685.5 c 128,-1,12
 195 770 195 770 196.5 852.5 c 128,-1,13
 198 935 198 935 188.5 991.5 c 128,-1,14
 179 1048 179 1048 146 1049 c 2,15,-1
 13 1052 l 1,16,-1
 7 1255 l 1,17,-1
 247 1255 l 2,18,19
 393 1255 393 1255 439 1154 c 0,20,21
 483 1058 483 1058 483 961.5 c 128,-1,22
 483 865 483 865 488 803 c 128,-1,23
 493 741 493 741 502 690 c 0,24,25
 522 577 522 577 619 557 c 2,26,-1
 677 545 l 1,27,-1
 677 346 l 1,28,-1
 616 333 l 2,29,30
 516 312 516 312 498 166 c 0,31,32
 491 103 491 103 489.5 29 c 128,-1,33
 488 -45 488 -45 481 -117 c 128,-1,34
 474 -189 474 -189 454 -248 c 128,-1,35
 434 -307 434 -307 381.5 -343 c 128,-1,36
 329 -379 329 -379 245 -379 c 2,37,-1
 0 -379 l 1,0,-1
EndSplineSet
EndChar

StartChar: asciitilde
Encoding: 126 126 97
Width: 824
Flags: W
LayerCount: 2
Fore
SplineSet
3 282 m 1,0,1
 -12 413 -12 413 32 534 c 0,2,3
 79 661 79 661 196 698 c 0,4,5
 256 717 256 717 339 696 c 2,6,-1
 681 613 l 1,7,8
 729 603 729 603 770 666 c 0,9,10
 779 681 779 681 787 702 c 1,11,-1
 961 684 l 1,12,13
 959 388 959 388 792 306 c 1,14,15
 706 265 706 265 587 296 c 2,16,-1
 272 378 l 2,17,18
 235 388 235 388 212.5 361.5 c 128,-1,19
 190 335 190 335 186 304 c 2,20,-1
 181 272 l 1,21,-1
 3 282 l 1,0,1
EndSplineSet
EndChar

StartChar: exclamdown
Encoding: 161 161 99
Width: 425
Flags: W
LayerCount: 2
Fore
SplineSet
408 -294 m 0,0,1
 408 -406 408 -406 202 -406 c 0,2,3
 120 -406 120 -406 84 -386.5 c 128,-1,4
 48 -367 48 -367 48 -315 c 0,5,6
 48 10 48 10 127 538 c 1,7,-1
 294 509 l 1,8,9
 330 321 330 321 369 49.5 c 128,-1,10
 408 -222 408 -222 408 -294 c 0,0,1
427 773 m 0,11,12
 427 713 427 713 377.5 666.5 c 128,-1,13
 328 620 328 620 214.5 620 c 128,-1,14
 101 620 101 620 50.5 665.5 c 128,-1,15
 0 711 0 711 0 770 c 0,16,17
 0 926 0 926 213.5 926 c 128,-1,18
 427 926 427 926 427 773 c 0,11,12
EndSplineSet
EndChar

StartChar: cent
Encoding: 162 162 100
Width: 867
Flags: W
LayerCount: 2
Fore
SplineSet
346 1232 m 1,0,-1
 573 1249 l 1,1,-1
 551 1012 l 1,2,3
 754 1006 754 1006 816 830 c 0,4,5
 833 782 833 782 833 714 c 128,-1,6
 833 646 833 646 779.5 595.5 c 128,-1,7
 726 545 726 545 641 536 c 1,8,9
 588 693 588 693 544.5 751.5 c 128,-1,10
 501 810 501 810 446 810 c 0,11,12
 333 810 333 810 333 531 c 0,13,14
 333 406 333 406 397 318 c 128,-1,15
 461 230 461 230 573 230 c 0,16,17
 648 230 648 230 703 250 c 128,-1,18
 758 270 758 270 827 311 c 1,19,-1
 867 177 l 1,20,21
 833 107 833 107 746.5 49.5 c 128,-1,22
 660 -8 660 -8 555 -25 c 1,23,-1
 585 -250 l 1,24,-1
 356 -266 l 1,25,-1
 380 -24 l 1,26,27
 92 16 92 16 21 279 c 0,28,29
 0 357 0 357 0 452 c 0,30,31
 0 646 0 646 109.5 786.5 c 128,-1,32
 219 927 219 927 377 983 c 1,33,-1
 346 1232 l 1,0,-1
EndSplineSet
EndChar

StartChar: sterling
Encoding: 163 163 101
Width: 1208
Flags: W
LayerCount: 2
Fore
SplineSet
0 0 m 1,0,-1
 11 138 l 1,1,-1
 175 217 l 1,2,3
 207 298 207 298 213 331 c 128,-1,4
 219 364 219 364 222 460 c 2,5,-1
 223 501 l 1,6,-1
 37 487 l 1,7,-1
 53 671 l 1,8,-1
 226 679 l 1,9,-1
 228 746 l 2,10,11
 232 870 232 870 288.5 969.5 c 128,-1,12
 345 1069 345 1069 436 1130 c 0,13,14
 622 1255 622 1255 868 1255 c 0,15,16
 1020 1255 1020 1255 1152 1205 c 1,17,-1
 1111 779 l 1,18,-1
 951 801 l 1,19,-1
 871 1014 l 1,20,21
 805 1042 805 1042 738.5 1042 c 128,-1,22
 672 1042 672 1042 642 1014 c 1,23,24
 582 955 582 955 582 706 c 2,25,-1
 582 686 l 1,26,-1
 865 701 l 1,27,-1
 854 520 l 1,28,-1
 578 507 l 1,29,-1
 575 483 l 2,30,31
 573 466 573 466 570.5 424 c 128,-1,32
 568 382 568 382 565 356 c 0,33,34
 556 282 556 282 515 231 c 1,35,-1
 833 181 l 1,36,-1
 1032 441 l 1,37,-1
 1208 407 l 1,38,-1
 1154 0 l 1,39,-1
 0 0 l 1,0,-1
EndSplineSet
EndChar

StartChar: currency
Encoding: 164 164 102
Width: 850
Flags: W
LayerCount: 2
Fore
SplineSet
353.5 577 m 128,-1,1
 321 544 321 544 321 490 c 128,-1,2
 321 436 321 436 353 400 c 128,-1,3
 385 364 385 364 428.5 364 c 128,-1,4
 472 364 472 364 503 397.5 c 128,-1,5
 534 431 534 431 534 486.5 c 128,-1,6
 534 542 534 542 503.5 576 c 128,-1,7
 473 610 473 610 429.5 610 c 128,-1,0
 386 610 386 610 353.5 577 c 128,-1,1
0 733 m 1,8,-1
 166 886 l 1,9,-1
 305 741 l 1,10,11
 354 784 354 784 430 784 c 128,-1,12
 506 784 506 784 549 752 c 1,13,-1
 690 891 l 1,14,-1
 855 732 l 1,15,-1
 706 595 l 1,16,17
 730 552 730 552 730 486 c 128,-1,18
 730 420 730 420 701 372 c 1,19,-1
 860 221 l 1,20,-1
 684 71 l 1,21,-1
 539 226 l 1,22,23
 478 190 478 190 422.5 190 c 128,-1,24
 367 190 367 190 320 218 c 1,25,-1
 174 54 l 1,26,-1
 9 212 l 1,27,-1
 164 362 l 1,28,29
 129 412 129 412 129 478 c 128,-1,30
 129 544 129 544 156 589 c 1,31,-1
 0 733 l 1,8,-1
EndSplineSet
EndChar

StartChar: yen
Encoding: 165 165 103
Width: 1126
Flags: W
LayerCount: 2
Fore
SplineSet
0 1089 m 1,0,-1
 32 1245 l 1,1,-1
 574 1245 l 1,2,-1
 546 1089 l 1,3,-1
 482 1028 l 1,4,-1
 626 686 l 1,5,-1
 794 1030 l 1,6,-1
 692 1089 l 1,7,-1
 717 1245 l 1,8,-1
 1126 1245 l 1,9,-1
 1103 1089 l 1,10,-1
 989 1030 l 1,11,-1
 773 630 l 1,12,-1
 973 630 l 1,13,-1
 964 490 l 1,14,-1
 725 490 l 1,15,-1
 725 438 l 1,16,-1
 968 438 l 1,17,-1
 955 307 l 1,18,-1
 725 307 l 1,19,-1
 725 203 l 1,20,-1
 852 141 l 1,21,-1
 841 0 l 1,22,-1
 261 0 l 1,23,-1
 279 131 l 1,24,-1
 378 212 l 1,25,-1
 378 307 l 1,26,-1
 132 307 l 1,27,-1
 146 438 l 1,28,-1
 378 438 l 1,29,-1
 378 490 l 1,30,-1
 135 490 l 1,31,-1
 152 630 l 1,32,-1
 342 630 l 1,33,-1
 126 1027 l 1,34,-1
 0 1089 l 1,0,-1
EndSplineSet
EndChar

StartChar: brokenbar
Encoding: 166 166 104
Width: 219
Flags: W
LayerCount: 2
Fore
SplineSet
0 528 m 1,0,-1
 0 1274 l 1,1,-1
 216 1248 l 1,2,-1
 218 505 l 1,3,-1
 0 528 l 1,0,-1
0 -351 m 1,4,-1
 0 415 l 1,5,-1
 219 387 l 1,6,-1
 219 -379 l 1,7,-1
 0 -351 l 1,4,-1
EndSplineSet
EndChar

StartChar: section
Encoding: 167 167 105
Width: 972
Flags: W
LayerCount: 2
Fore
SplineSet
17 934 m 0,0,1
 17 1012 17 1012 51.5 1083.5 c 128,-1,2
 86 1155 86 1155 152 1194 c 128,-1,3
 218 1233 218 1233 299 1249.5 c 128,-1,4
 380 1266 380 1266 487 1266 c 128,-1,5
 594 1266 594 1266 689.5 1244 c 128,-1,6
 785 1222 785 1222 831 1187 c 1,7,-1
 818 899 l 1,8,-1
 647 922 l 1,9,-1
 598 1068 l 1,10,11
 528 1117 528 1117 445 1117 c 0,12,13
 335 1117 335 1117 335 995 c 0,14,15
 335 913 335 913 455 866 c 1,16,-1
 703 774 l 1,17,18
 1043 650 1043 650 909 320 c 1,19,-1
 390 545 l 1,20,21
 152 647 152 647 82 731 c 0,22,23
 17 808 17 808 17 934 c 0,0,1
8 -231 m 1,24,-1
 29 80 l 1,25,-1
 214 46 l 1,26,-1
 262 -157 l 1,27,28
 281 -173 281 -173 340.5 -191.5 c 128,-1,29
 400 -210 400 -210 456 -210 c 0,30,31
 600 -210 600 -210 600 -81 c 0,32,33
 600 -34 600 -34 560 3.5 c 128,-1,34
 520 41 520 41 458 66 c 2,35,-1
 324 121 l 2,36,37
 250 152 250 152 184 187 c 128,-1,38
 118 222 118 222 68 280 c 0,39,40
 -34 400 -34 400 22 614 c 1,41,-1
 674 326 l 1,42,43
 804 267 804 267 846 220 c 1,44,45
 897 165 897 165 906 135 c 0,46,47
 928 69 928 69 928 -5 c 128,-1,48
 928 -79 928 -79 891 -151.5 c 128,-1,49
 854 -224 854 -224 797.5 -267.5 c 128,-1,50
 741 -311 741 -311 668 -340 c 0,51,52
 539 -393 539 -393 418 -393 c 128,-1,53
 297 -393 297 -393 177 -343 c 128,-1,54
 57 -293 57 -293 8 -231 c 1,24,-1
EndSplineSet
EndChar

StartChar: dieresis
Encoding: 168 168 106
Width: 594
Flags: W
LayerCount: 2
Fore
SplineSet
0 1465 m 0,0,1
 0 1507 0 1507 32.5 1539.5 c 128,-1,2
 65 1572 65 1572 140 1572 c 128,-1,3
 215 1572 215 1572 248.5 1540.5 c 128,-1,4
 282 1509 282 1509 282 1467 c 0,5,6
 282 1358 282 1358 141 1358 c 128,-1,7
 0 1358 0 1358 0 1465 c 0,0,1
309 1465 m 0,8,9
 309 1507 309 1507 341.5 1539.5 c 128,-1,10
 374 1572 374 1572 449 1572 c 128,-1,11
 524 1572 524 1572 557.5 1540.5 c 128,-1,12
 591 1509 591 1509 591 1467 c 0,13,14
 591 1358 591 1358 450 1358 c 128,-1,15
 309 1358 309 1358 309 1465 c 0,8,9
EndSplineSet
EndChar

StartChar: copyright
Encoding: 169 169 107
Width: 1389
Flags: W
LayerCount: 2
Fore
SplineSet
323 678 m 0,0,1
 323 924 323 924 526 1056 c 0,2,3
 642 1131 642 1131 760 1131 c 128,-1,4
 878 1131 878 1131 944.5 1073 c 128,-1,5
 1011 1015 1011 1015 1011 927 c 0,6,7
 1011 801 1011 801 842 782 c 1,8,9
 807 892 807 892 776 931.5 c 128,-1,10
 745 971 745 971 698 971 c 0,11,12
 602 971 602 971 602 752 c 0,13,14
 602 646 602 646 655.5 567 c 128,-1,15
 709 488 709 488 802 488 c 0,16,17
 867 488 867 488 910 502 c 128,-1,18
 953 516 953 516 1006 548 c 1,19,-1
 1040 461 l 1,20,21
 1007 391 1007 391 919 343 c 128,-1,22
 831 295 831 295 726 295 c 0,23,24
 323 295 323 295 323 678 c 0,0,1
337 1097 m 128,-1,26
 206 950 206 950 206 698 c 128,-1,27
 206 446 206 446 346.5 308 c 128,-1,28
 487 170 487 170 714 170 c 0,29,30
 926 170 926 170 1069 302 c 0,31,32
 1138 365 1138 365 1178 465.5 c 128,-1,33
 1218 566 1218 566 1218 683 c 128,-1,34
 1218 800 1218 800 1187.5 897.5 c 128,-1,35
 1157 995 1157 995 1096.5 1073.5 c 128,-1,36
 1036 1152 1036 1152 934.5 1198 c 128,-1,37
 833 1244 833 1244 703 1244 c 0,38,25
 468 1244 468 1244 337 1097 c 128,-1,26
0 687 m 0,39,40
 0 850 0 850 55.5 984.5 c 128,-1,41
 111 1119 111 1119 208 1209 c 0,42,43
 409 1397 409 1397 722.5 1397 c 128,-1,44
 1036 1397 1036 1397 1222.5 1206 c 128,-1,45
 1409 1015 1409 1015 1409 700 c 0,46,47
 1409 568 1409 568 1355 442.5 c 128,-1,48
 1301 317 1301 317 1208.5 221.5 c 128,-1,49
 1116 126 1116 126 984.5 68 c 128,-1,50
 853 10 853 10 708 10 c 0,51,52
 375 10 375 10 187.5 192.5 c 128,-1,53
 0 375 0 375 0 687 c 0,39,40
EndSplineSet
EndChar

StartChar: ordfeminine
Encoding: 170 170 108
Width: 932
Flags: W
LayerCount: 2
Fore
SplineSet
359 749 m 0,0,1
 359 690 359 690 413 690 c 0,2,3
 437 690 437 690 469 713 c 1,4,-1
 469 834 l 1,5,6
 399 826 399 826 382 806 c 0,7,8
 359 779 359 779 359 749 c 0,0,1
102 676 m 0,9,10
 102 788 102 788 200 862.5 c 128,-1,11
 298 937 298 937 469 936 c 1,12,-1
 469 1012 l 2,13,14
 469 1067 469 1067 444 1099.5 c 128,-1,15
 419 1132 419 1132 384.5 1132 c 128,-1,16
 350 1132 350 1132 340 1101 c 128,-1,17
 330 1070 330 1070 322 968 c 1,18,19
 181 968 181 968 145 1018 c 0,20,21
 129 1040 129 1040 129 1078.5 c 128,-1,22
 129 1117 129 1117 185.5 1167 c 128,-1,23
 242 1217 242 1217 329 1251 c 128,-1,24
 416 1285 416 1285 480 1285 c 128,-1,25
 544 1285 544 1285 584.5 1272 c 128,-1,26
 625 1259 625 1259 660 1232 c 0,27,28
 735 1173 735 1173 735 1039 c 2,29,-1
 735 825 l 2,30,31
 735 754 735 754 748.5 729.5 c 128,-1,32
 762 705 762 705 813 694 c 2,33,-1
 836 689 l 1,34,-1
 816 553 l 1,35,36
 738 507 738 507 661 507 c 128,-1,37
 584 507 584 507 553 529 c 0,38,39
 521 552 521 552 497 611 c 1,40,-1
 487 616 l 1,41,42
 470 570 470 570 407.5 539 c 128,-1,43
 345 508 345 508 270.5 508 c 128,-1,44
 196 508 196 508 149 550 c 128,-1,45
 102 592 102 592 102 676 c 0,9,10
EndSplineSet
EndChar

StartChar: guillemotleft
Encoding: 171 171 109
Width: 667
Flags: W
LayerCount: 2
Fore
SplineSet
313 469 m 1,0,-1
 580 818 l 1,1,-1
 654 712 l 1,2,-1
 539 460 l 1,3,-1
 667 192 l 1,4,-1
 573 75 l 1,5,-1
 310 447 l 1,6,-1
 313 469 l 1,0,-1
3 469 m 1,7,-1
 270 818 l 1,8,-1
 344 712 l 1,9,-1
 229 460 l 1,10,-1
 357 192 l 1,11,-1
 263 75 l 1,12,-1
 0 447 l 1,13,-1
 3 469 l 1,7,-1
EndSplineSet
EndChar

StartChar: logicalnot
Encoding: 172 172 110
Width: 805
Flags: W
LayerCount: 2
Fore
SplineSet
0 459 m 1,0,-1
 12 661 l 1,1,-1
 815 661 l 1,2,-1
 815 261 l 1,3,-1
 596 241 l 1,4,-1
 596 459 l 1,5,-1
 0 459 l 1,0,-1
EndSplineSet
EndChar

StartChar: uni00AD
Encoding: 173 173 111
Width: 512
Flags: W
LayerCount: 2
Fore
SplineSet
0 348 m 1,0,-1
 5 572 l 1,1,-1
 512 628 l 1,2,-1
 506 405 l 1,3,-1
 0 348 l 1,0,-1
EndSplineSet
EndChar

StartChar: registered
Encoding: 174 174 112
Width: 1321
Flags: W
LayerCount: 2
Fore
SplineSet
261 1036 m 0,0,1
 261 844 261 844 374 740 c 128,-1,2
 487 636 487 636 686.5 636 c 128,-1,3
 886 636 886 636 1002.5 738.5 c 128,-1,4
 1119 841 1119 841 1119 1024.5 c 128,-1,5
 1119 1208 1119 1208 996 1317 c 128,-1,6
 873 1426 873 1426 682 1426 c 0,7,8
 261 1426 261 1426 261 1036 c 0,0,1
123 1023 m 0,9,10
 123 1128 123 1128 155.5 1216 c 128,-1,11
 188 1304 188 1304 242.5 1363.5 c 128,-1,12
 297 1423 297 1423 370 1464 c 0,13,14
 507 1542 507 1542 682 1542 c 0,15,16
 971 1542 971 1542 1134 1371 c 0,17,18
 1257 1243 1257 1243 1257 1026 c 0,19,20
 1257 736 1257 736 1000 598 c 0,21,22
 855 520 855 520 672 520 c 0,23,24
 501 520 501 520 366 594 c 0,25,26
 123 726 123 726 123 1023 c 0,9,10
698 1073 m 1,27,28
 741 1097 741 1097 741 1150 c 0,29,30
 741 1256 741 1256 650 1256 c 2,31,-1
 639 1256 l 1,32,-1
 639 1073 l 1,33,-1
 698 1073 l 1,27,28
368 773 m 1,34,-1
 377 835 l 1,35,-1
 452 870 l 1,36,-1
 452 1221 l 1,37,-1
 376 1242 l 1,38,-1
 382 1314 l 1,39,40
 526 1337 526 1337 664.5 1337 c 128,-1,41
 803 1337 803 1337 872.5 1301 c 128,-1,42
 942 1265 942 1265 942 1181 c 0,43,44
 942 1126 942 1126 903.5 1091.5 c 128,-1,45
 865 1057 865 1057 815 1040 c 1,46,-1
 815 1039 l 1,47,-1
 854 977 l 1,48,49
 902 903 902 903 1006 843 c 1,50,-1
 1024 833 l 1,51,-1
 1010 774 l 1,52,53
 969 761 969 761 899.5 761 c 128,-1,54
 830 761 830 761 772.5 803 c 128,-1,55
 715 845 715 845 692 918 c 2,56,-1
 672 979 l 1,57,-1
 639 979 l 1,58,-1
 639 876 l 1,59,-1
 693 842 l 1,60,-1
 688 773 l 1,61,-1
 368 773 l 1,34,-1
EndSplineSet
EndChar

StartChar: macron
Encoding: 175 175 113
Width: 474
Flags: W
LayerCount: 2
Fore
SplineSet
0 1379 m 1,0,-1
 21 1574 l 1,1,-1
 474 1574 l 1,2,-1
 452 1379 l 1,3,-1
 0 1379 l 1,0,-1
EndSplineSet
EndChar

StartChar: degree
Encoding: 176 176 114
Width: 424
Flags: W
LayerCount: 2
Fore
SplineSet
153 1129 m 0,0,1
 153 1023 153 1023 219 1023 c 0,2,3
 245 1023 245 1023 259.5 1046 c 128,-1,4
 274 1069 274 1069 274 1109 c 128,-1,5
 274 1149 274 1149 257 1179 c 128,-1,6
 240 1209 240 1209 211.5 1209 c 128,-1,7
 183 1209 183 1209 168 1186 c 128,-1,8
 153 1163 153 1163 153 1129 c 0,0,1
72 975 m 128,-1,10
 22 1022 22 1022 22 1103.5 c 128,-1,11
 22 1185 22 1185 83 1244.5 c 128,-1,12
 144 1304 144 1304 228 1304 c 128,-1,13
 312 1304 312 1304 364 1256.5 c 128,-1,14
 416 1209 416 1209 416 1126.5 c 128,-1,15
 416 1044 416 1044 350 986 c 128,-1,16
 284 928 284 928 203 928 c 128,-1,9
 122 928 122 928 72 975 c 128,-1,10
EndSplineSet
EndChar

StartChar: plusminus
Encoding: 177 177 115
Width: 631
Flags: W
LayerCount: 2
Fore
SplineSet
0 610 m 1,0,-1
 8 775 l 1,1,-1
 227 775 l 1,2,-1
 227 1020 l 1,3,-1
 415 1008 l 1,4,-1
 415 775 l 1,5,-1
 641 775 l 1,6,-1
 628 610 l 1,7,-1
 415 610 l 1,8,-1
 415 376 l 1,9,-1
 227 380 l 1,10,-1
 227 610 l 1,11,-1
 0 610 l 1,0,-1
21 141 m 1,12,-1
 36 319 l 1,13,-1
 616 341 l 1,14,-1
 601 156 l 1,15,-1
 21 141 l 1,12,-1
EndSplineSet
EndChar

StartChar: uni00B2
Encoding: 178 178 116
Width: 740
Flags: W
LayerCount: 2
Fore
SplineSet
70 706 m 1,0,-1
 186 789 l 2,1,2
 282 858 282 858 331 927 c 128,-1,3
 380 996 380 996 380 1034 c 0,4,5
 380 1106 380 1106 308 1106 c 0,6,7
 291 1106 291 1106 261 1095 c 1,8,-1
 221 922 l 1,9,-1
 112 932 l 1,10,-1
 70 1160 l 1,11,12
 127 1213 127 1213 217.5 1244.5 c 128,-1,13
 308 1276 308 1276 398.5 1276 c 128,-1,14
 489 1276 489 1276 549 1257 c 128,-1,15
 609 1238 609 1238 642 1208 c 1,16,17
 710 1149 710 1149 710 1090 c 128,-1,18
 710 1031 710 1031 682 980.5 c 128,-1,19
 654 930 654 930 608 892 c 0,20,21
 522 821 522 821 420 780 c 2,22,-1
 340 747 l 1,23,-1
 541 727 l 1,24,-1
 629 848 l 1,25,-1
 740 842 l 1,26,-1
 706 528 l 1,27,-1
 84 528 l 1,28,-1
 70 706 l 1,0,-1
EndSplineSet
EndChar

StartChar: uni00B3
Encoding: 179 179 117
Width: 698
Flags: W
LayerCount: 2
Fore
SplineSet
244 1152 m 1,0,-1
 216 1151 l 1,1,-1
 184 1001 l 1,2,-1
 38 1006 l 1,3,-1
 0 1206 l 1,4,5
 27 1245 27 1245 123.5 1279 c 128,-1,6
 220 1313 220 1313 301 1313 c 128,-1,7
 382 1313 382 1313 443.5 1305.5 c 128,-1,8
 505 1298 505 1298 556 1281 c 0,9,10
 661 1246 661 1246 661 1154 c 0,11,12
 661 1107 661 1107 620 1064 c 0,13,14
 546 987 546 987 413 954 c 1,15,-1
 413 944 l 1,16,17
 571 950 571 950 633 910 c 128,-1,18
 695 870 695 870 698 777 c 0,19,20
 702 662 702 662 566.5 580.5 c 128,-1,21
 431 499 431 499 220 499 c 0,22,23
 104 499 104 499 14 527 c 1,24,-1
 61 804 l 1,25,-1
 219 796 l 1,26,-1
 230 675 l 1,27,28
 248 671 248 671 268 671 c 128,-1,29
 288 671 288 671 310 690 c 128,-1,30
 332 709 332 709 332 751 c 128,-1,31
 332 793 332 793 299 824 c 128,-1,32
 266 855 266 855 212 841 c 1,33,-1
 176 966 l 1,34,35
 322 989 322 989 322 1066 c 0,36,37
 322 1108 322 1108 299 1130 c 128,-1,38
 276 1152 276 1152 244 1152 c 1,0,-1
EndSplineSet
EndChar

StartChar: acute
Encoding: 180 180 118
Width: 317
Flags: W
LayerCount: 2
Fore
SplineSet
-1 1389 m 1,0,-1
 154 1714 l 1,1,-1
 374 1700 l 1,2,-1
 143 1368 l 1,3,-1
 -1 1389 l 1,0,-1
EndSplineSet
EndChar

StartChar: paragraph
Encoding: 182 182 119
Width: 1605
Flags: W
LayerCount: 2
Fore
SplineSet
1144 -2 m 1,0,-1
 1144 1245 l 1,1,-1
 1585 1245 l 1,2,-1
 1566 1089 l 1,3,-1
 1388 1022 l 1,4,-1
 1388 214 l 1,5,-1
 1578 148 l 1,6,-1
 1569 -2 l 1,7,-1
 1144 -2 l 1,0,-1
164 488.5 m 128,-1,9
 0 594 0 594 0 797 c 128,-1,10
 0 1000 0 1000 133.5 1122.5 c 128,-1,11
 267 1245 267 1245 500 1245 c 2,12,-1
 1031 1245 l 1,13,-1
 1031 -2 l 1,14,-1
 487 -2 l 1,15,-1
 498 136 l 1,16,-1
 756 216 l 1,17,-1
 756 1068 l 1,18,19
 656 1088 656 1088 583 1088 c 0,20,21
 464 1088 464 1088 405 1033 c 128,-1,22
 346 978 346 978 346 859 c 0,23,24
 346 763 346 763 412 684 c 0,25,26
 484 597 484 597 631 601 c 1,27,-1
 613 408 l 1,28,8
 328 383 328 383 164 488.5 c 128,-1,9
EndSplineSet
EndChar

StartChar: periodcentered
Encoding: 183 183 120
Width: 427
Flags: W
LayerCount: 2
Fore
SplineSet
0 505 m 0,0,1
 0 565 0 565 49.5 611.5 c 128,-1,2
 99 658 99 658 212.5 658 c 128,-1,3
 326 658 326 658 376.5 612.5 c 128,-1,4
 427 567 427 567 427 508 c 0,5,6
 427 352 427 352 213.5 352 c 128,-1,7
 0 352 0 352 0 505 c 0,0,1
EndSplineSet
EndChar

StartChar: cedilla
Encoding: 184 184 121
Width: 379
Flags: W
LayerCount: 2
Fore
SplineSet
19 -300 m 1,0,1
 77 -299 77 -299 116.5 -279.5 c 128,-1,2
 156 -260 156 -260 156 -236 c 0,3,4
 156 -197 156 -197 0 -144 c 1,5,-1
 188 3 l 1,6,-1
 362 3 l 1,7,-1
 244 -83 l 1,8,9
 419 -98 419 -98 419 -226 c 0,10,11
 419 -310 419 -310 336 -349 c 128,-1,12
 253 -388 253 -388 55 -388 c 1,13,-1
 19 -300 l 1,0,1
EndSplineSet
EndChar

StartChar: uni00B9
Encoding: 185 185 122
Width: 617
Flags: W
LayerCount: 2
Fore
SplineSet
0 528 m 1,0,-1
 15 658 l 1,1,-1
 143 693 l 1,2,-1
 143 1073 l 1,3,-1
 22 1073 l 1,4,-1
 33 1241 l 1,5,-1
 411 1274 l 1,6,-1
 480 1274 l 1,7,-1
 480 686 l 1,8,-1
 617 666 l 1,9,-1
 610 528 l 1,10,-1
 0 528 l 1,0,-1
EndSplineSet
EndChar

StartChar: ordmasculine
Encoding: 186 186 123
Width: 978
Flags: W
LayerCount: 2
Fore
SplineSet
406 1082.5 m 128,-1,1
 389 1042 389 1042 389 921 c 128,-1,2
 389 800 389 800 416.5 731.5 c 128,-1,3
 444 663 444 663 515 663 c 0,4,5
 564 663 564 663 580.5 694 c 128,-1,6
 597 725 597 725 597 788 c 128,-1,7
 597 851 597 851 596.5 870 c 128,-1,8
 596 889 596 889 595 923 c 128,-1,9
 594 957 594 957 590 976 c 2,10,-1
 582 1022 l 2,11,12
 575 1059 575 1059 555 1085 c 0,13,14
 524 1123 524 1123 473.5 1123 c 128,-1,0
 423 1123 423 1123 406 1082.5 c 128,-1,1
101 913 m 0,15,16
 101 988 101 988 139 1063.5 c 128,-1,17
 177 1139 177 1139 238 1187 c 0,18,19
 366 1289 366 1289 507 1289 c 0,20,21
 691 1289 691 1289 789.5 1196.5 c 128,-1,22
 888 1104 888 1104 888 918 c 128,-1,23
 888 732 888 732 778 619.5 c 128,-1,24
 668 507 668 507 491 507 c 0,25,26
 250 507 250 507 154 676 c 0,27,28
 101 769 101 769 101 913 c 0,15,16
EndSplineSet
EndChar

StartChar: guillemotright
Encoding: 187 187 124
Width: 667
Flags: W
LayerCount: 2
Fore
SplineSet
354 469 m 1,0,-1
 357 447 l 1,1,-1
 94 75 l 1,2,-1
 0 192 l 1,3,-1
 128 460 l 1,4,-1
 13 712 l 1,5,-1
 87 818 l 1,6,-1
 354 469 l 1,0,-1
664 469 m 1,7,-1
 667 447 l 1,8,-1
 404 75 l 1,9,-1
 310 192 l 1,10,-1
 438 460 l 1,11,-1
 323 712 l 1,12,-1
 397 818 l 1,13,-1
 664 469 l 1,7,-1
EndSplineSet
EndChar

StartChar: onequarter
Encoding: 188 188 125
Width: 1595
Flags: W
LayerCount: 2
Fore
SplineSet
80 35 m 1,0,-1
 637 588 l 1,1,-1
 1180 1207 l 1,2,-1
 1482 1205 l 1,3,-1
 1482 1130 l 1,4,-1
 941 591 l 1,5,-1
 448 -19 l 1,6,-1
 80 35 l 1,0,-1
-144 528 m 1,7,-1
 -129 658 l 1,8,-1
 -1 693 l 1,9,-1
 -1 1073 l 1,10,-1
 -122 1073 l 1,11,-1
 -111 1241 l 1,12,-1
 267 1274 l 1,13,-1
 336 1274 l 1,14,-1
 336 686 l 1,15,-1
 473 666 l 1,16,-1
 466 528 l 1,17,-1
 -144 528 l 1,7,-1
1090 275 m 1,18,-1
 1215 275 l 1,19,-1
 1215 441 l 1,20,-1
 1090 275 l 1,18,-1
887 295 m 1,21,-1
 1385 707 l 1,22,-1
 1496 681 l 1,23,24
 1485 553 1485 553 1485 425 c 2,25,-1
 1485 314 l 1,26,-1
 1633 314 l 1,27,-1
 1624 145 l 1,28,-1
 1485 145 l 1,29,-1
 1485 63 l 1,30,-1
 1584 35 l 1,31,-1
 1577 -60 l 1,32,-1
 1092 -60 l 1,33,-1
 1097 30 l 1,34,-1
 1196 62 l 1,35,-1
 1196 148 l 1,36,-1
 902 148 l 1,37,-1
 887 295 l 1,21,-1
EndSplineSet
EndChar

StartChar: onehalf
Encoding: 189 189 126
Width: 1595
Flags: W
LayerCount: 2
Fore
SplineSet
80 35 m 1,0,-1
 637 588 l 1,1,-1
 1180 1207 l 1,2,-1
 1482 1205 l 1,3,-1
 1482 1130 l 1,4,-1
 941 591 l 1,5,-1
 448 -19 l 1,6,-1
 80 35 l 1,0,-1
-144 528 m 1,7,-1
 -129 658 l 1,8,-1
 -1 693 l 1,9,-1
 -1 1073 l 1,10,-1
 -122 1073 l 1,11,-1
 -111 1241 l 1,12,-1
 267 1274 l 1,13,-1
 336 1274 l 1,14,-1
 336 686 l 1,15,-1
 473 666 l 1,16,-1
 466 528 l 1,17,-1
 -144 528 l 1,7,-1
1021 118 m 1,18,-1
 1137 201 l 2,19,20
 1233 270 1233 270 1282 339 c 128,-1,21
 1331 408 1331 408 1331 446 c 0,22,23
 1331 518 1331 518 1259 518 c 0,24,25
 1242 518 1242 518 1212 507 c 1,26,-1
 1172 334 l 1,27,-1
 1063 344 l 1,28,-1
 1021 572 l 1,29,30
 1078 625 1078 625 1168.5 656.5 c 128,-1,31
 1259 688 1259 688 1349.5 688 c 128,-1,32
 1440 688 1440 688 1500 669 c 128,-1,33
 1560 650 1560 650 1594 620 c 0,34,35
 1661 561 1661 561 1661 502 c 128,-1,36
 1661 443 1661 443 1633 392.5 c 128,-1,37
 1605 342 1605 342 1559 304 c 0,38,39
 1473 233 1473 233 1371 192 c 2,40,-1
 1291 159 l 1,41,-1
 1492 139 l 1,42,-1
 1580 260 l 1,43,-1
 1691 254 l 1,44,-1
 1657 -60 l 1,45,-1
 1035 -60 l 1,46,-1
 1021 118 l 1,18,-1
EndSplineSet
EndChar

StartChar: threequarters
Encoding: 190 190 127
Width: 1595
Flags: W
LayerCount: 2
Fore
SplineSet
1090 275 m 1,0,-1
 1215 275 l 1,1,-1
 1215 441 l 1,2,-1
 1090 275 l 1,0,-1
887 295 m 1,3,-1
 1385 707 l 1,4,-1
 1496 681 l 1,5,6
 1485 553 1485 553 1485 425 c 2,7,-1
 1485 314 l 1,8,-1
 1633 314 l 1,9,-1
 1624 145 l 1,10,-1
 1485 145 l 1,11,-1
 1485 63 l 1,12,-1
 1584 35 l 1,13,-1
 1577 -60 l 1,14,-1
 1092 -60 l 1,15,-1
 1097 30 l 1,16,-1
 1196 62 l 1,17,-1
 1196 148 l 1,18,-1
 902 148 l 1,19,-1
 887 295 l 1,3,-1
80 35 m 1,20,-1
 637 588 l 1,21,-1
 1180 1207 l 1,22,-1
 1482 1205 l 1,23,-1
 1482 1130 l 1,24,-1
 941 591 l 1,25,-1
 448 -19 l 1,26,-1
 80 35 l 1,20,-1
96 1142 m 1,27,-1
 68 1141 l 1,28,-1
 36 991 l 1,29,-1
 -110 996 l 1,30,-1
 -148 1196 l 1,31,32
 -121 1235 -121 1235 -24.5 1269 c 128,-1,33
 72 1303 72 1303 153 1303 c 128,-1,34
 234 1303 234 1303 295.5 1295.5 c 128,-1,35
 357 1288 357 1288 408 1271 c 0,36,37
 513 1236 513 1236 513 1144 c 0,38,39
 513 1097 513 1097 472 1054 c 0,40,41
 398 977 398 977 265 944 c 1,42,-1
 265 934 l 1,43,44
 423 940 423 940 485 900 c 128,-1,45
 547 860 547 860 550 767 c 0,46,47
 554 652 554 652 418.5 570.5 c 128,-1,48
 283 489 283 489 72 489 c 0,49,50
 -44 489 -44 489 -134 517 c 1,51,-1
 -87 794 l 1,52,-1
 71 786 l 1,53,-1
 82 665 l 1,54,55
 100 661 100 661 120 661 c 128,-1,56
 140 661 140 661 162 680 c 128,-1,57
 184 699 184 699 184 741 c 128,-1,58
 184 783 184 783 151 814 c 128,-1,59
 118 845 118 845 64 831 c 1,60,-1
 28 956 l 1,61,62
 174 979 174 979 174 1056 c 0,63,64
 174 1098 174 1098 151 1120 c 128,-1,65
 128 1142 128 1142 96 1142 c 1,27,-1
EndSplineSet
EndChar

StartChar: questiondown
Encoding: 191 191 128
Width: 634
Flags: W
LayerCount: 2
Fore
SplineSet
576 775 m 0,0,1
 576 715 576 715 526.5 668.5 c 128,-1,2
 477 622 477 622 363.5 622 c 128,-1,3
 250 622 250 622 199.5 667.5 c 128,-1,4
 149 713 149 713 149 772 c 0,5,6
 149 928 149 928 362.5 928 c 128,-1,7
 576 928 576 928 576 775 c 0,0,1
625.5 -99 m 128,-1,9
 661 -163 661 -163 661 -231.5 c 128,-1,10
 661 -300 661 -300 606 -344.5 c 128,-1,11
 551 -389 551 -389 452 -389 c 128,-1,12
 353 -389 353 -389 273.5 -343.5 c 128,-1,13
 194 -298 194 -298 134.5 -228.5 c 128,-1,14
 75 -159 75 -159 37.5 -72 c 128,-1,15
 0 15 0 15 0 84 c 128,-1,16
 0 153 0 153 16 196.5 c 128,-1,17
 32 240 32 240 57.5 265.5 c 128,-1,18
 83 291 83 291 113.5 310 c 128,-1,19
 144 329 144 329 174.5 343.5 c 128,-1,20
 205 358 205 358 230 372 c 0,21,22
 288 405 288 405 288 463 c 0,23,24
 288 488 288 488 275 540 c 1,25,-1
 445 528 l 1,26,27
 491 459 491 459 515 385.5 c 128,-1,28
 539 312 539 312 539 266.5 c 128,-1,29
 539 221 539 221 505.5 186.5 c 128,-1,30
 472 152 472 152 424 132 c 128,-1,31
 376 112 376 112 328 94 c 0,32,33
 212 53 212 53 212 2 c 0,34,35
 212 -32 212 -32 251 -52.5 c 128,-1,36
 290 -73 290 -73 342.5 -73 c 128,-1,37
 395 -73 395 -73 463 -54 c 128,-1,38
 531 -35 531 -35 550 -14 c 1,39,8
 590 -35 590 -35 625.5 -99 c 128,-1,9
EndSplineSet
EndChar

StartChar: Agrave
Encoding: 192 192 129
Width: 1453
Flags: W
LayerCount: 2
Fore
SplineSet
538 561 m 1,0,-1
 789 561 l 1,1,-1
 662 933 l 1,2,-1
 538 561 l 1,0,-1
0 0 m 1,3,-1
 19 138 l 1,4,-1
 180 241 l 1,5,-1
 568 1205 l 1,6,-1
 915 1270 l 1,7,-1
 1305 238 l 1,8,-1
 1453 145 l 1,9,-1
 1441 -2 l 1,10,-1
 716 -2 l 1,11,-1
 732 136 l 1,12,-1
 898 240 l 1,13,-1
 860 352 l 1,14,-1
 468 352 l 1,15,-1
 431 240 l 1,16,-1
 620 148 l 1,17,-1
 605 0 l 1,18,-1
 0 0 l 1,3,-1
456 1731 m 1,19,-1
 674 1771 l 1,20,-1
 824 1423 l 1,21,-1
 665 1392 l 1,22,-1
 456 1731 l 1,19,-1
EndSplineSet
EndChar

StartChar: Aacute
Encoding: 193 193 130
Width: 1453
Flags: W
LayerCount: 2
Fore
SplineSet
538 561 m 1,0,-1
 789 561 l 1,1,-1
 662 933 l 1,2,-1
 538 561 l 1,0,-1
0 0 m 1,3,-1
 19 138 l 1,4,-1
 180 241 l 1,5,-1
 568 1205 l 1,6,-1
 915 1270 l 1,7,-1
 1305 238 l 1,8,-1
 1453 145 l 1,9,-1
 1441 -2 l 1,10,-1
 716 -2 l 1,11,-1
 732 136 l 1,12,-1
 898 240 l 1,13,-1
 860 352 l 1,14,-1
 468 352 l 1,15,-1
 431 240 l 1,16,-1
 620 148 l 1,17,-1
 605 0 l 1,18,-1
 0 0 l 1,3,-1
657 1403 m 1,19,-1
 812 1728 l 1,20,-1
 1032 1714 l 1,21,-1
 801 1382 l 1,22,-1
 657 1403 l 1,19,-1
EndSplineSet
EndChar

StartChar: Acircumflex
Encoding: 194 194 131
Width: 1453
Flags: W
LayerCount: 2
Fore
SplineSet
538 561 m 1,0,-1
 789 561 l 1,1,-1
 662 933 l 1,2,-1
 538 561 l 1,0,-1
0 0 m 1,3,-1
 19 138 l 1,4,-1
 180 241 l 1,5,-1
 568 1205 l 1,6,-1
 915 1270 l 1,7,-1
 1305 238 l 1,8,-1
 1453 145 l 1,9,-1
 1441 -2 l 1,10,-1
 716 -2 l 1,11,-1
 732 136 l 1,12,-1
 898 240 l 1,13,-1
 860 352 l 1,14,-1
 468 352 l 1,15,-1
 431 240 l 1,16,-1
 620 148 l 1,17,-1
 605 0 l 1,18,-1
 0 0 l 1,3,-1
474 1402 m 1,19,-1
 645 1597 l 1,20,-1
 822 1617 l 1,21,-1
 1026 1412 l 1,22,-1
 875 1353 l 1,23,-1
 736 1454 l 1,24,-1
 722 1454 l 1,25,-1
 619 1352 l 1,26,-1
 474 1402 l 1,19,-1
EndSplineSet
EndChar

StartChar: Atilde
Encoding: 195 195 132
Width: 1453
Flags: W
LayerCount: 2
Fore
SplineSet
538 561 m 1,0,-1
 789 561 l 1,1,-1
 662 933 l 1,2,-1
 538 561 l 1,0,-1
0 0 m 1,3,-1
 19 138 l 1,4,-1
 180 241 l 1,5,-1
 568 1205 l 1,6,-1
 915 1270 l 1,7,-1
 1305 238 l 1,8,-1
 1453 145 l 1,9,-1
 1441 -2 l 1,10,-1
 716 -2 l 1,11,-1
 732 136 l 1,12,-1
 898 240 l 1,13,-1
 860 352 l 1,14,-1
 468 352 l 1,15,-1
 431 240 l 1,16,-1
 620 148 l 1,17,-1
 605 0 l 1,18,-1
 0 0 l 1,3,-1
439 1398 m 1,19,20
 426 1497 426 1497 476 1580 c 0,21,22
 500 1621 500 1621 548.5 1639.5 c 128,-1,23
 597 1658 597 1658 662 1644 c 2,24,-1
 889 1595 l 2,25,26
 909 1591 909 1591 926.5 1604 c 128,-1,27
 944 1617 944 1617 959 1648 c 1,28,-1
 1074 1637 l 1,29,30
 1073 1509 1073 1509 1008.5 1443.5 c 128,-1,31
 944 1378 944 1378 826 1406 c 2,32,-1
 617 1455 l 2,33,34
 593 1461 593 1461 578 1445 c 128,-1,35
 563 1429 563 1429 557 1392 c 1,36,-1
 439 1398 l 1,19,20
EndSplineSet
EndChar

StartChar: Adieresis
Encoding: 196 196 133
Width: 1453
Flags: W
LayerCount: 2
Fore
SplineSet
538 561 m 1,0,-1
 789 561 l 1,1,-1
 662 933 l 1,2,-1
 538 561 l 1,0,-1
0 0 m 1,3,-1
 19 138 l 1,4,-1
 180 241 l 1,5,-1
 568 1205 l 1,6,-1
 915 1270 l 1,7,-1
 1305 238 l 1,8,-1
 1453 145 l 1,9,-1
 1441 -2 l 1,10,-1
 716 -2 l 1,11,-1
 732 136 l 1,12,-1
 898 240 l 1,13,-1
 860 352 l 1,14,-1
 468 352 l 1,15,-1
 431 240 l 1,16,-1
 620 148 l 1,17,-1
 605 0 l 1,18,-1
 0 0 l 1,3,-1
453 1509 m 0,19,20
 453 1551 453 1551 485.5 1583.5 c 128,-1,21
 518 1616 518 1616 593 1616 c 128,-1,22
 668 1616 668 1616 701.5 1584.5 c 128,-1,23
 735 1553 735 1553 735 1511 c 0,24,25
 735 1402 735 1402 594 1402 c 128,-1,26
 453 1402 453 1402 453 1509 c 0,19,20
762 1509 m 0,27,28
 762 1551 762 1551 794.5 1583.5 c 128,-1,29
 827 1616 827 1616 902 1616 c 128,-1,30
 977 1616 977 1616 1010.5 1584.5 c 128,-1,31
 1044 1553 1044 1553 1044 1511 c 0,32,33
 1044 1402 1044 1402 903 1402 c 128,-1,34
 762 1402 762 1402 762 1509 c 0,27,28
EndSplineSet
EndChar

StartChar: Aring
Encoding: 197 197 134
Width: 1453
Flags: W
LayerCount: 2
Fore
SplineSet
538 561 m 1,0,-1
 789 561 l 1,1,-1
 662 933 l 1,2,-1
 538 561 l 1,0,-1
0 0 m 1,3,-1
 19 138 l 1,4,-1
 180 241 l 1,5,-1
 568 1205 l 1,6,-1
 915 1270 l 1,7,-1
 1305 238 l 1,8,-1
 1453 145 l 1,9,-1
 1441 -2 l 1,10,-1
 716 -2 l 1,11,-1
 732 136 l 1,12,-1
 898 240 l 1,13,-1
 860 352 l 1,14,-1
 468 352 l 1,15,-1
 431 240 l 1,16,-1
 620 148 l 1,17,-1
 605 0 l 1,18,-1
 0 0 l 1,3,-1
661 1547 m 0,19,20
 661 1490 661 1490 738 1490 c 0,21,22
 769 1490 769 1490 792.5 1505 c 128,-1,23
 816 1520 816 1520 816 1547 c 128,-1,24
 816 1574 816 1574 790.5 1590 c 128,-1,25
 765 1606 765 1606 735 1606 c 128,-1,26
 705 1606 705 1606 683 1589 c 128,-1,27
 661 1572 661 1572 661 1547 c 0,19,20
730 1380 m 0,28,29
 470 1380 470 1380 470 1546 c 0,30,31
 470 1622 470 1622 538 1670.5 c 128,-1,32
 606 1719 606 1719 744 1719 c 0,33,34
 1019 1719 1019 1719 1019 1555 c 0,35,36
 1019 1481 1019 1481 947.5 1430.5 c 128,-1,37
 876 1380 876 1380 730 1380 c 0,28,29
EndSplineSet
EndChar

StartChar: AE
Encoding: 198 198 135
Width: 1832
Flags: W
LayerCount: 2
Fore
SplineSet
656 615 m 1,0,-1
 942 615 l 1,1,-1
 930 1008 l 1,2,-1
 656 615 l 1,0,-1
0 -2 m 1,3,-1
 20 162 l 1,4,-1
 154 237 l 1,5,-1
 715 1020 l 1,6,-1
 535 1094 l 1,7,-1
 556 1244 l 1,8,-1
 1807 1244 l 1,9,-1
 1777 826 l 1,10,-1
 1606 852 l 1,11,-1
 1523 1072 l 1,12,-1
 1275 1072 l 1,13,-1
 1292 708 l 1,14,-1
 1424 724 l 1,15,-1
 1630 749 l 1,16,-1
 1598 507 l 1,17,-1
 1432 523 l 1,18,-1
 1408 526 l 1,19,-1
 1299 536 l 1,20,-1
 1315 198 l 1,21,-1
 1581 180 l 1,22,-1
 1727 428 l 1,23,-1
 1892 411 l 1,24,-1
 1862 0 l 1,25,-1
 791 0 l 1,26,-1
 804 138 l 1,27,-1
 967 217 l 1,28,-1
 954 443 l 1,29,-1
 552 443 l 1,30,-1
 420 243 l 1,31,-1
 601 150 l 1,32,-1
 584 -2 l 1,33,-1
 0 -2 l 1,3,-1
EndSplineSet
EndChar

StartChar: Ccedilla
Encoding: 199 199 136
Width: 1242
Flags: W
LayerCount: 2
Fore
SplineSet
712 -28 m 1,0,-1
 680 -29 l 1,1,2
 338 -29 338 -29 169 131 c 128,-1,3
 0 291 0 291 0 583 c 0,4,5
 0 788 0 788 96 952 c 0,6,7
 151 1046 151 1046 234.5 1115 c 128,-1,8
 318 1184 318 1184 455 1228 c 128,-1,9
 592 1272 592 1272 731.5 1272 c 128,-1,10
 871 1272 871 1272 989 1244 c 128,-1,11
 1107 1216 1107 1216 1162 1172 c 1,12,-1
 1131 748 l 1,13,-1
 961 771 l 1,14,-1
 897 1003 l 1,15,16
 864 1044 864 1044 810.5 1067 c 128,-1,17
 757 1090 757 1090 703 1090 c 0,18,19
 540 1090 540 1090 466 996.5 c 128,-1,20
 392 903 392 903 392 706 c 0,21,22
 392 205 392 205 809 205 c 0,23,24
 990 205 990 205 1135 313 c 1,25,-1
 1194 178 l 1,26,27
 1072 26 1072 26 836 -16 c 1,28,-1
 902 -16 l 1,29,-1
 784 -102 l 1,30,31
 959 -117 959 -117 959 -245 c 0,32,33
 959 -329 959 -329 876 -368 c 128,-1,34
 793 -407 793 -407 595 -407 c 1,35,-1
 559 -319 l 1,36,37
 617 -318 617 -318 656.5 -298.5 c 128,-1,38
 696 -279 696 -279 696 -255 c 0,39,40
 696 -216 696 -216 540 -163 c 1,41,-1
 712 -28 l 1,0,-1
EndSplineSet
EndChar

StartChar: Egrave
Encoding: 200 200 137
Width: 1237
Flags: W
LayerCount: 2
Fore
SplineSet
0 1100 m 1,0,-1
 19 1244 l 1,1,-1
 1192 1244 l 1,2,-1
 1162 826 l 1,3,-1
 991 852 l 1,4,-1
 908 1072 l 1,5,-1
 563 1072 l 1,6,-1
 563 712 l 1,7,-1
 696 723 l 1,8,-1
 982 746 l 1,9,-1
 949 470 l 1,10,-1
 563 540 l 1,11,-1
 563 210 l 1,12,-1
 926 170 l 1,13,-1
 1072 428 l 1,14,-1
 1237 411 l 1,15,-1
 1207 0 l 1,16,-1
 16 0 l 1,17,-1
 26 138 l 1,18,-1
 190 217 l 1,19,-1
 190 1030 l 1,20,-1
 0 1100 l 1,0,-1
316 1730 m 1,21,-1
 534 1770 l 1,22,-1
 684 1422 l 1,23,-1
 526 1391 l 1,24,-1
 316 1730 l 1,21,-1
EndSplineSet
EndChar

StartChar: Eacute
Encoding: 201 201 138
Width: 1237
Flags: W
LayerCount: 2
Fore
SplineSet
0 1100 m 1,0,-1
 19 1244 l 1,1,-1
 1192 1244 l 1,2,-1
 1162 826 l 1,3,-1
 991 852 l 1,4,-1
 908 1072 l 1,5,-1
 563 1072 l 1,6,-1
 563 712 l 1,7,-1
 696 723 l 1,8,-1
 982 746 l 1,9,-1
 949 470 l 1,10,-1
 563 540 l 1,11,-1
 563 210 l 1,12,-1
 926 170 l 1,13,-1
 1072 428 l 1,14,-1
 1237 411 l 1,15,-1
 1207 0 l 1,16,-1
 16 0 l 1,17,-1
 26 138 l 1,18,-1
 190 217 l 1,19,-1
 190 1030 l 1,20,-1
 0 1100 l 1,0,-1
538 1402 m 1,21,-1
 692 1727 l 1,22,-1
 912 1713 l 1,23,-1
 682 1381 l 1,24,-1
 538 1402 l 1,21,-1
EndSplineSet
EndChar

StartChar: Ecircumflex
Encoding: 202 202 139
Width: 1237
Flags: W
LayerCount: 2
Fore
SplineSet
0 1100 m 1,0,-1
 19 1244 l 1,1,-1
 1192 1244 l 1,2,-1
 1162 826 l 1,3,-1
 991 852 l 1,4,-1
 908 1072 l 1,5,-1
 563 1072 l 1,6,-1
 563 712 l 1,7,-1
 696 723 l 1,8,-1
 982 746 l 1,9,-1
 949 470 l 1,10,-1
 563 540 l 1,11,-1
 563 210 l 1,12,-1
 926 170 l 1,13,-1
 1072 428 l 1,14,-1
 1237 411 l 1,15,-1
 1207 0 l 1,16,-1
 16 0 l 1,17,-1
 26 138 l 1,18,-1
 190 217 l 1,19,-1
 190 1030 l 1,20,-1
 0 1100 l 1,0,-1
364 1401 m 1,21,-1
 536 1596 l 1,22,-1
 712 1616 l 1,23,-1
 916 1411 l 1,24,-1
 766 1352 l 1,25,-1
 626 1453 l 1,26,-1
 612 1453 l 1,27,-1
 510 1351 l 1,28,-1
 364 1401 l 1,21,-1
EndSplineSet
EndChar

StartChar: Edieresis
Encoding: 203 203 140
Width: 1237
Flags: W
LayerCount: 2
Fore
SplineSet
0 1100 m 1,0,-1
 19 1244 l 1,1,-1
 1192 1244 l 1,2,-1
 1162 826 l 1,3,-1
 991 852 l 1,4,-1
 908 1072 l 1,5,-1
 563 1072 l 1,6,-1
 563 712 l 1,7,-1
 696 723 l 1,8,-1
 982 746 l 1,9,-1
 949 470 l 1,10,-1
 563 540 l 1,11,-1
 563 210 l 1,12,-1
 926 170 l 1,13,-1
 1072 428 l 1,14,-1
 1237 411 l 1,15,-1
 1207 0 l 1,16,-1
 16 0 l 1,17,-1
 26 138 l 1,18,-1
 190 217 l 1,19,-1
 190 1030 l 1,20,-1
 0 1100 l 1,0,-1
356 1498 m 0,21,22
 356 1540 356 1540 388.5 1572.5 c 128,-1,23
 421 1605 421 1605 496 1605 c 128,-1,24
 571 1605 571 1605 604.5 1573.5 c 128,-1,25
 638 1542 638 1542 638 1500 c 0,26,27
 638 1391 638 1391 497 1391 c 128,-1,28
 356 1391 356 1391 356 1498 c 0,21,22
665 1498 m 0,29,30
 665 1540 665 1540 697.5 1572.5 c 128,-1,31
 730 1605 730 1605 805 1605 c 128,-1,32
 880 1605 880 1605 913.5 1573.5 c 128,-1,33
 947 1542 947 1542 947 1500 c 0,34,35
 947 1391 947 1391 806 1391 c 128,-1,36
 665 1391 665 1391 665 1498 c 0,29,30
EndSplineSet
EndChar

StartChar: Igrave
Encoding: 204 204 141
Width: 757
Flags: W
LayerCount: 2
Fore
SplineSet
0 1094 m 1,0,-1
 20 1244 l 1,1,-1
 747 1244 l 1,2,-1
 731 1084 l 1,3,-1
 552 1017 l 1,4,-1
 552 223 l 1,5,-1
 732 160 l 1,6,-1
 719 0 l 1,7,-1
 2 0 l 1,8,-1
 12 142 l 1,9,-1
 188 221 l 1,10,-1
 188 1020 l 1,11,-1
 0 1094 l 1,0,-1
94 1730 m 1,12,-1
 312 1770 l 1,13,-1
 462 1422 l 1,14,-1
 304 1391 l 1,15,-1
 94 1730 l 1,12,-1
EndSplineSet
EndChar

StartChar: Iacute
Encoding: 205 205 142
Width: 757
Flags: W
LayerCount: 2
Fore
SplineSet
0 1094 m 1,0,-1
 20 1244 l 1,1,-1
 747 1244 l 1,2,-1
 731 1084 l 1,3,-1
 552 1017 l 1,4,-1
 552 223 l 1,5,-1
 732 160 l 1,6,-1
 719 0 l 1,7,-1
 2 0 l 1,8,-1
 12 142 l 1,9,-1
 188 221 l 1,10,-1
 188 1020 l 1,11,-1
 0 1094 l 1,0,-1
306 1402 m 1,12,-1
 460 1727 l 1,13,-1
 680 1713 l 1,14,-1
 450 1381 l 1,15,-1
 306 1402 l 1,12,-1
EndSplineSet
EndChar

StartChar: Icircumflex
Encoding: 206 206 143
Width: 757
Flags: W
LayerCount: 2
Fore
SplineSet
0 1094 m 1,0,-1
 20 1244 l 1,1,-1
 747 1244 l 1,2,-1
 731 1084 l 1,3,-1
 552 1017 l 1,4,-1
 552 223 l 1,5,-1
 732 160 l 1,6,-1
 719 0 l 1,7,-1
 2 0 l 1,8,-1
 12 142 l 1,9,-1
 188 221 l 1,10,-1
 188 1020 l 1,11,-1
 0 1094 l 1,0,-1
122 1401 m 1,12,-1
 294 1596 l 1,13,-1
 470 1616 l 1,14,-1
 674 1411 l 1,15,-1
 524 1352 l 1,16,-1
 384 1453 l 1,17,-1
 370 1453 l 1,18,-1
 268 1351 l 1,19,-1
 122 1401 l 1,12,-1
EndSplineSet
EndChar

StartChar: Idieresis
Encoding: 207 207 144
Width: 757
Flags: W
LayerCount: 2
Fore
SplineSet
0 1094 m 1,0,-1
 20 1244 l 1,1,-1
 747 1244 l 1,2,-1
 731 1084 l 1,3,-1
 552 1017 l 1,4,-1
 552 223 l 1,5,-1
 732 160 l 1,6,-1
 719 0 l 1,7,-1
 2 0 l 1,8,-1
 12 142 l 1,9,-1
 188 221 l 1,10,-1
 188 1020 l 1,11,-1
 0 1094 l 1,0,-1
84 1498 m 0,12,13
 84 1540 84 1540 116.5 1572.5 c 128,-1,14
 149 1605 149 1605 224 1605 c 128,-1,15
 299 1605 299 1605 332.5 1573.5 c 128,-1,16
 366 1542 366 1542 366 1500 c 0,17,18
 366 1391 366 1391 225 1391 c 128,-1,19
 84 1391 84 1391 84 1498 c 0,12,13
393 1498 m 0,20,21
 393 1540 393 1540 425.5 1572.5 c 128,-1,22
 458 1605 458 1605 533 1605 c 128,-1,23
 608 1605 608 1605 641.5 1573.5 c 128,-1,24
 675 1542 675 1542 675 1500 c 0,25,26
 675 1391 675 1391 534 1391 c 128,-1,27
 393 1391 393 1391 393 1498 c 0,20,21
EndSplineSet
EndChar

StartChar: Eth
Encoding: 208 208 145
Width: 1451
Flags: W
LayerCount: 2
Fore
SplineSet
573 202 m 1,0,-1
 648 202 l 2,1,2
 964 202 964 202 1030 459 c 0,3,4
 1046 523 1046 523 1046 591 c 128,-1,5
 1046 659 1046 659 1030.5 720.5 c 128,-1,6
 1015 782 1015 782 980 843.5 c 128,-1,7
 945 905 945 905 894 952 c 0,8,9
 780 1057 780 1057 591 1057 c 1,10,-1
 578 1056 l 2,11,12
 578 1055 578 1055 585 1053.5 c 128,-1,13
 592 1052 592 1052 584 1051.5 c 128,-1,14
 576 1051 576 1051 573 1051 c 1,15,-1
 573 712 l 1,16,-1
 771 737 l 1,17,-1
 752 548 l 1,18,-1
 573 536 l 1,19,-1
 573 202 l 1,0,-1
23 483 m 1,20,-1
 38 666 l 1,21,-1
 203 680 l 1,22,-1
 203 1003 l 1,23,-1
 30 1049 l 1,24,-1
 37 1206 l 1,25,26
 363 1258 363 1258 566.5 1258 c 128,-1,27
 770 1258 770 1258 886 1240.5 c 128,-1,28
 1002 1223 1002 1223 1086 1192 c 128,-1,29
 1170 1161 1170 1161 1234.5 1116 c 128,-1,30
 1299 1071 1299 1071 1339.5 1020 c 128,-1,31
 1380 969 1380 969 1406 906 c 0,32,33
 1451 795 1451 795 1451 659.5 c 128,-1,34
 1451 524 1451 524 1391.5 406 c 128,-1,35
 1332 288 1332 288 1226.5 198 c 128,-1,36
 1121 108 1121 108 962.5 54 c 128,-1,37
 804 0 804 0 618 0 c 2,38,-1
 0 0 l 1,39,-1
 23 138 l 1,40,-1
 203 241 l 1,41,-1
 203 499 l 1,42,-1
 23 483 l 1,20,-1
EndSplineSet
EndChar

StartChar: Ntilde
Encoding: 209 209 146
Width: 1403
Flags: W
LayerCount: 2
Fore
SplineSet
4 1087 m 1,0,-1
 18 1244 l 1,1,-1
 458 1244 l 1,2,-1
 990 532 l 1,3,-1
 990 1020 l 1,4,-1
 802 1094 l 1,5,-1
 826 1244 l 1,6,-1
 1403 1244 l 1,7,-1
 1378 1094 l 1,8,-1
 1210 1027 l 1,9,-1
 1210 15 l 1,10,-1
 927 -29 l 1,11,-1
 414 619 l 1,12,-1
 414 211 l 1,13,-1
 594 148 l 1,14,-1
 581 0 l 1,15,-1
 0 0 l 1,16,-1
 10 138 l 1,17,-1
 181 217 l 1,18,-1
 181 1003 l 1,19,-1
 4 1087 l 1,0,-1
389 1397 m 1,20,21
 376 1496 376 1496 426 1580 c 0,22,23
 450 1620 450 1620 498.5 1638.5 c 128,-1,24
 547 1657 547 1657 612 1643 c 2,25,-1
 839 1594 l 2,26,27
 859 1590 859 1590 876.5 1603 c 128,-1,28
 894 1616 894 1616 909 1647 c 1,29,-1
 1024 1636 l 1,30,31
 1023 1508 1023 1508 958.5 1442.5 c 128,-1,32
 894 1377 894 1377 776 1405 c 2,33,-1
 567 1454 l 2,34,35
 543 1460 543 1460 528 1444 c 128,-1,36
 513 1428 513 1428 507 1391 c 1,37,-1
 389 1397 l 1,20,21
EndSplineSet
EndChar

StartChar: Ograve
Encoding: 210 210 147
Width: 1462
Flags: W
LayerCount: 2
Fore
SplineSet
736 163 m 0,0,1
 998 163 998 163 998 573 c 0,2,3
 998 655 998 655 983.5 745 c 128,-1,4
 969 835 969 835 947.5 889 c 128,-1,5
 926 943 926 943 896 990 c 0,6,7
 829 1094 829 1094 700 1094 c 0,8,9
 448 1094 448 1094 448 671 c 0,10,11
 448 553 448 553 474 455 c 128,-1,12
 500 357 500 357 530 299.5 c 128,-1,13
 560 242 560 242 614 202.5 c 128,-1,14
 668 163 668 163 736 163 c 0,0,1
0 619 m 128,-1,16
 0 912 0 912 202.5 1090.5 c 128,-1,17
 405 1269 405 1269 753 1269 c 0,18,19
 1302 1269 1302 1269 1428 865 c 0,20,21
 1462 754 1462 754 1462 607 c 128,-1,22
 1462 460 1462 460 1401.5 337.5 c 128,-1,23
 1341 215 1341 215 1236 136 c 0,24,25
 1018 -27 1018 -27 683 -27 c 0,26,27
 337 -27 337 -27 164 154 c 0,28,15
 0 326 0 326 0 619 c 128,-1,16
484 1730 m 1,29,-1
 702 1770 l 1,30,-1
 852 1422 l 1,31,-1
 693 1391 l 1,32,-1
 484 1730 l 1,29,-1
EndSplineSet
EndChar

StartChar: Oacute
Encoding: 211 211 148
Width: 1462
Flags: W
LayerCount: 2
Fore
SplineSet
736 163 m 0,0,1
 998 163 998 163 998 573 c 0,2,3
 998 655 998 655 983.5 745 c 128,-1,4
 969 835 969 835 947.5 889 c 128,-1,5
 926 943 926 943 896 990 c 0,6,7
 829 1094 829 1094 700 1094 c 0,8,9
 448 1094 448 1094 448 671 c 0,10,11
 448 553 448 553 474 455 c 128,-1,12
 500 357 500 357 530 299.5 c 128,-1,13
 560 242 560 242 614 202.5 c 128,-1,14
 668 163 668 163 736 163 c 0,0,1
0 619 m 128,-1,16
 0 912 0 912 202.5 1090.5 c 128,-1,17
 405 1269 405 1269 753 1269 c 0,18,19
 1302 1269 1302 1269 1428 865 c 0,20,21
 1462 754 1462 754 1462 607 c 128,-1,22
 1462 460 1462 460 1401.5 337.5 c 128,-1,23
 1341 215 1341 215 1236 136 c 0,24,25
 1018 -27 1018 -27 683 -27 c 0,26,27
 337 -27 337 -27 164 154 c 0,28,15
 0 326 0 326 0 619 c 128,-1,16
635 1402 m 1,29,-1
 790 1727 l 1,30,-1
 1010 1713 l 1,31,-1
 779 1381 l 1,32,-1
 635 1402 l 1,29,-1
EndSplineSet
EndChar

StartChar: Ocircumflex
Encoding: 212 212 149
Width: 1462
Flags: W
LayerCount: 2
Fore
SplineSet
736 163 m 0,0,1
 998 163 998 163 998 573 c 0,2,3
 998 655 998 655 983.5 745 c 128,-1,4
 969 835 969 835 947.5 889 c 128,-1,5
 926 943 926 943 896 990 c 0,6,7
 829 1094 829 1094 700 1094 c 0,8,9
 448 1094 448 1094 448 671 c 0,10,11
 448 553 448 553 474 455 c 128,-1,12
 500 357 500 357 530 299.5 c 128,-1,13
 560 242 560 242 614 202.5 c 128,-1,14
 668 163 668 163 736 163 c 0,0,1
0 619 m 128,-1,16
 0 912 0 912 202.5 1090.5 c 128,-1,17
 405 1269 405 1269 753 1269 c 0,18,19
 1302 1269 1302 1269 1428 865 c 0,20,21
 1462 754 1462 754 1462 607 c 128,-1,22
 1462 460 1462 460 1401.5 337.5 c 128,-1,23
 1341 215 1341 215 1236 136 c 0,24,25
 1018 -27 1018 -27 683 -27 c 0,26,27
 337 -27 337 -27 164 154 c 0,28,15
 0 326 0 326 0 619 c 128,-1,16
462 1401 m 1,29,-1
 633 1596 l 1,30,-1
 810 1616 l 1,31,-1
 1014 1411 l 1,32,-1
 863 1352 l 1,33,-1
 724 1453 l 1,34,-1
 710 1453 l 1,35,-1
 607 1351 l 1,36,-1
 462 1401 l 1,29,-1
EndSplineSet
EndChar

StartChar: Otilde
Encoding: 213 213 150
Width: 1462
Flags: W
LayerCount: 2
Fore
SplineSet
736 163 m 0,0,1
 998 163 998 163 998 573 c 0,2,3
 998 655 998 655 983.5 745 c 128,-1,4
 969 835 969 835 947.5 889 c 128,-1,5
 926 943 926 943 896 990 c 0,6,7
 829 1094 829 1094 700 1094 c 0,8,9
 448 1094 448 1094 448 671 c 0,10,11
 448 553 448 553 474 455 c 128,-1,12
 500 357 500 357 530 299.5 c 128,-1,13
 560 242 560 242 614 202.5 c 128,-1,14
 668 163 668 163 736 163 c 0,0,1
0 619 m 128,-1,16
 0 912 0 912 202.5 1090.5 c 128,-1,17
 405 1269 405 1269 753 1269 c 0,18,19
 1302 1269 1302 1269 1428 865 c 0,20,21
 1462 754 1462 754 1462 607 c 128,-1,22
 1462 460 1462 460 1401.5 337.5 c 128,-1,23
 1341 215 1341 215 1236 136 c 0,24,25
 1018 -27 1018 -27 683 -27 c 0,26,27
 337 -27 337 -27 164 154 c 0,28,15
 0 326 0 326 0 619 c 128,-1,16
411 1397 m 1,29,30
 398 1496 398 1496 448 1580 c 0,31,32
 472 1620 472 1620 520.5 1638.5 c 128,-1,33
 569 1657 569 1657 634 1643 c 2,34,-1
 861 1594 l 2,35,36
 881 1590 881 1590 898.5 1603 c 128,-1,37
 916 1616 916 1616 931 1647 c 1,38,-1
 1046 1636 l 1,39,40
 1045 1508 1045 1508 980.5 1442.5 c 128,-1,41
 916 1377 916 1377 798 1405 c 2,42,-1
 589 1454 l 2,43,44
 565 1460 565 1460 550 1444 c 128,-1,45
 535 1428 535 1428 529 1391 c 1,46,-1
 411 1397 l 1,29,30
EndSplineSet
EndChar

StartChar: Odieresis
Encoding: 214 214 151
Width: 1462
Flags: W
LayerCount: 2
Fore
SplineSet
736 163 m 0,0,1
 998 163 998 163 998 573 c 0,2,3
 998 655 998 655 983.5 745 c 128,-1,4
 969 835 969 835 947.5 889 c 128,-1,5
 926 943 926 943 896 990 c 0,6,7
 829 1094 829 1094 700 1094 c 0,8,9
 448 1094 448 1094 448 671 c 0,10,11
 448 553 448 553 474 455 c 128,-1,12
 500 357 500 357 530 299.5 c 128,-1,13
 560 242 560 242 614 202.5 c 128,-1,14
 668 163 668 163 736 163 c 0,0,1
0 619 m 128,-1,16
 0 912 0 912 202.5 1090.5 c 128,-1,17
 405 1269 405 1269 753 1269 c 0,18,19
 1302 1269 1302 1269 1428 865 c 0,20,21
 1462 754 1462 754 1462 607 c 128,-1,22
 1462 460 1462 460 1401.5 337.5 c 128,-1,23
 1341 215 1341 215 1236 136 c 0,24,25
 1018 -27 1018 -27 683 -27 c 0,26,27
 337 -27 337 -27 164 154 c 0,28,15
 0 326 0 326 0 619 c 128,-1,16
454 1498 m 0,29,30
 454 1540 454 1540 486.5 1572.5 c 128,-1,31
 519 1605 519 1605 594 1605 c 128,-1,32
 669 1605 669 1605 702.5 1573.5 c 128,-1,33
 736 1542 736 1542 736 1500 c 0,34,35
 736 1391 736 1391 595 1391 c 128,-1,36
 454 1391 454 1391 454 1498 c 0,29,30
763 1498 m 0,37,38
 763 1540 763 1540 795.5 1572.5 c 128,-1,39
 828 1605 828 1605 903 1605 c 128,-1,40
 978 1605 978 1605 1011.5 1573.5 c 128,-1,41
 1045 1542 1045 1542 1045 1500 c 0,42,43
 1045 1391 1045 1391 904 1391 c 128,-1,44
 763 1391 763 1391 763 1498 c 0,37,38
EndSplineSet
EndChar

StartChar: multiply
Encoding: 215 215 152
Width: 549
Flags: W
LayerCount: 2
Fore
SplineSet
8 328 m 1,0,-1
 163 462 l 1,1,-1
 0 616 l 1,2,-1
 148 732 l 1,3,-1
 292 576 l 1,4,-1
 461 747 l 1,5,-1
 575 597 l 1,6,-1
 409 456 l 1,7,-1
 567 298 l 1,8,-1
 421 176 l 1,9,-1
 282 343 l 1,10,-1
 127 178 l 1,11,-1
 8 328 l 1,0,-1
EndSplineSet
EndChar

StartChar: Oslash
Encoding: 216 216 153
Width: 1462
Flags: W
LayerCount: 2
Fore
SplineSet
142 179 m 1,0,1
 0 345 0 345 0 628.5 c 128,-1,2
 0 912 0 912 202.5 1090.5 c 128,-1,3
 405 1269 405 1269 753 1269 c 0,4,5
 947 1269 947 1269 1093 1216 c 1,6,-1
 1163 1282 l 1,7,-1
 1406 1231 l 1,8,-1
 1282 1104 l 1,9,10
 1462 938 1462 938 1462 613 c 0,11,12
 1462 460 1462 460 1401.5 337.5 c 128,-1,13
 1341 215 1341 215 1236 136 c 0,14,15
 1018 -27 1018 -27 683 -27 c 0,16,17
 472 -27 472 -27 322 44 c 1,18,-1
 266 -19 l 1,19,-1
 20 44 l 1,20,-1
 142 179 l 1,0,1
736 163 m 0,21,22
 998 163 998 163 998 573 c 0,23,24
 998 726 998 726 960 851 c 1,25,-1
 525 309 l 1,26,27
 601 163 601 163 736 163 c 0,21,22
922 946 m 1,28,29
 845 1094 845 1094 707.5 1094 c 128,-1,30
 570 1094 570 1094 509 985.5 c 128,-1,31
 448 877 448 877 448 707 c 128,-1,32
 448 537 448 537 486 410 c 1,33,-1
 922 946 l 1,28,29
EndSplineSet
EndChar

StartChar: Ugrave
Encoding: 217 217 154
Width: 1544
Flags: W
LayerCount: 2
Fore
SplineSet
0 1094 m 1,0,-1
 29 1244 l 1,1,-1
 749 1244 l 1,2,-1
 727 1094 l 1,3,-1
 562 1027 l 1,4,-1
 562 541 l 2,5,6
 562 382 562 382 640.5 307.5 c 128,-1,7
 719 233 719 233 848 233 c 0,8,9
 1115 233 1115 233 1115 537 c 2,10,-1
 1115 1020 l 1,11,-1
 939 1094 l 1,12,-1
 959 1244 l 1,13,-1
 1544 1244 l 1,14,-1
 1527 1094 l 1,15,-1
 1362 1027 l 1,16,-1
 1358 565 l 2,17,18
 1352 -27 1352 -27 777 -27 c 0,19,20
 614 -27 614 -27 548.5 -10 c 128,-1,21
 483 7 483 7 437.5 25.5 c 128,-1,22
 392 44 392 44 358 69.5 c 128,-1,23
 324 95 324 95 291 134 c 128,-1,24
 258 173 258 173 237 222 c 0,25,26
 190 332 190 332 190 484 c 2,27,-1
 190 1020 l 1,28,-1
 0 1094 l 1,0,-1
538 1730 m 1,29,-1
 756 1770 l 1,30,-1
 906 1422 l 1,31,-1
 746 1391 l 1,32,-1
 538 1730 l 1,29,-1
EndSplineSet
EndChar

StartChar: Uacute
Encoding: 218 218 155
Width: 1544
Flags: W
LayerCount: 2
Fore
SplineSet
0 1094 m 1,0,-1
 29 1244 l 1,1,-1
 749 1244 l 1,2,-1
 727 1094 l 1,3,-1
 562 1027 l 1,4,-1
 562 541 l 2,5,6
 562 382 562 382 640.5 307.5 c 128,-1,7
 719 233 719 233 848 233 c 0,8,9
 1115 233 1115 233 1115 537 c 2,10,-1
 1115 1020 l 1,11,-1
 939 1094 l 1,12,-1
 959 1244 l 1,13,-1
 1544 1244 l 1,14,-1
 1527 1094 l 1,15,-1
 1362 1027 l 1,16,-1
 1358 565 l 2,17,18
 1352 -27 1352 -27 777 -27 c 0,19,20
 614 -27 614 -27 548.5 -10 c 128,-1,21
 483 7 483 7 437.5 25.5 c 128,-1,22
 392 44 392 44 358 69.5 c 128,-1,23
 324 95 324 95 291 134 c 128,-1,24
 258 173 258 173 237 222 c 0,25,26
 190 332 190 332 190 484 c 2,27,-1
 190 1020 l 1,28,-1
 0 1094 l 1,0,-1
768 1402 m 1,29,-1
 924 1727 l 1,30,-1
 1144 1713 l 1,31,-1
 912 1381 l 1,32,-1
 768 1402 l 1,29,-1
EndSplineSet
EndChar

StartChar: Ucircumflex
Encoding: 219 219 156
Width: 1544
Flags: W
LayerCount: 2
Fore
SplineSet
0 1094 m 1,0,-1
 29 1244 l 1,1,-1
 749 1244 l 1,2,-1
 727 1094 l 1,3,-1
 562 1027 l 1,4,-1
 562 541 l 2,5,6
 562 382 562 382 640.5 307.5 c 128,-1,7
 719 233 719 233 848 233 c 0,8,9
 1115 233 1115 233 1115 537 c 2,10,-1
 1115 1020 l 1,11,-1
 939 1094 l 1,12,-1
 959 1244 l 1,13,-1
 1544 1244 l 1,14,-1
 1527 1094 l 1,15,-1
 1362 1027 l 1,16,-1
 1358 565 l 2,17,18
 1352 -27 1352 -27 777 -27 c 0,19,20
 614 -27 614 -27 548.5 -10 c 128,-1,21
 483 7 483 7 437.5 25.5 c 128,-1,22
 392 44 392 44 358 69.5 c 128,-1,23
 324 95 324 95 291 134 c 128,-1,24
 258 173 258 173 237 222 c 0,25,26
 190 332 190 332 190 484 c 2,27,-1
 190 1020 l 1,28,-1
 0 1094 l 1,0,-1
586 1401 m 1,29,-1
 756 1596 l 1,30,-1
 934 1616 l 1,31,-1
 1138 1411 l 1,32,-1
 986 1352 l 1,33,-1
 848 1453 l 1,34,-1
 834 1453 l 1,35,-1
 730 1351 l 1,36,-1
 586 1401 l 1,29,-1
EndSplineSet
EndChar

StartChar: Udieresis
Encoding: 220 220 157
Width: 1544
Flags: W
LayerCount: 2
Fore
SplineSet
0 1094 m 1,0,-1
 29 1244 l 1,1,-1
 749 1244 l 1,2,-1
 727 1094 l 1,3,-1
 562 1027 l 1,4,-1
 562 541 l 2,5,6
 562 382 562 382 640.5 307.5 c 128,-1,7
 719 233 719 233 848 233 c 0,8,9
 1115 233 1115 233 1115 537 c 2,10,-1
 1115 1020 l 1,11,-1
 939 1094 l 1,12,-1
 959 1244 l 1,13,-1
 1544 1244 l 1,14,-1
 1527 1094 l 1,15,-1
 1362 1027 l 1,16,-1
 1358 565 l 2,17,18
 1352 -27 1352 -27 777 -27 c 0,19,20
 614 -27 614 -27 548.5 -10 c 128,-1,21
 483 7 483 7 437.5 25.5 c 128,-1,22
 392 44 392 44 358 69.5 c 128,-1,23
 324 95 324 95 291 134 c 128,-1,24
 258 173 258 173 237 222 c 0,25,26
 190 332 190 332 190 484 c 2,27,-1
 190 1020 l 1,28,-1
 0 1094 l 1,0,-1
547 1498 m 0,29,30
 547 1540 547 1540 579.5 1572.5 c 128,-1,31
 612 1605 612 1605 687 1605 c 128,-1,32
 762 1605 762 1605 795.5 1573.5 c 128,-1,33
 829 1542 829 1542 829 1500 c 0,34,35
 829 1391 829 1391 688 1391 c 128,-1,36
 547 1391 547 1391 547 1498 c 0,29,30
856 1498 m 0,37,38
 856 1540 856 1540 888.5 1572.5 c 128,-1,39
 921 1605 921 1605 996 1605 c 128,-1,40
 1071 1605 1071 1605 1104.5 1573.5 c 128,-1,41
 1138 1542 1138 1542 1138 1500 c 0,42,43
 1138 1391 1138 1391 997 1391 c 128,-1,44
 856 1391 856 1391 856 1498 c 0,37,38
EndSplineSet
EndChar

StartChar: Yacute
Encoding: 221 221 158
Width: 1308
Flags: W
LayerCount: 2
Fore
SplineSet
0 1089 m 1,0,-1
 32 1245 l 1,1,-1
 693 1245 l 1,2,-1
 665 1089 l 1,3,-1
 590 1028 l 1,4,-1
 739 739 l 1,5,-1
 890 1025 l 1,6,-1
 791 1087 l 1,7,-1
 815 1244 l 1,8,-1
 1288 1244 l 1,9,-1
 1264 1087 l 1,10,-1
 1150 1027 l 1,11,-1
 834 498 l 1,12,-1
 834 221 l 1,13,-1
 1001 140 l 1,14,-1
 988 0 l 1,15,-1
 286 0 l 1,16,-1
 304 138 l 1,17,-1
 463 217 l 1,18,-1
 463 485 l 1,19,-1
 134 1027 l 1,20,-1
 0 1089 l 1,0,-1
666 1402 m 1,21,-1
 820 1727 l 1,22,-1
 1040 1713 l 1,23,-1
 810 1381 l 1,24,-1
 666 1402 l 1,21,-1
EndSplineSet
EndChar

StartChar: Thorn
Encoding: 222 222 159
Width: 1195
Flags: W
LayerCount: 2
Fore
SplineSet
0 1094 m 1,0,-1
 20 1244 l 1,1,-1
 747 1244 l 1,2,-1
 731 1084 l 1,3,-1
 552 1017 l 1,4,-1
 552 982 l 1,5,6
 613 993 613 993 693 993 c 128,-1,7
 773 993 773 993 846 985.5 c 128,-1,8
 919 978 919 978 987 956 c 128,-1,9
 1055 934 1055 934 1096 896 c 0,10,11
 1186 813 1186 813 1186 639 c 128,-1,12
 1186 465 1186 465 1049.5 353.5 c 128,-1,13
 913 242 913 242 689 242 c 0,14,15
 655 242 655 242 608 247 c 1,16,-1
 576 421 l 1,17,18
 699 421 699 421 757.5 461 c 128,-1,19
 816 501 816 501 816 595.5 c 128,-1,20
 816 690 816 690 767 740 c 128,-1,21
 718 790 718 790 621 790 c 0,22,23
 594 790 594 790 554 783 c 1,24,-1
 552 223 l 1,25,-1
 732 160 l 1,26,-1
 719 0 l 1,27,-1
 2 0 l 1,28,-1
 12 142 l 1,29,-1
 188 221 l 1,30,-1
 188 1020 l 1,31,-1
 0 1094 l 1,0,-1
EndSplineSet
EndChar

StartChar: germandbls
Encoding: 223 223 160
Width: 1295
Flags: W
LayerCount: 2
Fore
SplineSet
0 0 m 1,0,-1
 12 158 l 1,1,-1
 167 230 l 1,2,-1
 167 700 l 1,3,-1
 17 700 l 1,4,-1
 27 849 l 1,5,-1
 165 873 l 1,6,7
 173 998 173 998 252 1093.5 c 128,-1,8
 331 1189 331 1189 454 1237.5 c 128,-1,9
 577 1286 577 1286 702.5 1286 c 128,-1,10
 828 1286 828 1286 903.5 1275 c 128,-1,11
 979 1264 979 1264 1036 1238 c 0,12,13
 1148 1188 1148 1188 1148 1056 c 0,14,15
 1148 1001 1148 1001 1114 959 c 128,-1,16
 1080 917 1080 917 1031.5 892 c 128,-1,17
 983 867 983 867 934 846 c 0,18,19
 818 796 818 796 818 745 c 0,20,21
 818 691 818 691 942 642 c 0,22,23
 1067 592 1067 592 1170 517 c 0,24,25
 1223 479 1223 479 1258.5 415 c 128,-1,26
 1294 351 1294 351 1294 272 c 0,27,28
 1294 126 1294 126 1174 45 c 128,-1,29
 1054 -36 1054 -36 863 -36 c 0,30,31
 675 -36 675 -36 568 60 c 0,32,33
 515 107 515 107 515 173 c 128,-1,34
 515 239 515 239 565 279.5 c 128,-1,35
 615 320 615 320 707 328 c 1,36,37
 735 229 735 229 783 176 c 128,-1,38
 831 123 831 123 890.5 123 c 128,-1,39
 950 123 950 123 974.5 136.5 c 128,-1,40
 999 150 999 150 999 179.5 c 128,-1,41
 999 209 999 209 974 231.5 c 128,-1,42
 949 254 949 254 910 275 c 2,43,-1
 822 320 l 1,44,45
 629 416 629 416 574 531 c 0,46,47
 549 583 549 583 549 649.5 c 128,-1,48
 549 716 549 716 575.5 775 c 128,-1,49
 602 834 602 834 640 870 c 128,-1,50
 678 906 678 906 716 934.5 c 128,-1,51
 754 963 754 963 780.5 988 c 128,-1,52
 807 1013 807 1013 807 1035 c 0,53,54
 807 1134 807 1134 657 1134 c 0,55,56
 523 1134 523 1134 478 1032 c 0,57,58
 463 999 463 999 463 955 c 2,59,-1
 463 0 l 1,60,-1
 0 0 l 1,0,-1
EndSplineSet
EndChar

StartChar: agrave
Encoding: 224 224 161
Width: 932
Flags: W
LayerCount: 2
Fore
SplineSet
335 353 m 128,-1,1
 296 318 296 318 296 283 c 128,-1,2
 296 248 296 248 317.5 226.5 c 128,-1,3
 339 205 339 205 378 205 c 128,-1,4
 417 205 417 205 458 234 c 1,5,-1
 458 398 l 1,6,0
 374 388 374 388 335 353 c 128,-1,1
0 188 m 0,7,8
 0 328 0 328 122.5 420.5 c 128,-1,9
 245 513 245 513 458 512 c 1,10,-1
 458 607 l 2,11,12
 458 676 458 676 421 723 c 128,-1,13
 384 770 384 770 340 770 c 128,-1,14
 296 770 296 770 277.5 722.5 c 128,-1,15
 259 675 259 675 250 552 c 1,16,17
 88 552 88 552 50 616 c 0,18,19
 34 642 34 642 34 690.5 c 128,-1,20
 34 739 34 739 105 802 c 128,-1,21
 176 865 176 865 284.5 907 c 128,-1,22
 393 949 393 949 504.5 949 c 128,-1,23
 616 949 616 949 691 876 c 128,-1,24
 766 803 766 803 766 641 c 2,25,-1
 766 374 l 2,26,27
 766 285 766 285 783 254.5 c 128,-1,28
 800 224 800 224 864 210 c 2,29,-1
 892 204 l 1,30,-1
 867 34 l 1,31,32
 818 2 818 2 805.5 -2 c 128,-1,33
 793 -6 793 -6 780.5 -11 c 128,-1,34
 768 -16 768 -16 759.5 -17 c 128,-1,35
 751 -18 751 -18 738 -20 c 0,36,37
 720 -24 720 -24 662 -24 c 0,38,39
 550 -24 550 -24 499 106 c 2,40,-1
 494 119 l 1,41,-1
 481 125 l 1,42,43
 459 66 459 66 380 21.5 c 128,-1,44
 301 -23 301 -23 209 -23 c 128,-1,45
 117 -23 117 -23 58.5 29.5 c 128,-1,46
 0 82 0 82 0 188 c 0,7,8
136 1412 m 1,47,-1
 354 1452 l 1,48,-1
 504 1104 l 1,49,-1
 345 1073 l 1,50,-1
 136 1412 l 1,47,-1
EndSplineSet
EndChar

StartChar: aacute
Encoding: 225 225 162
Width: 932
Flags: W
LayerCount: 2
Fore
SplineSet
335 353 m 128,-1,1
 296 318 296 318 296 283 c 128,-1,2
 296 248 296 248 317.5 226.5 c 128,-1,3
 339 205 339 205 378 205 c 128,-1,4
 417 205 417 205 458 234 c 1,5,-1
 458 398 l 1,6,0
 374 388 374 388 335 353 c 128,-1,1
0 188 m 0,7,8
 0 328 0 328 122.5 420.5 c 128,-1,9
 245 513 245 513 458 512 c 1,10,-1
 458 607 l 2,11,12
 458 676 458 676 421 723 c 128,-1,13
 384 770 384 770 340 770 c 128,-1,14
 296 770 296 770 277.5 722.5 c 128,-1,15
 259 675 259 675 250 552 c 1,16,17
 88 552 88 552 50 616 c 0,18,19
 34 642 34 642 34 690.5 c 128,-1,20
 34 739 34 739 105 802 c 128,-1,21
 176 865 176 865 284.5 907 c 128,-1,22
 393 949 393 949 504.5 949 c 128,-1,23
 616 949 616 949 691 876 c 128,-1,24
 766 803 766 803 766 641 c 2,25,-1
 766 374 l 2,26,27
 766 285 766 285 783 254.5 c 128,-1,28
 800 224 800 224 864 210 c 2,29,-1
 892 204 l 1,30,-1
 867 34 l 1,31,32
 818 2 818 2 805.5 -2 c 128,-1,33
 793 -6 793 -6 780.5 -11 c 128,-1,34
 768 -16 768 -16 759.5 -17 c 128,-1,35
 751 -18 751 -18 738 -20 c 0,36,37
 720 -24 720 -24 662 -24 c 0,38,39
 550 -24 550 -24 499 106 c 2,40,-1
 494 119 l 1,41,-1
 481 125 l 1,42,43
 459 66 459 66 380 21.5 c 128,-1,44
 301 -23 301 -23 209 -23 c 128,-1,45
 117 -23 117 -23 58.5 29.5 c 128,-1,46
 0 82 0 82 0 188 c 0,7,8
343 1084 m 1,47,-1
 498 1409 l 1,48,-1
 718 1395 l 1,49,-1
 487 1063 l 1,50,-1
 343 1084 l 1,47,-1
EndSplineSet
EndChar

StartChar: acircumflex
Encoding: 226 226 163
Width: 932
Flags: W
LayerCount: 2
Fore
SplineSet
335 353 m 128,-1,1
 296 318 296 318 296 283 c 128,-1,2
 296 248 296 248 317.5 226.5 c 128,-1,3
 339 205 339 205 378 205 c 128,-1,4
 417 205 417 205 458 234 c 1,5,-1
 458 398 l 1,6,0
 374 388 374 388 335 353 c 128,-1,1
0 188 m 0,7,8
 0 328 0 328 122.5 420.5 c 128,-1,9
 245 513 245 513 458 512 c 1,10,-1
 458 607 l 2,11,12
 458 676 458 676 421 723 c 128,-1,13
 384 770 384 770 340 770 c 128,-1,14
 296 770 296 770 277.5 722.5 c 128,-1,15
 259 675 259 675 250 552 c 1,16,17
 88 552 88 552 50 616 c 0,18,19
 34 642 34 642 34 690.5 c 128,-1,20
 34 739 34 739 105 802 c 128,-1,21
 176 865 176 865 284.5 907 c 128,-1,22
 393 949 393 949 504.5 949 c 128,-1,23
 616 949 616 949 691 876 c 128,-1,24
 766 803 766 803 766 641 c 2,25,-1
 766 374 l 2,26,27
 766 285 766 285 783 254.5 c 128,-1,28
 800 224 800 224 864 210 c 2,29,-1
 892 204 l 1,30,-1
 867 34 l 1,31,32
 818 2 818 2 805.5 -2 c 128,-1,33
 793 -6 793 -6 780.5 -11 c 128,-1,34
 768 -16 768 -16 759.5 -17 c 128,-1,35
 751 -18 751 -18 738 -20 c 0,36,37
 720 -24 720 -24 662 -24 c 0,38,39
 550 -24 550 -24 499 106 c 2,40,-1
 494 119 l 1,41,-1
 481 125 l 1,42,43
 459 66 459 66 380 21.5 c 128,-1,44
 301 -23 301 -23 209 -23 c 128,-1,45
 117 -23 117 -23 58.5 29.5 c 128,-1,46
 0 82 0 82 0 188 c 0,7,8
156 1083 m 1,47,-1
 327 1278 l 1,48,-1
 504 1298 l 1,49,-1
 708 1093 l 1,50,-1
 557 1034 l 1,51,-1
 418 1135 l 1,52,-1
 404 1135 l 1,53,-1
 301 1033 l 1,54,-1
 156 1083 l 1,47,-1
EndSplineSet
EndChar

StartChar: atilde
Encoding: 227 227 164
Width: 932
Flags: W
LayerCount: 2
Fore
SplineSet
335 353 m 128,-1,1
 296 318 296 318 296 283 c 128,-1,2
 296 248 296 248 317.5 226.5 c 128,-1,3
 339 205 339 205 378 205 c 128,-1,4
 417 205 417 205 458 234 c 1,5,-1
 458 398 l 1,6,0
 374 388 374 388 335 353 c 128,-1,1
0 188 m 0,7,8
 0 328 0 328 122.5 420.5 c 128,-1,9
 245 513 245 513 458 512 c 1,10,-1
 458 607 l 2,11,12
 458 676 458 676 421 723 c 128,-1,13
 384 770 384 770 340 770 c 128,-1,14
 296 770 296 770 277.5 722.5 c 128,-1,15
 259 675 259 675 250 552 c 1,16,17
 88 552 88 552 50 616 c 0,18,19
 34 642 34 642 34 690.5 c 128,-1,20
 34 739 34 739 105 802 c 128,-1,21
 176 865 176 865 284.5 907 c 128,-1,22
 393 949 393 949 504.5 949 c 128,-1,23
 616 949 616 949 691 876 c 128,-1,24
 766 803 766 803 766 641 c 2,25,-1
 766 374 l 2,26,27
 766 285 766 285 783 254.5 c 128,-1,28
 800 224 800 224 864 210 c 2,29,-1
 892 204 l 1,30,-1
 867 34 l 1,31,32
 818 2 818 2 805.5 -2 c 128,-1,33
 793 -6 793 -6 780.5 -11 c 128,-1,34
 768 -16 768 -16 759.5 -17 c 128,-1,35
 751 -18 751 -18 738 -20 c 0,36,37
 720 -24 720 -24 662 -24 c 0,38,39
 550 -24 550 -24 499 106 c 2,40,-1
 494 119 l 1,41,-1
 481 125 l 1,42,43
 459 66 459 66 380 21.5 c 128,-1,44
 301 -23 301 -23 209 -23 c 128,-1,45
 117 -23 117 -23 58.5 29.5 c 128,-1,46
 0 82 0 82 0 188 c 0,7,8
129 1079 m 1,47,48
 116 1178 116 1178 166 1262 c 0,49,50
 190 1302 190 1302 238.5 1320.5 c 128,-1,51
 287 1339 287 1339 352 1325 c 2,52,-1
 579 1276 l 2,53,54
 599 1272 599 1272 616.5 1285 c 128,-1,55
 634 1298 634 1298 649 1329 c 1,56,-1
 764 1318 l 1,57,58
 763 1190 763 1190 698.5 1124.5 c 128,-1,59
 634 1059 634 1059 516 1087 c 2,60,-1
 307 1136 l 2,61,62
 283 1142 283 1142 268 1126 c 128,-1,63
 253 1110 253 1110 247 1073 c 1,64,-1
 129 1079 l 1,47,48
EndSplineSet
EndChar

StartChar: adieresis
Encoding: 228 228 165
Width: 932
Flags: W
LayerCount: 2
Fore
SplineSet
335 353 m 128,-1,1
 296 318 296 318 296 283 c 128,-1,2
 296 248 296 248 317.5 226.5 c 128,-1,3
 339 205 339 205 378 205 c 128,-1,4
 417 205 417 205 458 234 c 1,5,-1
 458 398 l 1,6,0
 374 388 374 388 335 353 c 128,-1,1
0 188 m 0,7,8
 0 328 0 328 122.5 420.5 c 128,-1,9
 245 513 245 513 458 512 c 1,10,-1
 458 607 l 2,11,12
 458 676 458 676 421 723 c 128,-1,13
 384 770 384 770 340 770 c 128,-1,14
 296 770 296 770 277.5 722.5 c 128,-1,15
 259 675 259 675 250 552 c 1,16,17
 88 552 88 552 50 616 c 0,18,19
 34 642 34 642 34 690.5 c 128,-1,20
 34 739 34 739 105 802 c 128,-1,21
 176 865 176 865 284.5 907 c 128,-1,22
 393 949 393 949 504.5 949 c 128,-1,23
 616 949 616 949 691 876 c 128,-1,24
 766 803 766 803 766 641 c 2,25,-1
 766 374 l 2,26,27
 766 285 766 285 783 254.5 c 128,-1,28
 800 224 800 224 864 210 c 2,29,-1
 892 204 l 1,30,-1
 867 34 l 1,31,32
 818 2 818 2 805.5 -2 c 128,-1,33
 793 -6 793 -6 780.5 -11 c 128,-1,34
 768 -16 768 -16 759.5 -17 c 128,-1,35
 751 -18 751 -18 738 -20 c 0,36,37
 720 -24 720 -24 662 -24 c 0,38,39
 550 -24 550 -24 499 106 c 2,40,-1
 494 119 l 1,41,-1
 481 125 l 1,42,43
 459 66 459 66 380 21.5 c 128,-1,44
 301 -23 301 -23 209 -23 c 128,-1,45
 117 -23 117 -23 58.5 29.5 c 128,-1,46
 0 82 0 82 0 188 c 0,7,8
132 1180 m 0,47,48
 132 1222 132 1222 164.5 1254.5 c 128,-1,49
 197 1287 197 1287 272 1287 c 128,-1,50
 347 1287 347 1287 380 1255.5 c 128,-1,51
 413 1224 413 1224 413 1182 c 0,52,53
 413 1073 413 1073 272.5 1073 c 128,-1,54
 132 1073 132 1073 132 1180 c 0,47,48
441 1180 m 0,55,56
 441 1222 441 1222 473.5 1254.5 c 128,-1,57
 506 1287 506 1287 581 1287 c 128,-1,58
 656 1287 656 1287 689 1255.5 c 128,-1,59
 722 1224 722 1224 722 1182 c 0,60,61
 722 1073 722 1073 581.5 1073 c 128,-1,62
 441 1073 441 1073 441 1180 c 0,55,56
EndSplineSet
EndChar

StartChar: aring
Encoding: 229 229 166
Width: 932
Flags: W
LayerCount: 2
Fore
SplineSet
335 353 m 128,-1,1
 296 318 296 318 296 283 c 128,-1,2
 296 248 296 248 317.5 226.5 c 128,-1,3
 339 205 339 205 378 205 c 128,-1,4
 417 205 417 205 458 234 c 1,5,-1
 458 398 l 1,6,0
 374 388 374 388 335 353 c 128,-1,1
0 188 m 0,7,8
 0 328 0 328 122.5 420.5 c 128,-1,9
 245 513 245 513 458 512 c 1,10,-1
 458 607 l 2,11,12
 458 676 458 676 421 723 c 128,-1,13
 384 770 384 770 340 770 c 128,-1,14
 296 770 296 770 277.5 722.5 c 128,-1,15
 259 675 259 675 250 552 c 1,16,17
 88 552 88 552 50 616 c 0,18,19
 34 642 34 642 34 690.5 c 128,-1,20
 34 739 34 739 105 802 c 128,-1,21
 176 865 176 865 284.5 907 c 128,-1,22
 393 949 393 949 504.5 949 c 128,-1,23
 616 949 616 949 691 876 c 128,-1,24
 766 803 766 803 766 641 c 2,25,-1
 766 374 l 2,26,27
 766 285 766 285 783 254.5 c 128,-1,28
 800 224 800 224 864 210 c 2,29,-1
 892 204 l 1,30,-1
 867 34 l 1,31,32
 818 2 818 2 805.5 -2 c 128,-1,33
 793 -6 793 -6 780.5 -11 c 128,-1,34
 768 -16 768 -16 759.5 -17 c 128,-1,35
 751 -18 751 -18 738 -20 c 0,36,37
 720 -24 720 -24 662 -24 c 0,38,39
 550 -24 550 -24 499 106 c 2,40,-1
 494 119 l 1,41,-1
 481 125 l 1,42,43
 459 66 459 66 380 21.5 c 128,-1,44
 301 -23 301 -23 209 -23 c 128,-1,45
 117 -23 117 -23 58.5 29.5 c 128,-1,46
 0 82 0 82 0 188 c 0,7,8
348 1240 m 0,47,48
 348 1183 348 1183 426 1183 c 0,49,50
 456 1183 456 1183 479 1198 c 128,-1,51
 502 1213 502 1213 502 1240 c 128,-1,52
 502 1267 502 1267 477.5 1283 c 128,-1,53
 453 1299 453 1299 423 1299 c 128,-1,54
 393 1299 393 1299 370.5 1282 c 128,-1,55
 348 1265 348 1265 348 1240 c 0,47,48
416 1073 m 0,56,57
 156 1073 156 1073 156 1239 c 0,58,59
 156 1315 156 1315 224 1363.5 c 128,-1,60
 292 1412 292 1412 430 1412 c 0,61,62
 706 1412 706 1412 706 1248 c 0,63,64
 706 1175 706 1175 634 1124 c 128,-1,65
 562 1073 562 1073 416 1073 c 0,56,57
EndSplineSet
EndChar

StartChar: ae
Encoding: 230 230 167
Width: 1292
Flags: W
LayerCount: 2
Fore
SplineSet
772 516 m 1,0,-1
 942 531 l 1,1,2
 948 549 948 549 948 605.5 c 128,-1,3
 948 662 948 662 928 702.5 c 128,-1,4
 908 743 908 743 865 743 c 0,5,6
 769 743 769 743 772 516 c 1,0,-1
335 353 m 128,-1,8
 296 318 296 318 296 283 c 128,-1,9
 296 248 296 248 317.5 227 c 128,-1,10
 339 206 339 206 379 206 c 128,-1,11
 419 206 419 206 458 234 c 1,12,-1
 458 398 l 1,13,7
 374 388 374 388 335 353 c 128,-1,8
0 188 m 0,14,15
 0 328 0 328 122 420.5 c 128,-1,16
 244 513 244 513 458 512 c 1,17,-1
 458 607 l 2,18,19
 458 671 458 671 421.5 708.5 c 128,-1,20
 385 746 385 746 343 746 c 128,-1,21
 301 746 301 746 279 707 c 128,-1,22
 257 668 257 668 239 568 c 1,23,24
 164 556 164 556 99 594 c 128,-1,25
 34 632 34 632 34 703.5 c 128,-1,26
 34 775 34 775 117 831.5 c 128,-1,27
 200 888 200 888 302.5 918 c 128,-1,28
 405 948 405 948 481 948 c 0,29,30
 636 948 636 948 701 882 c 1,31,32
 814 950 814 950 938 950 c 0,33,34
 1098 950 1098 950 1186 847.5 c 128,-1,35
 1274 745 1274 745 1274 580 c 0,36,37
 1274 510 1274 510 1253 401 c 1,38,-1
 775 397 l 1,39,40
 781 300 781 300 847.5 249.5 c 128,-1,41
 914 199 914 199 1045 199 c 128,-1,42
 1176 199 1176 199 1273 255 c 1,43,-1
 1292 122 l 1,44,45
 1249 65 1249 65 1171 29 c 0,46,47
 1041 -31 1041 -31 891 -31 c 128,-1,48
 741 -31 741 -31 660 14.5 c 128,-1,49
 579 60 579 60 523 141 c 1,50,51
 436 -23 436 -23 201 -23 c 0,52,53
 117 -23 117 -23 58.5 31 c 128,-1,54
 0 85 0 85 0 188 c 0,14,15
EndSplineSet
EndChar

StartChar: ccedilla
Encoding: 231 231 168
Width: 857
Flags: W
LayerCount: 2
Fore
SplineSet
395 -268 m 1,0,1
 453 -267 453 -267 492.5 -247.5 c 128,-1,2
 532 -228 532 -228 532 -204 c 0,3,4
 532 -165 532 -165 376 -112 c 1,5,-1
 480 -31 l 1,6,7
 0 -30 0 -30 0 426 c 0,8,9
 0 718 0 718 244 878 c 0,10,11
 380 967 380 967 521.5 967 c 128,-1,12
 663 967 663 967 743 898 c 128,-1,13
 823 829 823 829 823 736 c 128,-1,14
 823 643 823 643 767 601.5 c 128,-1,15
 711 560 711 560 621 550 c 1,16,17
 579 681 579 681 542 728.5 c 128,-1,18
 505 776 505 776 449 776 c 0,19,20
 333 776 333 776 333 515 c 0,21,22
 333 389 333 389 397.5 294.5 c 128,-1,23
 462 200 462 200 573 200 c 0,24,25
 650 200 650 200 701.5 216.5 c 128,-1,26
 753 233 753 233 817 271 c 1,27,-1
 857 167 l 1,28,29
 819 88 819 88 728 35 c 1,30,-1
 738 35 l 1,31,-1
 620 -51 l 1,32,33
 795 -66 795 -66 795 -194 c 0,34,35
 795 -278 795 -278 712 -317 c 128,-1,36
 629 -356 629 -356 431 -356 c 1,37,-1
 395 -268 l 1,0,1
EndSplineSet
EndChar

StartChar: egrave
Encoding: 232 232 169
Width: 845
Flags: W
LayerCount: 2
Fore
SplineSet
319 506 m 1,0,-1
 495 529 l 1,1,2
 501 547 501 547 501 604.5 c 128,-1,3
 501 662 501 662 481 702.5 c 128,-1,4
 461 743 461 743 414.5 743 c 128,-1,5
 368 743 368 743 342.5 676 c 128,-1,6
 317 609 317 609 319 506 c 1,0,-1
328 387 m 1,7,8
 340 199 340 199 578 199 c 0,9,10
 729 199 729 199 826 255 c 1,11,-1
 845 122 l 1,12,13
 802 65 802 65 724 29 c 0,14,15
 594 -31 594 -31 414 -31 c 128,-1,16
 234 -31 234 -31 117 88 c 128,-1,17
 0 207 0 207 0 430 c 0,18,19
 0 540 0 540 42.5 638.5 c 128,-1,20
 85 737 85 737 153.5 804.5 c 128,-1,21
 222 872 222 872 311 911 c 128,-1,22
 400 950 400 950 491 950 c 0,23,24
 651 950 651 950 739 847.5 c 128,-1,25
 827 745 827 745 827 580 c 0,26,27
 827 510 827 510 806 401 c 1,28,-1
 328 387 l 1,7,8
165 1412 m 1,29,-1
 383 1452 l 1,30,-1
 533 1104 l 1,31,-1
 374 1073 l 1,32,-1
 165 1412 l 1,29,-1
EndSplineSet
EndChar

StartChar: eacute
Encoding: 233 233 170
Width: 845
Flags: W
LayerCount: 2
Fore
SplineSet
319 506 m 1,0,-1
 495 529 l 1,1,2
 501 547 501 547 501 604.5 c 128,-1,3
 501 662 501 662 481 702.5 c 128,-1,4
 461 743 461 743 414.5 743 c 128,-1,5
 368 743 368 743 342.5 676 c 128,-1,6
 317 609 317 609 319 506 c 1,0,-1
328 387 m 1,7,8
 340 199 340 199 578 199 c 0,9,10
 729 199 729 199 826 255 c 1,11,-1
 845 122 l 1,12,13
 802 65 802 65 724 29 c 0,14,15
 594 -31 594 -31 414 -31 c 128,-1,16
 234 -31 234 -31 117 88 c 128,-1,17
 0 207 0 207 0 430 c 0,18,19
 0 540 0 540 42.5 638.5 c 128,-1,20
 85 737 85 737 153.5 804.5 c 128,-1,21
 222 872 222 872 311 911 c 128,-1,22
 400 950 400 950 491 950 c 0,23,24
 651 950 651 950 739 847.5 c 128,-1,25
 827 745 827 745 827 580 c 0,26,27
 827 510 827 510 806 401 c 1,28,-1
 328 387 l 1,7,8
336 1084 m 1,29,-1
 491 1409 l 1,30,-1
 711 1395 l 1,31,-1
 480 1063 l 1,32,-1
 336 1084 l 1,29,-1
EndSplineSet
EndChar

StartChar: ecircumflex
Encoding: 234 234 171
Width: 845
Flags: W
LayerCount: 2
Fore
SplineSet
319 506 m 1,0,-1
 495 529 l 1,1,2
 501 547 501 547 501 604.5 c 128,-1,3
 501 662 501 662 481 702.5 c 128,-1,4
 461 743 461 743 414.5 743 c 128,-1,5
 368 743 368 743 342.5 676 c 128,-1,6
 317 609 317 609 319 506 c 1,0,-1
328 387 m 1,7,8
 340 199 340 199 578 199 c 0,9,10
 729 199 729 199 826 255 c 1,11,-1
 845 122 l 1,12,13
 802 65 802 65 724 29 c 0,14,15
 594 -31 594 -31 414 -31 c 128,-1,16
 234 -31 234 -31 117 88 c 128,-1,17
 0 207 0 207 0 430 c 0,18,19
 0 540 0 540 42.5 638.5 c 128,-1,20
 85 737 85 737 153.5 804.5 c 128,-1,21
 222 872 222 872 311 911 c 128,-1,22
 400 950 400 950 491 950 c 0,23,24
 651 950 651 950 739 847.5 c 128,-1,25
 827 745 827 745 827 580 c 0,26,27
 827 510 827 510 806 401 c 1,28,-1
 328 387 l 1,7,8
141 1083 m 1,29,-1
 312 1278 l 1,30,-1
 489 1298 l 1,31,-1
 693 1093 l 1,32,-1
 542 1034 l 1,33,-1
 403 1135 l 1,34,-1
 389 1135 l 1,35,-1
 286 1033 l 1,36,-1
 141 1083 l 1,29,-1
EndSplineSet
EndChar

StartChar: edieresis
Encoding: 235 235 172
Width: 845
Flags: W
LayerCount: 2
Fore
SplineSet
319 506 m 1,0,-1
 495 529 l 1,1,2
 501 547 501 547 501 604.5 c 128,-1,3
 501 662 501 662 481 702.5 c 128,-1,4
 461 743 461 743 414.5 743 c 128,-1,5
 368 743 368 743 342.5 676 c 128,-1,6
 317 609 317 609 319 506 c 1,0,-1
328 387 m 1,7,8
 340 199 340 199 578 199 c 0,9,10
 729 199 729 199 826 255 c 1,11,-1
 845 122 l 1,12,13
 802 65 802 65 724 29 c 0,14,15
 594 -31 594 -31 414 -31 c 128,-1,16
 234 -31 234 -31 117 88 c 128,-1,17
 0 207 0 207 0 430 c 0,18,19
 0 540 0 540 42.5 638.5 c 128,-1,20
 85 737 85 737 153.5 804.5 c 128,-1,21
 222 872 222 872 311 911 c 128,-1,22
 400 950 400 950 491 950 c 0,23,24
 651 950 651 950 739 847.5 c 128,-1,25
 827 745 827 745 827 580 c 0,26,27
 827 510 827 510 806 401 c 1,28,-1
 328 387 l 1,7,8
132 1180 m 0,29,30
 132 1222 132 1222 164.5 1254.5 c 128,-1,31
 197 1287 197 1287 272 1287 c 128,-1,32
 347 1287 347 1287 380.5 1255.5 c 128,-1,33
 414 1224 414 1224 414 1182 c 0,34,35
 414 1073 414 1073 273 1073 c 128,-1,36
 132 1073 132 1073 132 1180 c 0,29,30
441 1180 m 0,37,38
 441 1222 441 1222 473.5 1254.5 c 128,-1,39
 506 1287 506 1287 581 1287 c 128,-1,40
 656 1287 656 1287 689.5 1255.5 c 128,-1,41
 723 1224 723 1224 723 1182 c 0,42,43
 723 1073 723 1073 582 1073 c 128,-1,44
 441 1073 441 1073 441 1180 c 0,37,38
EndSplineSet
EndChar

StartChar: igrave
Encoding: 236 236 173
Width: 638
Flags: W
LayerCount: 2
Fore
SplineSet
0 0 m 1,0,-1
 8 176 l 1,1,-1
 162 230 l 1,2,-1
 162 571 l 1,3,-1
 14 676 l 1,4,-1
 47 854 l 1,5,-1
 420 880 l 1,6,-1
 476 819 l 1,7,-1
 476 230 l 1,8,-1
 638 174 l 1,9,-1
 627 0 l 1,10,-1
 0 0 l 1,0,-1
20 1362 m 1,11,-1
 238 1402 l 1,12,-1
 388 1054 l 1,13,-1
 229 1023 l 1,14,-1
 20 1362 l 1,11,-1
EndSplineSet
EndChar

StartChar: iacute
Encoding: 237 237 174
Width: 638
Flags: W
LayerCount: 2
Fore
SplineSet
0 0 m 1,0,-1
 8 176 l 1,1,-1
 162 230 l 1,2,-1
 162 571 l 1,3,-1
 14 676 l 1,4,-1
 47 854 l 1,5,-1
 420 880 l 1,6,-1
 476 819 l 1,7,-1
 476 230 l 1,8,-1
 638 174 l 1,9,-1
 627 0 l 1,10,-1
 0 0 l 1,0,-1
211 1014 m 1,11,-1
 366 1339 l 1,12,-1
 586 1325 l 1,13,-1
 355 993 l 1,14,-1
 211 1014 l 1,11,-1
EndSplineSet
EndChar

StartChar: icircumflex
Encoding: 238 238 175
Width: 638
Flags: W
LayerCount: 2
Fore
SplineSet
0 0 m 1,0,-1
 8 176 l 1,1,-1
 162 230 l 1,2,-1
 162 571 l 1,3,-1
 14 676 l 1,4,-1
 47 854 l 1,5,-1
 420 880 l 1,6,-1
 476 819 l 1,7,-1
 476 230 l 1,8,-1
 638 174 l 1,9,-1
 627 0 l 1,10,-1
 0 0 l 1,0,-1
38 1013 m 1,11,-1
 209 1208 l 1,12,-1
 386 1228 l 1,13,-1
 590 1023 l 1,14,-1
 439 964 l 1,15,-1
 300 1065 l 1,16,-1
 286 1065 l 1,17,-1
 183 963 l 1,18,-1
 38 1013 l 1,11,-1
EndSplineSet
EndChar

StartChar: idieresis
Encoding: 239 239 176
Width: 638
Flags: W
LayerCount: 2
Fore
SplineSet
0 0 m 1,0,-1
 8 176 l 1,1,-1
 162 230 l 1,2,-1
 162 571 l 1,3,-1
 14 676 l 1,4,-1
 47 854 l 1,5,-1
 420 880 l 1,6,-1
 476 819 l 1,7,-1
 476 230 l 1,8,-1
 638 174 l 1,9,-1
 627 0 l 1,10,-1
 0 0 l 1,0,-1
20 1080 m 0,11,12
 20 1122 20 1122 52.5 1154.5 c 128,-1,13
 85 1187 85 1187 160 1187 c 128,-1,14
 235 1187 235 1187 268.5 1155.5 c 128,-1,15
 302 1124 302 1124 302 1082 c 0,16,17
 302 973 302 973 161 973 c 128,-1,18
 20 973 20 973 20 1080 c 0,11,12
329 1080 m 0,19,20
 329 1122 329 1122 361.5 1154.5 c 128,-1,21
 394 1187 394 1187 469 1187 c 128,-1,22
 544 1187 544 1187 577.5 1155.5 c 128,-1,23
 611 1124 611 1124 611 1082 c 0,24,25
 611 973 611 973 470 973 c 128,-1,26
 329 973 329 973 329 1080 c 0,19,20
EndSplineSet
EndChar

StartChar: eth
Encoding: 240 240 177
Width: 942
Flags: W
LayerCount: 2
Fore
SplineSet
334 497 m 1,0,1
 342 356 342 356 394 254.5 c 128,-1,2
 446 153 446 153 512 153 c 0,3,4
 564 153 564 153 579.5 179 c 128,-1,5
 595 205 595 205 601.5 225 c 128,-1,6
 608 245 608 245 611 285 c 0,7,8
 616 352 616 352 616 466.5 c 128,-1,9
 616 581 616 581 560.5 679.5 c 128,-1,10
 505 778 505 778 450 778 c 0,11,12
 334 778 334 778 334 497 c 1,0,1
0 455 m 0,13,14
 0 535 0 535 39.5 626 c 128,-1,15
 79 717 79 717 139.5 786 c 128,-1,16
 200 855 200 855 275 900 c 128,-1,17
 350 945 350 945 421.5 945 c 128,-1,18
 493 945 493 945 544 887 c 1,19,-1
 548 893 l 1,20,21
 521 977 521 977 492 1046 c 1,22,-1
 290 1006 l 1,23,-1
 298 1132 l 1,24,-1
 436 1163 l 1,25,26
 385 1259 385 1259 336 1302 c 1,27,-1
 592 1302 l 1,28,29
 638 1266 638 1266 682 1219 c 1,30,-1
 846 1256 l 1,31,-1
 834 1114 l 1,32,-1
 772 1102 l 1,33,34
 854 977 854 977 898 827 c 128,-1,35
 942 677 942 677 942 558 c 128,-1,36
 942 439 942 439 924.5 357.5 c 128,-1,37
 907 276 907 276 869.5 205 c 128,-1,38
 832 134 832 134 778 83 c 0,39,40
 660 -27 660 -27 471 -27 c 0,41,42
 184 -27 184 -27 66 178 c 0,43,44
 0 294 0 294 0 455 c 0,13,14
EndSplineSet
EndChar

StartChar: ntilde
Encoding: 241 241 178
Width: 1160
Flags: W
LayerCount: 2
Fore
SplineSet
0 0 m 1,0,-1
 17 157 l 1,1,-1
 159 229 l 1,2,-1
 159 640 l 1,3,-1
 17 721 l 1,4,-1
 44 889 l 1,5,-1
 447 918 l 1,6,-1
 485 879 l 1,7,-1
 462 777 l 1,8,-1
 477 771 l 1,9,10
 553 850 553 850 620 889.5 c 128,-1,11
 687 929 687 929 766 929 c 0,12,13
 882 929 882 929 947 859.5 c 128,-1,14
 1012 790 1012 790 1012 641 c 2,15,-1
 1012 229 l 1,16,-1
 1160 165 l 1,17,-1
 1137 0 l 1,18,-1
 701 0 l 1,19,-1
 701 429 l 2,20,21
 701 522 701 522 677.5 562 c 128,-1,22
 654 602 654 602 594 602 c 128,-1,23
 534 602 534 602 477 552 c 1,24,-1
 477 229 l 1,25,-1
 600 166 l 1,26,-1
 572 0 l 1,27,-1
 0 0 l 1,0,-1
258 1079 m 1,28,29
 245 1178 245 1178 295 1262 c 0,30,31
 319 1302 319 1302 367.5 1320.5 c 128,-1,32
 416 1339 416 1339 481 1325 c 2,33,-1
 708 1276 l 2,34,35
 728 1272 728 1272 745.5 1285 c 128,-1,36
 763 1298 763 1298 778 1329 c 1,37,-1
 893 1318 l 1,38,39
 892 1190 892 1190 827.5 1124.5 c 128,-1,40
 763 1059 763 1059 645 1087 c 2,41,-1
 436 1136 l 2,42,43
 412 1142 412 1142 397 1126 c 128,-1,44
 382 1110 382 1110 376 1073 c 1,45,-1
 258 1079 l 1,28,29
EndSplineSet
EndChar

StartChar: ograve
Encoding: 242 242 179
Width: 978
Flags: W
LayerCount: 2
Fore
SplineSet
361 690 m 128,-1,1
 334 637 334 637 334 490 c 0,2,3
 334 168 334 168 505 168 c 0,4,5
 569 168 569 168 594.5 209 c 128,-1,6
 620 250 620 250 620 336 c 128,-1,7
 620 422 620 422 617.5 468.5 c 128,-1,8
 615 515 615 515 605.5 570.5 c 128,-1,9
 596 626 596 626 580 661 c 0,10,11
 541 743 541 743 464.5 743 c 128,-1,0
 388 743 388 743 361 690 c 128,-1,1
0 470 m 0,12,13
 0 575 0 575 46 669 c 128,-1,14
 92 763 92 763 164 824 c 0,15,16
 317 951 317 951 495 951 c 0,17,18
 958 951 958 951 958 490 c 0,19,20
 958 254 958 254 825.5 113.5 c 128,-1,21
 693 -27 693 -27 474 -27 c 0,22,23
 209 -27 209 -27 98 127 c 0,24,25
 0 263 0 263 0 470 c 0,12,13
186 1412 m 1,26,-1
 404 1452 l 1,27,-1
 554 1104 l 1,28,-1
 395 1073 l 1,29,-1
 186 1412 l 1,26,-1
EndSplineSet
EndChar

StartChar: oacute
Encoding: 243 243 180
Width: 978
Flags: W
LayerCount: 2
Fore
SplineSet
361 690 m 128,-1,1
 334 637 334 637 334 490 c 0,2,3
 334 168 334 168 505 168 c 0,4,5
 569 168 569 168 594.5 209 c 128,-1,6
 620 250 620 250 620 336 c 128,-1,7
 620 422 620 422 617.5 468.5 c 128,-1,8
 615 515 615 515 605.5 570.5 c 128,-1,9
 596 626 596 626 580 661 c 0,10,11
 541 743 541 743 464.5 743 c 128,-1,0
 388 743 388 743 361 690 c 128,-1,1
0 470 m 0,12,13
 0 575 0 575 46 669 c 128,-1,14
 92 763 92 763 164 824 c 0,15,16
 317 951 317 951 495 951 c 0,17,18
 958 951 958 951 958 490 c 0,19,20
 958 254 958 254 825.5 113.5 c 128,-1,21
 693 -27 693 -27 474 -27 c 0,22,23
 209 -27 209 -27 98 127 c 0,24,25
 0 263 0 263 0 470 c 0,12,13
357 1084 m 1,26,-1
 512 1409 l 1,27,-1
 732 1395 l 1,28,-1
 501 1063 l 1,29,-1
 357 1084 l 1,26,-1
EndSplineSet
EndChar

StartChar: ocircumflex
Encoding: 244 244 181
Width: 978
Flags: W
LayerCount: 2
Fore
SplineSet
361 690 m 128,-1,1
 334 637 334 637 334 490 c 0,2,3
 334 168 334 168 505 168 c 0,4,5
 569 168 569 168 594.5 209 c 128,-1,6
 620 250 620 250 620 336 c 128,-1,7
 620 422 620 422 617.5 468.5 c 128,-1,8
 615 515 615 515 605.5 570.5 c 128,-1,9
 596 626 596 626 580 661 c 0,10,11
 541 743 541 743 464.5 743 c 128,-1,0
 388 743 388 743 361 690 c 128,-1,1
0 470 m 0,12,13
 0 575 0 575 46 669 c 128,-1,14
 92 763 92 763 164 824 c 0,15,16
 317 951 317 951 495 951 c 0,17,18
 958 951 958 951 958 490 c 0,19,20
 958 254 958 254 825.5 113.5 c 128,-1,21
 693 -27 693 -27 474 -27 c 0,22,23
 209 -27 209 -27 98 127 c 0,24,25
 0 263 0 263 0 470 c 0,12,13
234 1083 m 1,26,-1
 405 1278 l 1,27,-1
 582 1298 l 1,28,-1
 786 1093 l 1,29,-1
 635 1034 l 1,30,-1
 496 1135 l 1,31,-1
 482 1135 l 1,32,-1
 379 1033 l 1,33,-1
 234 1083 l 1,26,-1
EndSplineSet
EndChar

StartChar: otilde
Encoding: 245 245 182
Width: 978
Flags: W
LayerCount: 2
Fore
SplineSet
361 690 m 128,-1,1
 334 637 334 637 334 490 c 0,2,3
 334 168 334 168 505 168 c 0,4,5
 569 168 569 168 594.5 209 c 128,-1,6
 620 250 620 250 620 336 c 128,-1,7
 620 422 620 422 617.5 468.5 c 128,-1,8
 615 515 615 515 605.5 570.5 c 128,-1,9
 596 626 596 626 580 661 c 0,10,11
 541 743 541 743 464.5 743 c 128,-1,0
 388 743 388 743 361 690 c 128,-1,1
0 470 m 0,12,13
 0 575 0 575 46 669 c 128,-1,14
 92 763 92 763 164 824 c 0,15,16
 317 951 317 951 495 951 c 0,17,18
 958 951 958 951 958 490 c 0,19,20
 958 254 958 254 825.5 113.5 c 128,-1,21
 693 -27 693 -27 474 -27 c 0,22,23
 209 -27 209 -27 98 127 c 0,24,25
 0 263 0 263 0 470 c 0,12,13
173 1079 m 1,26,27
 160 1178 160 1178 210 1262 c 0,28,29
 234 1302 234 1302 282.5 1320.5 c 128,-1,30
 331 1339 331 1339 396 1325 c 2,31,-1
 623 1276 l 2,32,33
 643 1272 643 1272 660.5 1285 c 128,-1,34
 678 1298 678 1298 693 1329 c 1,35,-1
 808 1318 l 1,36,37
 807 1190 807 1190 742.5 1124.5 c 128,-1,38
 678 1059 678 1059 560 1087 c 2,39,-1
 351 1136 l 2,40,41
 327 1142 327 1142 312 1126 c 128,-1,42
 297 1110 297 1110 291 1073 c 1,43,-1
 173 1079 l 1,26,27
EndSplineSet
EndChar

StartChar: odieresis
Encoding: 246 246 183
Width: 978
Flags: W
LayerCount: 2
Fore
SplineSet
361 690 m 128,-1,1
 334 637 334 637 334 490 c 0,2,3
 334 168 334 168 505 168 c 0,4,5
 569 168 569 168 594.5 209 c 128,-1,6
 620 250 620 250 620 336 c 128,-1,7
 620 422 620 422 617.5 468.5 c 128,-1,8
 615 515 615 515 605.5 570.5 c 128,-1,9
 596 626 596 626 580 661 c 0,10,11
 541 743 541 743 464.5 743 c 128,-1,0
 388 743 388 743 361 690 c 128,-1,1
0 470 m 0,12,13
 0 575 0 575 46 669 c 128,-1,14
 92 763 92 763 164 824 c 0,15,16
 317 951 317 951 495 951 c 0,17,18
 958 951 958 951 958 490 c 0,19,20
 958 254 958 254 825.5 113.5 c 128,-1,21
 693 -27 693 -27 474 -27 c 0,22,23
 209 -27 209 -27 98 127 c 0,24,25
 0 263 0 263 0 470 c 0,12,13
196 1180 m 0,26,27
 196 1222 196 1222 228.5 1254.5 c 128,-1,28
 261 1287 261 1287 336 1287 c 128,-1,29
 411 1287 411 1287 444.5 1255.5 c 128,-1,30
 478 1224 478 1224 478 1182 c 0,31,32
 478 1073 478 1073 337 1073 c 128,-1,33
 196 1073 196 1073 196 1180 c 0,26,27
505 1180 m 0,34,35
 505 1222 505 1222 537.5 1254.5 c 128,-1,36
 570 1287 570 1287 645 1287 c 128,-1,37
 720 1287 720 1287 753.5 1255.5 c 128,-1,38
 787 1224 787 1224 787 1182 c 0,39,40
 787 1073 787 1073 646 1073 c 128,-1,41
 505 1073 505 1073 505 1180 c 0,34,35
EndSplineSet
EndChar

StartChar: divide
Encoding: 247 247 184
Width: 823
Flags: W
LayerCount: 2
Fore
SplineSet
191 781 m 0,0,1
 191 841 191 841 240.5 887.5 c 128,-1,2
 290 934 290 934 403.5 934 c 128,-1,3
 517 934 517 934 567.5 888.5 c 128,-1,4
 618 843 618 843 618 784 c 0,5,6
 618 628 618 628 404.5 628 c 128,-1,7
 191 628 191 628 191 781 c 0,0,1
191 218 m 0,8,9
 191 278 191 278 240.5 324.5 c 128,-1,10
 290 371 290 371 403.5 371 c 128,-1,11
 517 371 517 371 567.5 325.5 c 128,-1,12
 618 280 618 280 618 221 c 0,13,14
 618 65 618 65 404.5 65 c 128,-1,15
 191 65 191 65 191 218 c 0,8,9
0 411 m 1,16,-1
 12 597 l 1,17,-1
 823 597 l 1,18,-1
 814 411 l 1,19,-1
 0 411 l 1,16,-1
EndSplineSet
EndChar

StartChar: oslash
Encoding: 248 248 185
Width: 998
Flags: W
LayerCount: 2
Fore
SplineSet
20 465 m 0,0,1
 20 575 20 575 66 669 c 128,-1,2
 112 763 112 763 184 824 c 0,3,4
 337 951 337 951 515 951 c 0,5,6
 654 951 654 951 752 909 c 1,7,-1
 793 956 l 1,8,-1
 998 921 l 1,9,-1
 893 799 l 1,10,11
 978 685 978 685 978 490 c 0,12,13
 978 254 978 254 845.5 113.5 c 128,-1,14
 713 -27 713 -27 494 -27 c 0,15,16
 349 -27 349 -27 245 24 c 1,17,-1
 208 -20 l 1,18,-1
 0 14 l 1,19,-1
 107 142 l 1,20,21
 20 266 20 266 20 465 c 0,0,1
630 547 m 1,22,-1
 396 252 l 1,23,24
 437 168 437 168 525 168 c 0,25,26
 589 168 589 168 614.5 209 c 128,-1,27
 640 250 640 250 640 361.5 c 128,-1,28
 640 473 640 473 630 547 c 1,22,-1
597 664 m 1,29,30
 558 743 558 743 483 743 c 128,-1,31
 408 743 408 743 381 690 c 128,-1,32
 354 637 354 637 354 537.5 c 128,-1,33
 354 438 354 438 363 371 c 1,34,-1
 597 664 l 1,29,30
EndSplineSet
EndChar

StartChar: ugrave
Encoding: 249 249 186
Width: 1143
Flags: W
LayerCount: 2
Fore
SplineSet
0 718 m 1,0,-1
 34 901 l 1,1,-1
 398 923 l 1,2,-1
 454 870 l 1,3,-1
 454 469 l 2,4,5
 454 373 454 373 472.5 334.5 c 128,-1,6
 491 296 491 296 547.5 296 c 128,-1,7
 604 296 604 296 661 346 c 1,8,-1
 661 604 l 1,9,-1
 532 680 l 1,10,-1
 566 889 l 1,11,-1
 924 931 l 1,12,-1
 977 878 l 1,13,-1
 977 373 l 2,14,15
 977 296 977 296 1005 262 c 128,-1,16
 1033 228 1033 228 1115 202 c 2,17,-1
 1143 193 l 1,18,-1
 1118 23 l 1,19,20
 994 -35 994 -35 889 -35 c 0,21,22
 675 -35 675 -35 675 115 c 2,23,-1
 675 128 l 1,24,-1
 662 134 l 1,25,26
 619 57 619 57 543.5 13 c 128,-1,27
 468 -31 468 -31 393 -31 c 0,28,29
 240 -31 240 -31 182.5 37.5 c 128,-1,30
 125 106 125 106 125 267 c 2,31,-1
 125 613 l 1,32,-1
 0 718 l 1,0,-1
305 1382 m 1,33,-1
 523 1422 l 1,34,-1
 673 1074 l 1,35,-1
 514 1043 l 1,36,-1
 305 1382 l 1,33,-1
EndSplineSet
EndChar

StartChar: uacute
Encoding: 250 250 187
Width: 1143
Flags: W
LayerCount: 2
Fore
SplineSet
0 718 m 1,0,-1
 34 901 l 1,1,-1
 398 923 l 1,2,-1
 454 870 l 1,3,-1
 454 469 l 2,4,5
 454 373 454 373 472.5 334.5 c 128,-1,6
 491 296 491 296 547.5 296 c 128,-1,7
 604 296 604 296 661 346 c 1,8,-1
 661 604 l 1,9,-1
 532 680 l 1,10,-1
 566 889 l 1,11,-1
 924 931 l 1,12,-1
 977 878 l 1,13,-1
 977 373 l 2,14,15
 977 296 977 296 1005 262 c 128,-1,16
 1033 228 1033 228 1115 202 c 2,17,-1
 1143 193 l 1,18,-1
 1118 23 l 1,19,20
 994 -35 994 -35 889 -35 c 0,21,22
 675 -35 675 -35 675 115 c 2,23,-1
 675 128 l 1,24,-1
 662 134 l 1,25,26
 619 57 619 57 543.5 13 c 128,-1,27
 468 -31 468 -31 393 -31 c 0,28,29
 240 -31 240 -31 182.5 37.5 c 128,-1,30
 125 106 125 106 125 267 c 2,31,-1
 125 613 l 1,32,-1
 0 718 l 1,0,-1
406 1034 m 1,33,-1
 561 1359 l 1,34,-1
 781 1345 l 1,35,-1
 550 1013 l 1,36,-1
 406 1034 l 1,33,-1
EndSplineSet
EndChar

StartChar: ucircumflex
Encoding: 251 251 188
Width: 1143
Flags: W
LayerCount: 2
Fore
SplineSet
0 718 m 1,0,-1
 34 901 l 1,1,-1
 398 923 l 1,2,-1
 454 870 l 1,3,-1
 454 469 l 2,4,5
 454 373 454 373 472.5 334.5 c 128,-1,6
 491 296 491 296 547.5 296 c 128,-1,7
 604 296 604 296 661 346 c 1,8,-1
 661 604 l 1,9,-1
 532 680 l 1,10,-1
 566 889 l 1,11,-1
 924 931 l 1,12,-1
 977 878 l 1,13,-1
 977 373 l 2,14,15
 977 296 977 296 1005 262 c 128,-1,16
 1033 228 1033 228 1115 202 c 2,17,-1
 1143 193 l 1,18,-1
 1118 23 l 1,19,20
 994 -35 994 -35 889 -35 c 0,21,22
 675 -35 675 -35 675 115 c 2,23,-1
 675 128 l 1,24,-1
 662 134 l 1,25,26
 619 57 619 57 543.5 13 c 128,-1,27
 468 -31 468 -31 393 -31 c 0,28,29
 240 -31 240 -31 182.5 37.5 c 128,-1,30
 125 106 125 106 125 267 c 2,31,-1
 125 613 l 1,32,-1
 0 718 l 1,0,-1
243 1033 m 1,33,-1
 414 1228 l 1,34,-1
 591 1248 l 1,35,-1
 795 1043 l 1,36,-1
 644 984 l 1,37,-1
 505 1085 l 1,38,-1
 491 1085 l 1,39,-1
 388 983 l 1,40,-1
 243 1033 l 1,33,-1
EndSplineSet
EndChar

StartChar: udieresis
Encoding: 252 252 189
Width: 1143
Flags: W
LayerCount: 2
Fore
SplineSet
0 718 m 1,0,-1
 34 901 l 1,1,-1
 398 923 l 1,2,-1
 454 870 l 1,3,-1
 454 469 l 2,4,5
 454 373 454 373 472.5 334.5 c 128,-1,6
 491 296 491 296 547.5 296 c 128,-1,7
 604 296 604 296 661 346 c 1,8,-1
 661 604 l 1,9,-1
 532 680 l 1,10,-1
 566 889 l 1,11,-1
 924 931 l 1,12,-1
 977 878 l 1,13,-1
 977 373 l 2,14,15
 977 296 977 296 1005 262 c 128,-1,16
 1033 228 1033 228 1115 202 c 2,17,-1
 1143 193 l 1,18,-1
 1118 23 l 1,19,20
 994 -35 994 -35 889 -35 c 0,21,22
 675 -35 675 -35 675 115 c 2,23,-1
 675 128 l 1,24,-1
 662 134 l 1,25,26
 619 57 619 57 543.5 13 c 128,-1,27
 468 -31 468 -31 393 -31 c 0,28,29
 240 -31 240 -31 182.5 37.5 c 128,-1,30
 125 106 125 106 125 267 c 2,31,-1
 125 613 l 1,32,-1
 0 718 l 1,0,-1
225 1140 m 0,33,34
 225 1182 225 1182 257.5 1214.5 c 128,-1,35
 290 1247 290 1247 365 1247 c 128,-1,36
 440 1247 440 1247 473.5 1215.5 c 128,-1,37
 507 1184 507 1184 507 1142 c 0,38,39
 507 1033 507 1033 366 1033 c 128,-1,40
 225 1033 225 1033 225 1140 c 0,33,34
534 1140 m 0,41,42
 534 1182 534 1182 566.5 1214.5 c 128,-1,43
 599 1247 599 1247 674 1247 c 128,-1,44
 749 1247 749 1247 782.5 1215.5 c 128,-1,45
 816 1184 816 1184 816 1142 c 0,46,47
 816 1033 816 1033 675 1033 c 128,-1,48
 534 1033 534 1033 534 1140 c 0,41,42
EndSplineSet
EndChar

StartChar: yacute
Encoding: 253 253 190
Width: 1120
Flags: W
LayerCount: 2
Fore
SplineSet
72 -334 m 128,-1,1
 0 -286 0 -286 0 -223.5 c 128,-1,2
 0 -161 0 -161 16.5 -116 c 128,-1,3
 33 -71 33 -71 84 -21 c 1,4,5
 120 -60 120 -60 183 -83 c 128,-1,6
 246 -106 246 -106 310 -106 c 0,7,8
 409 -106 409 -106 449 -41 c 2,9,-1
 463 -18 l 1,10,-1
 150 704 l 1,11,-1
 24 763 l 1,12,-1
 47 922 l 1,13,-1
 602 922 l 1,14,-1
 581 766 l 1,15,-1
 491 709 l 1,16,-1
 634 321 l 1,17,-1
 788 701 l 1,18,-1
 672 766 l 1,19,-1
 699 922 l 1,20,-1
 1120 922 l 1,21,-1
 1103 766 l 1,22,-1
 1005 704 l 1,23,-1
 681 -15 l 2,24,25
 592 -213 592 -213 490.5 -297.5 c 128,-1,26
 389 -382 389 -382 230 -382 c 0,27,0
 144 -382 144 -382 72 -334 c 128,-1,1
486 1034 m 1,28,-1
 640 1359 l 1,29,-1
 860 1345 l 1,30,-1
 630 1013 l 1,31,-1
 486 1034 l 1,28,-1
EndSplineSet
EndChar

StartChar: thorn
Encoding: 254 254 191
Width: 1101
Flags: W
LayerCount: 2
Fore
SplineSet
0 -370 m 1,0,-1
 18 -212 l 1,1,-1
 173 -142 l 1,2,-1
 174 972 l 1,3,-1
 0 1073 l 1,4,-1
 25 1237 l 1,5,-1
 424 1264 l 1,6,-1
 484 1209 l 1,7,-1
 484 916 l 1,8,-1
 469 776 l 1,9,-1
 484 770 l 1,10,11
 530 837 530 837 602.5 888.5 c 128,-1,12
 675 940 675 940 753 940 c 128,-1,13
 831 940 831 940 889 915 c 128,-1,14
 947 890 947 890 996 838 c 0,15,16
 1101 726 1101 726 1101 490 c 0,17,18
 1101 234 1101 234 956 104 c 1,19,20
 817 -19 817 -19 603 -19 c 0,21,22
 519 -19 519 -19 484 -13 c 1,23,-1
 484 -144 l 1,24,-1
 729 -210 l 1,25,-1
 707 -370 l 1,26,-1
 0 -370 l 1,0,-1
484 208 m 1,27,28
 603 157 603 157 687 198 c 0,29,30
 777 242 777 242 777 373 c 0,31,32
 777 643 777 643 644 643 c 0,33,34
 579 643 579 643 484 580 c 1,35,-1
 484 208 l 1,27,28
EndSplineSet
EndChar

StartChar: ydieresis
Encoding: 255 255 192
Width: 1120
Flags: W
LayerCount: 2
Fore
SplineSet
72 -334 m 128,-1,1
 0 -286 0 -286 0 -223.5 c 128,-1,2
 0 -161 0 -161 16.5 -116 c 128,-1,3
 33 -71 33 -71 84 -21 c 1,4,5
 120 -60 120 -60 183 -83 c 128,-1,6
 246 -106 246 -106 310 -106 c 0,7,8
 409 -106 409 -106 449 -41 c 2,9,-1
 463 -18 l 1,10,-1
 150 704 l 1,11,-1
 24 763 l 1,12,-1
 47 922 l 1,13,-1
 602 922 l 1,14,-1
 581 766 l 1,15,-1
 491 709 l 1,16,-1
 634 321 l 1,17,-1
 788 701 l 1,18,-1
 672 766 l 1,19,-1
 699 922 l 1,20,-1
 1120 922 l 1,21,-1
 1103 766 l 1,22,-1
 1005 704 l 1,23,-1
 681 -15 l 2,24,25
 592 -213 592 -213 490.5 -297.5 c 128,-1,26
 389 -382 389 -382 230 -382 c 0,27,0
 144 -382 144 -382 72 -334 c 128,-1,1
344 1150 m 0,28,29
 344 1192 344 1192 376.5 1224.5 c 128,-1,30
 409 1257 409 1257 484 1257 c 128,-1,31
 559 1257 559 1257 592.5 1225.5 c 128,-1,32
 626 1194 626 1194 626 1152 c 0,33,34
 626 1043 626 1043 485 1043 c 128,-1,35
 344 1043 344 1043 344 1150 c 0,28,29
653 1150 m 0,36,37
 653 1192 653 1192 685.5 1224.5 c 128,-1,38
 718 1257 718 1257 793 1257 c 128,-1,39
 868 1257 868 1257 901.5 1225.5 c 128,-1,40
 935 1194 935 1194 935 1152 c 0,41,42
 935 1043 935 1043 794 1043 c 128,-1,43
 653 1043 653 1043 653 1150 c 0,36,37
EndSplineSet
EndChar

StartChar: Amacron
Encoding: 256 256 193
Width: 1453
Flags: W
LayerCount: 2
Fore
SplineSet
538 561 m 1,0,-1
 789 561 l 1,1,-1
 662 933 l 1,2,-1
 538 561 l 1,0,-1
0 0 m 1,3,-1
 19 138 l 1,4,-1
 180 241 l 1,5,-1
 568 1205 l 1,6,-1
 915 1270 l 1,7,-1
 1305 238 l 1,8,-1
 1453 145 l 1,9,-1
 1441 -2 l 1,10,-1
 716 -2 l 1,11,-1
 732 136 l 1,12,-1
 898 240 l 1,13,-1
 860 352 l 1,14,-1
 468 352 l 1,15,-1
 431 240 l 1,16,-1
 620 148 l 1,17,-1
 605 0 l 1,18,-1
 0 0 l 1,3,-1
518 1392 m 1,19,-1
 539 1587 l 1,20,-1
 992 1587 l 1,21,-1
 970 1392 l 1,22,-1
 518 1392 l 1,19,-1
EndSplineSet
EndChar

StartChar: amacron
Encoding: 257 257 194
Width: 932
Flags: W
LayerCount: 2
Fore
SplineSet
335 353 m 128,-1,1
 296 318 296 318 296 283 c 128,-1,2
 296 248 296 248 317.5 226.5 c 128,-1,3
 339 205 339 205 378 205 c 128,-1,4
 417 205 417 205 458 234 c 1,5,-1
 458 398 l 1,6,0
 374 388 374 388 335 353 c 128,-1,1
0 188 m 0,7,8
 0 328 0 328 122.5 420.5 c 128,-1,9
 245 513 245 513 458 512 c 1,10,-1
 458 607 l 2,11,12
 458 676 458 676 421 723 c 128,-1,13
 384 770 384 770 340 770 c 128,-1,14
 296 770 296 770 277.5 722.5 c 128,-1,15
 259 675 259 675 250 552 c 1,16,17
 88 552 88 552 50 616 c 0,18,19
 34 642 34 642 34 690.5 c 128,-1,20
 34 739 34 739 105 802 c 128,-1,21
 176 865 176 865 284.5 907 c 128,-1,22
 393 949 393 949 504.5 949 c 128,-1,23
 616 949 616 949 691 876 c 128,-1,24
 766 803 766 803 766 641 c 2,25,-1
 766 374 l 2,26,27
 766 285 766 285 783 254.5 c 128,-1,28
 800 224 800 224 864 210 c 2,29,-1
 892 204 l 1,30,-1
 867 34 l 1,31,32
 818 2 818 2 805.5 -2 c 128,-1,33
 793 -6 793 -6 780.5 -11 c 128,-1,34
 768 -16 768 -16 759.5 -17 c 128,-1,35
 751 -18 751 -18 738 -20 c 0,36,37
 720 -24 720 -24 662 -24 c 0,38,39
 550 -24 550 -24 499 106 c 2,40,-1
 494 119 l 1,41,-1
 481 125 l 1,42,43
 459 66 459 66 380 21.5 c 128,-1,44
 301 -23 301 -23 209 -23 c 128,-1,45
 117 -23 117 -23 58.5 29.5 c 128,-1,46
 0 82 0 82 0 188 c 0,7,8
244 1073 m 1,47,-1
 265 1268 l 1,48,-1
 718 1268 l 1,49,-1
 696 1073 l 1,50,-1
 244 1073 l 1,47,-1
EndSplineSet
EndChar

StartChar: Abreve
Encoding: 258 258 195
Width: 1453
Flags: W
LayerCount: 2
Fore
SplineSet
538 561 m 1,0,-1
 789 561 l 1,1,-1
 662 933 l 1,2,-1
 538 561 l 1,0,-1
0 0 m 1,3,-1
 19 138 l 1,4,-1
 180 241 l 1,5,-1
 568 1205 l 1,6,-1
 915 1270 l 1,7,-1
 1305 238 l 1,8,-1
 1453 145 l 1,9,-1
 1441 -2 l 1,10,-1
 716 -2 l 1,11,-1
 732 136 l 1,12,-1
 898 240 l 1,13,-1
 860 352 l 1,14,-1
 468 352 l 1,15,-1
 431 240 l 1,16,-1
 620 148 l 1,17,-1
 605 0 l 1,18,-1
 0 0 l 1,3,-1
498 1600 m 1,19,-1
 677 1636 l 1,20,21
 682 1610 682 1610 701 1589.5 c 128,-1,22
 720 1569 720 1569 751 1569 c 128,-1,23
 782 1569 782 1569 799.5 1580.5 c 128,-1,24
 817 1592 817 1592 823.5 1603.5 c 128,-1,25
 830 1615 830 1615 839 1636 c 1,26,-1
 1012 1595 l 1,27,28
 995 1505 995 1505 926.5 1448.5 c 128,-1,29
 858 1392 858 1392 757 1392 c 0,30,31
 550 1392 550 1392 498 1600 c 1,19,-1
EndSplineSet
EndChar

StartChar: abreve
Encoding: 259 259 196
Width: 932
Flags: W
LayerCount: 2
Fore
SplineSet
335 353 m 128,-1,1
 296 318 296 318 296 283 c 128,-1,2
 296 248 296 248 317.5 226.5 c 128,-1,3
 339 205 339 205 378 205 c 128,-1,4
 417 205 417 205 458 234 c 1,5,-1
 458 398 l 1,6,0
 374 388 374 388 335 353 c 128,-1,1
0 188 m 0,7,8
 0 328 0 328 122.5 420.5 c 128,-1,9
 245 513 245 513 458 512 c 1,10,-1
 458 607 l 2,11,12
 458 676 458 676 421 723 c 128,-1,13
 384 770 384 770 340 770 c 128,-1,14
 296 770 296 770 277.5 722.5 c 128,-1,15
 259 675 259 675 250 552 c 1,16,17
 88 552 88 552 50 616 c 0,18,19
 34 642 34 642 34 690.5 c 128,-1,20
 34 739 34 739 105 802 c 128,-1,21
 176 865 176 865 284.5 907 c 128,-1,22
 393 949 393 949 504.5 949 c 128,-1,23
 616 949 616 949 691 876 c 128,-1,24
 766 803 766 803 766 641 c 2,25,-1
 766 374 l 2,26,27
 766 285 766 285 783 254.5 c 128,-1,28
 800 224 800 224 864 210 c 2,29,-1
 892 204 l 1,30,-1
 867 34 l 1,31,32
 818 2 818 2 805.5 -2 c 128,-1,33
 793 -6 793 -6 780.5 -11 c 128,-1,34
 768 -16 768 -16 759.5 -17 c 128,-1,35
 751 -18 751 -18 738 -20 c 0,36,37
 720 -24 720 -24 662 -24 c 0,38,39
 550 -24 550 -24 499 106 c 2,40,-1
 494 119 l 1,41,-1
 481 125 l 1,42,43
 459 66 459 66 380 21.5 c 128,-1,44
 301 -23 301 -23 209 -23 c 128,-1,45
 117 -23 117 -23 58.5 29.5 c 128,-1,46
 0 82 0 82 0 188 c 0,7,8
204 1271 m 1,47,-1
 383 1307 l 1,48,49
 388 1281 388 1281 407 1260.5 c 128,-1,50
 426 1240 426 1240 457 1240 c 128,-1,51
 488 1240 488 1240 505.5 1251.5 c 128,-1,52
 523 1263 523 1263 529.5 1274.5 c 128,-1,53
 536 1286 536 1286 545 1307 c 1,54,-1
 718 1266 l 1,55,56
 701 1176 701 1176 632.5 1119.5 c 128,-1,57
 564 1063 564 1063 463 1063 c 0,58,59
 256 1063 256 1063 204 1271 c 1,47,-1
EndSplineSet
EndChar

StartChar: Aogonek
Encoding: 260 260 197
Width: 1453
Flags: W
LayerCount: 2
Fore
SplineSet
538 561 m 1,0,-1
 789 561 l 1,1,-1
 662 933 l 1,2,-1
 538 561 l 1,0,-1
1424 -2 m 1,3,4
 1360 -176 1360 -176 1494 -292 c 1,5,-1
 1470 -387 l 1,6,7
 1339 -379 1339 -379 1246.5 -329.5 c 128,-1,8
 1154 -280 1154 -280 1154 -208 c 128,-1,9
 1154 -136 1154 -136 1185 -93.5 c 128,-1,10
 1216 -51 1216 -51 1290 -2 c 1,11,-1
 716 -2 l 1,12,-1
 732 136 l 1,13,-1
 898 240 l 1,14,-1
 860 352 l 1,15,-1
 468 352 l 1,16,-1
 431 240 l 1,17,-1
 620 148 l 1,18,-1
 605 0 l 1,19,-1
 0 0 l 1,20,-1
 19 138 l 1,21,-1
 180 241 l 1,22,-1
 568 1205 l 1,23,-1
 915 1270 l 1,24,-1
 1305 238 l 1,25,-1
 1453 145 l 1,26,-1
 1441 -2 l 1,27,-1
 1424 -2 l 1,3,4
EndSplineSet
EndChar

StartChar: aogonek
Encoding: 261 261 198
Width: 932
Flags: W
LayerCount: 2
Fore
SplineSet
335 353 m 128,-1,1
 296 318 296 318 296 283 c 128,-1,2
 296 248 296 248 317.5 226.5 c 128,-1,3
 339 205 339 205 378 205 c 128,-1,4
 417 205 417 205 458 234 c 1,5,-1
 458 398 l 1,6,0
 374 388 374 388 335 353 c 128,-1,1
0 188 m 0,7,8
 0 328 0 328 122.5 420.5 c 128,-1,9
 245 513 245 513 458 512 c 1,10,-1
 458 607 l 2,11,12
 458 676 458 676 421 723 c 128,-1,13
 384 770 384 770 340 770 c 128,-1,14
 296 770 296 770 277.5 722.5 c 128,-1,15
 259 675 259 675 250 552 c 1,16,17
 88 552 88 552 50 616 c 0,18,19
 34 642 34 642 34 690.5 c 128,-1,20
 34 739 34 739 105 802 c 128,-1,21
 176 865 176 865 284.5 907 c 128,-1,22
 393 949 393 949 504.5 949 c 128,-1,23
 616 949 616 949 691 876 c 128,-1,24
 766 803 766 803 766 641 c 2,25,-1
 766 374 l 2,26,27
 766 285 766 285 783 254.5 c 128,-1,28
 800 224 800 224 864 210 c 2,29,-1
 892 204 l 1,30,-1
 868 39 l 1,31,-1
 899 39 l 1,32,33
 830 -148 830 -148 965 -264 c 1,34,-1
 940 -359 l 1,35,36
 809 -351 809 -351 716.5 -301.5 c 128,-1,37
 624 -252 624 -252 624 -168 c 128,-1,38
 624 -84 624 -84 693 -24 c 1,39,-1
 681 -24 l 2,40,41
 604 -24 604 -24 564 8 c 0,42,43
 524 41 524 41 494 119 c 1,44,-1
 481 125 l 1,45,46
 459 66 459 66 380 21.5 c 128,-1,47
 301 -23 301 -23 209 -23 c 128,-1,48
 117 -23 117 -23 58.5 29.5 c 128,-1,49
 0 82 0 82 0 188 c 0,7,8
EndSplineSet
EndChar

StartChar: Cacute
Encoding: 262 262 199
Width: 1242
Flags: W
LayerCount: 2
Fore
SplineSet
0 583 m 0,0,1
 0 788 0 788 96 952 c 0,2,3
 151 1046 151 1046 234.5 1115 c 128,-1,4
 318 1184 318 1184 455 1228 c 128,-1,5
 592 1272 592 1272 731.5 1272 c 128,-1,6
 871 1272 871 1272 989 1244 c 128,-1,7
 1107 1216 1107 1216 1162 1172 c 1,8,-1
 1131 748 l 1,9,-1
 961 771 l 1,10,-1
 897 1003 l 1,11,12
 864 1044 864 1044 810.5 1067 c 128,-1,13
 757 1090 757 1090 703 1090 c 0,14,15
 540 1090 540 1090 466 996.5 c 128,-1,16
 392 903 392 903 392 706 c 0,17,18
 392 205 392 205 809 205 c 0,19,20
 990 205 990 205 1135 313 c 1,21,-1
 1194 178 l 1,22,23
 1120 86 1120 86 989.5 28.5 c 128,-1,24
 859 -29 859 -29 680 -29 c 0,25,26
 338 -29 338 -29 169 131 c 128,-1,27
 0 291 0 291 0 583 c 0,0,1
655 1405 m 1,28,-1
 810 1730 l 1,29,-1
 1030 1716 l 1,30,-1
 799 1384 l 1,31,-1
 655 1405 l 1,28,-1
EndSplineSet
EndChar

StartChar: cacute
Encoding: 263 263 200
Width: 857
Flags: W
LayerCount: 2
Fore
SplineSet
0 426 m 0,0,1
 0 718 0 718 244 878 c 0,2,3
 380 967 380 967 521.5 967 c 128,-1,4
 663 967 663 967 743 898 c 128,-1,5
 823 829 823 829 823 736 c 128,-1,6
 823 643 823 643 767 601.5 c 128,-1,7
 711 560 711 560 621 550 c 1,8,9
 579 681 579 681 542 728.5 c 128,-1,10
 505 776 505 776 449 776 c 0,11,12
 333 776 333 776 333 515 c 0,13,14
 333 389 333 389 397.5 294.5 c 128,-1,15
 462 200 462 200 573 200 c 0,16,17
 650 200 650 200 701.5 216.5 c 128,-1,18
 753 233 753 233 817 271 c 1,19,-1
 857 167 l 1,20,21
 818 84 818 84 712.5 26.5 c 128,-1,22
 607 -31 607 -31 482 -31 c 0,23,24
 0 -31 0 -31 0 426 c 0,0,1
400 1100 m 1,25,-1
 555 1425 l 1,26,-1
 775 1411 l 1,27,-1
 544 1079 l 1,28,-1
 400 1100 l 1,25,-1
EndSplineSet
EndChar

StartChar: Cdotaccent
Encoding: 266 266 201
Width: 1242
Flags: W
LayerCount: 2
Fore
SplineSet
0 583 m 0,0,1
 0 788 0 788 96 952 c 0,2,3
 151 1046 151 1046 234.5 1115 c 128,-1,4
 318 1184 318 1184 455 1228 c 128,-1,5
 592 1272 592 1272 731.5 1272 c 128,-1,6
 871 1272 871 1272 989 1244 c 128,-1,7
 1107 1216 1107 1216 1162 1172 c 1,8,-1
 1131 748 l 1,9,-1
 961 771 l 1,10,-1
 897 1003 l 1,11,12
 864 1044 864 1044 810.5 1067 c 128,-1,13
 757 1090 757 1090 703 1090 c 0,14,15
 540 1090 540 1090 466 996.5 c 128,-1,16
 392 903 392 903 392 706 c 0,17,18
 392 205 392 205 809 205 c 0,19,20
 990 205 990 205 1135 313 c 1,21,-1
 1194 178 l 1,22,23
 1120 86 1120 86 989.5 28.5 c 128,-1,24
 859 -29 859 -29 680 -29 c 0,25,26
 338 -29 338 -29 169 131 c 128,-1,27
 0 291 0 291 0 583 c 0,0,1
480 1547 m 0,28,29
 480 1607 480 1607 529 1653.5 c 128,-1,30
 578 1700 578 1700 691.5 1700 c 128,-1,31
 805 1700 805 1700 856 1654.5 c 128,-1,32
 907 1609 907 1609 907 1550 c 0,33,34
 907 1394 907 1394 693.5 1394 c 128,-1,35
 480 1394 480 1394 480 1547 c 0,28,29
EndSplineSet
EndChar

StartChar: cdotaccent
Encoding: 267 267 202
Width: 857
Flags: W
LayerCount: 2
Fore
SplineSet
0 426 m 0,0,1
 0 718 0 718 244 878 c 0,2,3
 380 967 380 967 521.5 967 c 128,-1,4
 663 967 663 967 743 898 c 128,-1,5
 823 829 823 829 823 736 c 128,-1,6
 823 643 823 643 767 601.5 c 128,-1,7
 711 560 711 560 621 550 c 1,8,9
 579 681 579 681 542 728.5 c 128,-1,10
 505 776 505 776 449 776 c 0,11,12
 333 776 333 776 333 515 c 0,13,14
 333 389 333 389 397.5 294.5 c 128,-1,15
 462 200 462 200 573 200 c 0,16,17
 650 200 650 200 701.5 216.5 c 128,-1,18
 753 233 753 233 817 271 c 1,19,-1
 857 167 l 1,20,21
 818 84 818 84 712.5 26.5 c 128,-1,22
 607 -31 607 -31 482 -31 c 0,23,24
 0 -31 0 -31 0 426 c 0,0,1
244 1242 m 0,25,26
 244 1297 244 1297 277 1332 c 0,27,28
 338 1395 338 1395 454 1395 c 0,29,30
 620 1395 620 1395 661 1296 c 0,31,32
 671 1272 671 1272 671 1245 c 0,33,34
 671 1089 671 1089 457.5 1089 c 128,-1,35
 244 1089 244 1089 244 1242 c 0,25,26
EndSplineSet
EndChar

StartChar: Ccaron
Encoding: 268 268 203
Width: 1242
Flags: W
LayerCount: 2
Fore
SplineSet
0 583 m 0,0,1
 0 788 0 788 96 952 c 0,2,3
 151 1046 151 1046 234.5 1115 c 128,-1,4
 318 1184 318 1184 455 1228 c 128,-1,5
 592 1272 592 1272 731.5 1272 c 128,-1,6
 871 1272 871 1272 989 1244 c 128,-1,7
 1107 1216 1107 1216 1162 1172 c 1,8,-1
 1131 748 l 1,9,-1
 961 771 l 1,10,-1
 897 1003 l 1,11,12
 864 1044 864 1044 810.5 1067 c 128,-1,13
 757 1090 757 1090 703 1090 c 0,14,15
 540 1090 540 1090 466 996.5 c 128,-1,16
 392 903 392 903 392 706 c 0,17,18
 392 205 392 205 809 205 c 0,19,20
 990 205 990 205 1135 313 c 1,21,-1
 1194 178 l 1,22,23
 1120 86 1120 86 989.5 28.5 c 128,-1,24
 859 -29 859 -29 680 -29 c 0,25,26
 338 -29 338 -29 169 131 c 128,-1,27
 0 291 0 291 0 583 c 0,0,1
394 1600 m 1,28,-1
 579 1637 l 1,29,-1
 692 1552 l 1,30,-1
 702 1552 l 1,31,-1
 798 1634 l 1,32,-1
 970 1605 l 1,33,-1
 760 1404 l 1,34,-1
 602 1394 l 1,35,-1
 394 1600 l 1,28,-1
EndSplineSet
EndChar

StartChar: ccaron
Encoding: 269 269 204
Width: 857
Flags: W
LayerCount: 2
Fore
SplineSet
0 426 m 0,0,1
 0 718 0 718 244 878 c 0,2,3
 380 967 380 967 521.5 967 c 128,-1,4
 663 967 663 967 743 898 c 128,-1,5
 823 829 823 829 823 736 c 128,-1,6
 823 643 823 643 767 601.5 c 128,-1,7
 711 560 711 560 621 550 c 1,8,9
 579 681 579 681 542 728.5 c 128,-1,10
 505 776 505 776 449 776 c 0,11,12
 333 776 333 776 333 515 c 0,13,14
 333 389 333 389 397.5 294.5 c 128,-1,15
 462 200 462 200 573 200 c 0,16,17
 650 200 650 200 701.5 216.5 c 128,-1,18
 753 233 753 233 817 271 c 1,19,-1
 857 167 l 1,20,21
 818 84 818 84 712.5 26.5 c 128,-1,22
 607 -31 607 -31 482 -31 c 0,23,24
 0 -31 0 -31 0 426 c 0,0,1
179 1295 m 1,25,-1
 364 1332 l 1,26,-1
 477 1247 l 1,27,-1
 487 1247 l 1,28,-1
 583 1329 l 1,29,-1
 755 1300 l 1,30,-1
 545 1099 l 1,31,-1
 387 1089 l 1,32,-1
 179 1295 l 1,25,-1
EndSplineSet
EndChar

StartChar: Dcaron
Encoding: 270 270 205
Width: 1451
Flags: W
LayerCount: 2
Fore
SplineSet
573 202 m 1,0,-1
 648 202 l 2,1,2
 964 202 964 202 1030 459 c 0,3,4
 1046 523 1046 523 1046 591 c 128,-1,5
 1046 659 1046 659 1030.5 720.5 c 128,-1,6
 1015 782 1015 782 980 843.5 c 128,-1,7
 945 905 945 905 894 952 c 0,8,9
 780 1057 780 1057 591 1057 c 1,10,-1
 578 1056 l 2,11,12
 578 1055 578 1055 585 1053.5 c 128,-1,13
 592 1052 592 1052 584 1051.5 c 128,-1,14
 576 1051 576 1051 573 1051 c 1,15,-1
 573 202 l 1,0,-1
0 0 m 1,16,-1
 23 138 l 1,17,-1
 203 241 l 1,18,-1
 203 1003 l 1,19,-1
 30 1049 l 1,20,-1
 37 1206 l 1,21,22
 363 1258 363 1258 566.5 1258 c 128,-1,23
 770 1258 770 1258 886 1240.5 c 128,-1,24
 1002 1223 1002 1223 1086 1192 c 128,-1,25
 1170 1161 1170 1161 1234.5 1116 c 128,-1,26
 1299 1071 1299 1071 1339.5 1020 c 128,-1,27
 1380 969 1380 969 1406 906 c 0,28,29
 1451 795 1451 795 1451 659.5 c 128,-1,30
 1451 524 1451 524 1391.5 406 c 128,-1,31
 1332 288 1332 288 1226.5 198 c 128,-1,32
 1121 108 1121 108 962.5 54 c 128,-1,33
 804 0 804 0 618 0 c 2,34,-1
 0 0 l 1,16,-1
446 1597 m 1,35,-1
 632 1634 l 1,36,-1
 744 1549 l 1,37,-1
 754 1549 l 1,38,-1
 850 1631 l 1,39,-1
 1022 1602 l 1,40,-1
 812 1401 l 1,41,-1
 654 1391 l 1,42,-1
 446 1597 l 1,35,-1
EndSplineSet
EndChar

StartChar: dcaron
Encoding: 271 271 206
Width: 1692
Flags: W
LayerCount: 2
Fore
SplineSet
370 627 m 128,-1,1
 337 554 337 554 337 466.5 c 128,-1,2
 337 379 337 379 373 316 c 128,-1,3
 409 253 409 253 468 253 c 128,-1,4
 527 253 527 253 592 291 c 1,5,-1
 592 610 l 1,6,7
 517 700 517 700 460 700 c 128,-1,0
 403 700 403 700 370 627 c 128,-1,1
270 862.5 m 128,-1,9
 366 911 366 911 463 911 c 128,-1,10
 560 911 560 911 602 883 c 1,11,-1
 606 883 l 1,12,-1
 596 956 l 1,13,-1
 596 987 l 1,14,-1
 423 1088 l 1,15,-1
 448 1252 l 1,16,-1
 838 1279 l 1,17,-1
 898 1224 l 1,18,-1
 898 375 l 2,19,20
 898 300 898 300 924.5 270.5 c 128,-1,21
 951 241 951 241 1036 214 c 2,22,-1
 1064 205 l 1,23,-1
 1039 35 l 1,24,25
 915 -23 915 -23 803 -23 c 0,26,27
 651 -23 651 -23 601 107 c 2,28,-1
 596 120 l 1,29,-1
 583 126 l 1,30,31
 534 58 534 58 475.5 19.5 c 128,-1,32
 417 -19 417 -19 330.5 -19 c 128,-1,33
 244 -19 244 -19 181.5 12.5 c 128,-1,34
 119 44 119 44 80 98 c 0,35,36
 0 209 0 209 0 367 c 0,37,38
 0 575 0 575 116 735 c 0,39,8
 174 814 174 814 270 862.5 c 128,-1,9
974 727 m 1,40,41
 1055 754 1055 754 1097 804.5 c 128,-1,42
 1139 855 1139 855 1139 901 c 128,-1,43
 1139 947 1139 947 1114 971.5 c 128,-1,44
 1089 996 1089 996 1056.5 996 c 128,-1,45
 1024 996 1024 996 998 983 c 1,46,47
 967 1035 967 1035 967 1082 c 0,48,49
 967 1169 967 1169 1023 1216.5 c 128,-1,50
 1079 1264 1079 1264 1169 1264 c 0,51,52
 1412 1264 1412 1264 1412 998 c 0,53,54
 1412 868 1412 868 1318 757 c 0,55,56
 1217 637 1217 637 1018 609 c 1,57,-1
 974 727 l 1,40,41
EndSplineSet
EndChar

StartChar: Dcroat
Encoding: 272 272 207
Width: 1451
Flags: W
LayerCount: 2
Fore
SplineSet
573 202 m 1,0,-1
 648 202 l 2,1,2
 964 202 964 202 1030 459 c 0,3,4
 1046 523 1046 523 1046 591 c 128,-1,5
 1046 659 1046 659 1030.5 720.5 c 128,-1,6
 1015 782 1015 782 980 843.5 c 128,-1,7
 945 905 945 905 894 952 c 0,8,9
 780 1057 780 1057 591 1057 c 1,10,-1
 578 1056 l 2,11,12
 578 1055 578 1055 585 1053.5 c 128,-1,13
 592 1052 592 1052 584 1051.5 c 128,-1,14
 576 1051 576 1051 573 1051 c 1,15,-1
 573 712 l 1,16,-1
 771 737 l 1,17,-1
 752 548 l 1,18,-1
 573 536 l 1,19,-1
 573 202 l 1,0,-1
23 483 m 1,20,-1
 38 666 l 1,21,-1
 203 680 l 1,22,-1
 203 1003 l 1,23,-1
 30 1049 l 1,24,-1
 37 1206 l 1,25,26
 363 1258 363 1258 566.5 1258 c 128,-1,27
 770 1258 770 1258 886 1240.5 c 128,-1,28
 1002 1223 1002 1223 1086 1192 c 128,-1,29
 1170 1161 1170 1161 1234.5 1116 c 128,-1,30
 1299 1071 1299 1071 1339.5 1020 c 128,-1,31
 1380 969 1380 969 1406 906 c 0,32,33
 1451 795 1451 795 1451 659.5 c 128,-1,34
 1451 524 1451 524 1391.5 406 c 128,-1,35
 1332 288 1332 288 1226.5 198 c 128,-1,36
 1121 108 1121 108 962.5 54 c 128,-1,37
 804 0 804 0 618 0 c 2,38,-1
 0 0 l 1,39,-1
 23 138 l 1,40,-1
 203 241 l 1,41,-1
 203 499 l 1,42,-1
 23 483 l 1,20,-1
EndSplineSet
EndChar

StartChar: dcroat
Encoding: 273 273 208
Width: 1064
Flags: W
LayerCount: 2
Fore
SplineSet
370 627 m 128,-1,1
 337 554 337 554 337 466.5 c 128,-1,2
 337 379 337 379 373 316 c 128,-1,3
 409 253 409 253 468 253 c 128,-1,4
 527 253 527 253 592 291 c 1,5,-1
 592 610 l 1,6,7
 517 700 517 700 460 700 c 128,-1,0
 403 700 403 700 370 627 c 128,-1,1
270 862.5 m 128,-1,9
 366 911 366 911 463 911 c 128,-1,10
 560 911 560 911 602 883 c 1,11,-1
 606 883 l 1,12,-1
 596 956 l 1,13,-1
 596 972 l 1,14,-1
 423 1073 l 1,15,-1
 448 1237 l 1,16,-1
 838 1264 l 1,17,-1
 898 1209 l 1,18,-1
 898 1061 l 1,19,-1
 1049 1061 l 1,20,-1
 1031 856 l 1,21,-1
 898 856 l 1,22,-1
 898 375 l 2,23,24
 898 300 898 300 924.5 270.5 c 128,-1,25
 951 241 951 241 1036 214 c 2,26,-1
 1064 205 l 1,27,-1
 1039 35 l 1,28,29
 915 -23 915 -23 803 -23 c 0,30,31
 651 -23 651 -23 601 107 c 2,32,-1
 596 120 l 1,33,-1
 583 126 l 1,34,35
 534 58 534 58 475.5 19.5 c 128,-1,36
 417 -19 417 -19 330.5 -19 c 128,-1,37
 244 -19 244 -19 181.5 12.5 c 128,-1,38
 119 44 119 44 80 98 c 0,39,40
 0 209 0 209 0 367 c 0,41,42
 0 575 0 575 116 735 c 0,43,8
 174 814 174 814 270 862.5 c 128,-1,9
EndSplineSet
EndChar

StartChar: Emacron
Encoding: 274 274 209
Width: 1237
Flags: W
LayerCount: 2
Fore
SplineSet
0 1100 m 1,0,-1
 19 1244 l 1,1,-1
 1192 1244 l 1,2,-1
 1162 826 l 1,3,-1
 991 852 l 1,4,-1
 908 1072 l 1,5,-1
 563 1072 l 1,6,-1
 563 712 l 1,7,-1
 696 723 l 1,8,-1
 982 746 l 1,9,-1
 949 470 l 1,10,-1
 563 540 l 1,11,-1
 563 210 l 1,12,-1
 926 170 l 1,13,-1
 1072 428 l 1,14,-1
 1237 411 l 1,15,-1
 1207 0 l 1,16,-1
 16 0 l 1,17,-1
 26 138 l 1,18,-1
 190 217 l 1,19,-1
 190 1030 l 1,20,-1
 0 1100 l 1,0,-1
428 1391 m 1,21,-1
 450 1586 l 1,22,-1
 902 1586 l 1,23,-1
 880 1391 l 1,24,-1
 428 1391 l 1,21,-1
EndSplineSet
EndChar

StartChar: emacron
Encoding: 275 275 210
Width: 845
Flags: W
LayerCount: 2
Fore
SplineSet
319 506 m 1,0,-1
 495 529 l 1,1,2
 501 547 501 547 501 604.5 c 128,-1,3
 501 662 501 662 481 702.5 c 128,-1,4
 461 743 461 743 414.5 743 c 128,-1,5
 368 743 368 743 342.5 676 c 128,-1,6
 317 609 317 609 319 506 c 1,0,-1
328 387 m 1,7,8
 340 199 340 199 578 199 c 0,9,10
 729 199 729 199 826 255 c 1,11,-1
 845 122 l 1,12,13
 802 65 802 65 724 29 c 0,14,15
 594 -31 594 -31 414 -31 c 128,-1,16
 234 -31 234 -31 117 88 c 128,-1,17
 0 207 0 207 0 430 c 0,18,19
 0 540 0 540 42.5 638.5 c 128,-1,20
 85 737 85 737 153.5 804.5 c 128,-1,21
 222 872 222 872 311 911 c 128,-1,22
 400 950 400 950 491 950 c 0,23,24
 651 950 651 950 739 847.5 c 128,-1,25
 827 745 827 745 827 580 c 0,26,27
 827 510 827 510 806 401 c 1,28,-1
 328 387 l 1,7,8
204 1073 m 1,29,-1
 225 1268 l 1,30,-1
 678 1268 l 1,31,-1
 656 1073 l 1,32,-1
 204 1073 l 1,29,-1
EndSplineSet
EndChar

StartChar: Edotaccent
Encoding: 278 278 211
Width: 1237
Flags: W
LayerCount: 2
Fore
SplineSet
0 1100 m 1,0,-1
 19 1244 l 1,1,-1
 1192 1244 l 1,2,-1
 1162 826 l 1,3,-1
 991 852 l 1,4,-1
 908 1072 l 1,5,-1
 563 1072 l 1,6,-1
 563 712 l 1,7,-1
 696 723 l 1,8,-1
 982 746 l 1,9,-1
 949 470 l 1,10,-1
 563 540 l 1,11,-1
 563 210 l 1,12,-1
 926 170 l 1,13,-1
 1072 428 l 1,14,-1
 1237 411 l 1,15,-1
 1207 0 l 1,16,-1
 16 0 l 1,17,-1
 26 138 l 1,18,-1
 190 217 l 1,19,-1
 190 1030 l 1,20,-1
 0 1100 l 1,0,-1
452 1544 m 0,21,22
 452 1604 452 1604 501.5 1650.5 c 128,-1,23
 551 1697 551 1697 664.5 1697 c 128,-1,24
 778 1697 778 1697 828.5 1651.5 c 128,-1,25
 879 1606 879 1606 879 1547 c 0,26,27
 879 1391 879 1391 665.5 1391 c 128,-1,28
 452 1391 452 1391 452 1544 c 0,21,22
EndSplineSet
EndChar

StartChar: edotaccent
Encoding: 279 279 212
Width: 845
Flags: W
LayerCount: 2
Fore
SplineSet
319 506 m 1,0,-1
 495 529 l 1,1,2
 501 547 501 547 501 604.5 c 128,-1,3
 501 662 501 662 481 702.5 c 128,-1,4
 461 743 461 743 414.5 743 c 128,-1,5
 368 743 368 743 342.5 676 c 128,-1,6
 317 609 317 609 319 506 c 1,0,-1
328 387 m 1,7,8
 340 199 340 199 578 199 c 0,9,10
 729 199 729 199 826 255 c 1,11,-1
 845 122 l 1,12,13
 802 65 802 65 724 29 c 0,14,15
 594 -31 594 -31 414 -31 c 128,-1,16
 234 -31 234 -31 117 88 c 128,-1,17
 0 207 0 207 0 430 c 0,18,19
 0 540 0 540 42.5 638.5 c 128,-1,20
 85 737 85 737 153.5 804.5 c 128,-1,21
 222 872 222 872 311 911 c 128,-1,22
 400 950 400 950 491 950 c 0,23,24
 651 950 651 950 739 847.5 c 128,-1,25
 827 745 827 745 827 580 c 0,26,27
 827 510 827 510 806 401 c 1,28,-1
 328 387 l 1,7,8
218 1226 m 0,29,30
 218 1286 218 1286 267 1332.5 c 128,-1,31
 316 1379 316 1379 429.5 1379 c 128,-1,32
 543 1379 543 1379 594 1333.5 c 128,-1,33
 645 1288 645 1288 645 1229 c 0,34,35
 645 1073 645 1073 431.5 1073 c 128,-1,36
 218 1073 218 1073 218 1226 c 0,29,30
EndSplineSet
EndChar

StartChar: Eogonek
Encoding: 280 280 213
Width: 1237
Flags: W
LayerCount: 2
Fore
SplineSet
0 1100 m 1,0,-1
 19 1244 l 1,1,-1
 1192 1244 l 1,2,-1
 1162 826 l 1,3,-1
 991 852 l 1,4,-1
 908 1072 l 1,5,-1
 563 1072 l 1,6,-1
 563 712 l 1,7,-1
 696 723 l 1,8,-1
 982 746 l 1,9,-1
 949 470 l 1,10,-1
 563 540 l 1,11,-1
 563 210 l 1,12,-1
 926 170 l 1,13,-1
 1072 428 l 1,14,-1
 1237 411 l 1,15,-1
 1207 0 l 1,16,-1
 773 0 l 1,17,18
 714 -178 714 -178 844 -290 c 1,19,-1
 818 -385 l 1,20,21
 687 -377 687 -377 594.5 -327.5 c 128,-1,22
 502 -278 502 -278 502 -206 c 128,-1,23
 502 -134 502 -134 533.5 -91.5 c 128,-1,24
 565 -49 565 -49 639 0 c 1,25,-1
 16 0 l 1,26,-1
 26 138 l 1,27,-1
 190 217 l 1,28,-1
 190 1030 l 1,29,-1
 0 1100 l 1,0,-1
EndSplineSet
EndChar

StartChar: eogonek
Encoding: 281 281 214
Width: 845
Flags: W
LayerCount: 2
Fore
SplineSet
319 506 m 1,0,-1
 495 529 l 1,1,2
 501 547 501 547 501 604.5 c 128,-1,3
 501 662 501 662 481 702.5 c 128,-1,4
 461 743 461 743 414.5 743 c 128,-1,5
 368 743 368 743 342.5 676 c 128,-1,6
 317 609 317 609 319 506 c 1,0,-1
328 387 m 1,7,8
 340 199 340 199 578 199 c 0,9,10
 729 199 729 199 826 255 c 1,11,-1
 845 122 l 1,12,13
 765 15 765 15 576 -18 c 1,14,15
 523 -189 523 -189 650 -298 c 1,16,-1
 625 -393 l 1,17,18
 494 -385 494 -385 401.5 -335.5 c 128,-1,19
 309 -286 309 -286 309 -204 c 0,20,21
 309 -149 309 -149 333 -110 c 128,-1,22
 357 -71 357 -71 412 -31 c 1,23,24
 224 -26 224 -26 112 92.5 c 128,-1,25
 0 211 0 211 0 430 c 0,26,27
 0 540 0 540 42.5 638.5 c 128,-1,28
 85 737 85 737 153.5 804.5 c 128,-1,29
 222 872 222 872 311 911 c 128,-1,30
 400 950 400 950 491 950 c 0,31,32
 651 950 651 950 739 847.5 c 128,-1,33
 827 745 827 745 827 580 c 0,34,35
 827 510 827 510 806 401 c 1,36,-1
 328 387 l 1,7,8
EndSplineSet
EndChar

StartChar: Ecaron
Encoding: 282 282 215
Width: 1237
Flags: W
LayerCount: 2
Fore
SplineSet
0 1100 m 1,0,-1
 19 1244 l 1,1,-1
 1192 1244 l 1,2,-1
 1162 826 l 1,3,-1
 991 852 l 1,4,-1
 908 1072 l 1,5,-1
 563 1072 l 1,6,-1
 563 712 l 1,7,-1
 696 723 l 1,8,-1
 982 746 l 1,9,-1
 949 470 l 1,10,-1
 563 540 l 1,11,-1
 563 210 l 1,12,-1
 926 170 l 1,13,-1
 1072 428 l 1,14,-1
 1237 411 l 1,15,-1
 1207 0 l 1,16,-1
 16 0 l 1,17,-1
 26 138 l 1,18,-1
 190 217 l 1,19,-1
 190 1030 l 1,20,-1
 0 1100 l 1,0,-1
386 1597 m 1,21,-1
 572 1634 l 1,22,-1
 684 1549 l 1,23,-1
 694 1549 l 1,24,-1
 790 1631 l 1,25,-1
 962 1602 l 1,26,-1
 752 1401 l 1,27,-1
 594 1391 l 1,28,-1
 386 1597 l 1,21,-1
EndSplineSet
EndChar

StartChar: ecaron
Encoding: 283 283 216
Width: 845
Flags: W
LayerCount: 2
Fore
SplineSet
319 506 m 1,0,-1
 495 529 l 1,1,2
 501 547 501 547 501 604.5 c 128,-1,3
 501 662 501 662 481 702.5 c 128,-1,4
 461 743 461 743 414.5 743 c 128,-1,5
 368 743 368 743 342.5 676 c 128,-1,6
 317 609 317 609 319 506 c 1,0,-1
328 387 m 1,7,8
 340 199 340 199 578 199 c 0,9,10
 729 199 729 199 826 255 c 1,11,-1
 845 122 l 1,12,13
 802 65 802 65 724 29 c 0,14,15
 594 -31 594 -31 414 -31 c 128,-1,16
 234 -31 234 -31 117 88 c 128,-1,17
 0 207 0 207 0 430 c 0,18,19
 0 540 0 540 42.5 638.5 c 128,-1,20
 85 737 85 737 153.5 804.5 c 128,-1,21
 222 872 222 872 311 911 c 128,-1,22
 400 950 400 950 491 950 c 0,23,24
 651 950 651 950 739 847.5 c 128,-1,25
 827 745 827 745 827 580 c 0,26,27
 827 510 827 510 806 401 c 1,28,-1
 328 387 l 1,7,8
162 1279 m 1,29,-1
 347 1316 l 1,30,-1
 460 1231 l 1,31,-1
 470 1231 l 1,32,-1
 566 1313 l 1,33,-1
 738 1284 l 1,34,-1
 528 1083 l 1,35,-1
 370 1073 l 1,36,-1
 162 1279 l 1,29,-1
EndSplineSet
EndChar

StartChar: Gbreve
Encoding: 286 286 217
Width: 1391
Flags: W
LayerCount: 2
Fore
SplineSet
0 580 m 0,0,1
 0 710 0 710 43 823 c 128,-1,2
 86 936 86 936 160 1017 c 128,-1,3
 234 1098 234 1098 332 1156 c 0,4,5
 525 1271 525 1271 761 1271 c 0,6,7
 927 1271 927 1271 1057 1242 c 0,8,9
 1090 1234 1090 1234 1166 1210 c 2,10,-1
 1242 1185 l 1,11,-1
 1201 746 l 1,12,-1
 1013 761 l 1,13,-1
 972 979 l 1,14,15
 922 1030 922 1030 862.5 1058.5 c 128,-1,16
 803 1087 803 1087 714 1087 c 0,17,18
 564 1087 564 1087 486 994 c 128,-1,19
 408 901 408 901 408 683 c 128,-1,20
 408 465 408 465 494 322 c 128,-1,21
 580 179 580 179 724 179 c 0,22,23
 833 179 833 179 909 235 c 1,24,-1
 909 355 l 1,25,-1
 688 419 l 1,26,-1
 711 591 l 1,27,-1
 1371 591 l 1,28,-1
 1350 435 l 1,29,-1
 1245 363 l 1,30,-1
 1245 93 l 1,31,32
 1180 51 1180 51 1018.5 13.5 c 128,-1,33
 857 -24 857 -24 740 -24 c 0,34,35
 372 -24 372 -24 186 129.5 c 128,-1,36
 0 283 0 283 0 580 c 0,0,1
434 1601 m 1,37,-1
 613 1637 l 1,38,39
 618 1611 618 1611 637 1590.5 c 128,-1,40
 656 1570 656 1570 687 1570 c 128,-1,41
 718 1570 718 1570 735.5 1581.5 c 128,-1,42
 753 1593 753 1593 759.5 1604.5 c 128,-1,43
 766 1616 766 1616 775 1637 c 1,44,-1
 948 1596 l 1,45,46
 931 1506 931 1506 862.5 1449.5 c 128,-1,47
 794 1393 794 1393 693 1393 c 0,48,49
 486 1393 486 1393 434 1601 c 1,37,-1
EndSplineSet
EndChar

StartChar: gbreve
Encoding: 287 287 218
Width: 1017
Flags: W
LayerCount: 2
Fore
SplineSet
371 645 m 0,0,1
 371 506 371 506 466 465 c 1,2,3
 465 464 465 464 463 464 c 1,4,5
 529 464 529 464 548.5 497 c 128,-1,6
 568 530 568 530 568 638 c 0,7,8
 568 668 568 668 552 716 c 0,9,10
 521 814 521 814 450 814 c 0,11,12
 416 814 416 814 393.5 775 c 128,-1,13
 371 736 371 736 371 645 c 0,0,1
278 -79 m 0,14,15
 278 -207 278 -207 463.5 -207 c 128,-1,16
 649 -207 649 -207 649 -103 c 0,17,18
 649 -49 649 -49 612.5 -23 c 128,-1,19
 576 3 576 3 492 3 c 2,20,-1
 295 3 l 1,21,22
 278 -43 278 -43 278 -79 c 0,14,15
27.5 -248.5 m 128,-1,24
 0 -205 0 -205 0 -155 c 128,-1,25
 0 -105 0 -105 43 -58 c 128,-1,26
 86 -11 86 -11 158 5 c 1,27,-1
 158 22 l 1,28,29
 110 45 110 45 87 80 c 128,-1,30
 64 115 64 115 64 175 c 128,-1,31
 64 235 64 235 126 287 c 128,-1,32
 188 339 188 339 259 355 c 1,33,-1
 256 373 l 1,34,35
 199 396 199 396 146 469 c 128,-1,36
 93 542 93 542 93 623 c 0,37,38
 93 750 93 750 197.5 847 c 128,-1,39
 302 944 302 944 470.5 944 c 128,-1,40
 639 944 639 944 751 881 c 1,41,-1
 987 913 l 1,42,-1
 1017 879 l 1,43,-1
 972 686 l 1,44,-1
 938 682 l 1,45,-1
 848 710 l 1,46,-1
 843 705 l 1,47,48
 846 679 846 679 846 655 c 0,49,50
 846 554 846 554 795 480 c 0,51,52
 695 333 695 333 480 333 c 0,53,54
 468 333 468 333 412 341 c 1,55,56
 387 314 387 314 387 290 c 0,57,58
 387 240 387 240 483 240 c 2,59,-1
 620 240 l 2,60,61
 792 240 792 240 876 181.5 c 128,-1,62
 960 123 960 123 960 -4 c 0,63,64
 960 -146 960 -146 812 -262 c 0,65,66
 741 -317 741 -317 630 -351 c 128,-1,67
 519 -385 519 -385 429.5 -385 c 128,-1,68
 340 -385 340 -385 293 -379.5 c 128,-1,69
 246 -374 246 -374 191.5 -358 c 128,-1,70
 137 -342 137 -342 96 -317 c 128,-1,23
 55 -292 55 -292 27.5 -248.5 c 128,-1,24
215 1281 m 1,71,-1
 394 1317 l 1,72,73
 399 1291 399 1291 418 1270.5 c 128,-1,74
 437 1250 437 1250 468 1250 c 128,-1,75
 499 1250 499 1250 516.5 1261.5 c 128,-1,76
 534 1273 534 1273 540.5 1284.5 c 128,-1,77
 547 1296 547 1296 556 1317 c 1,78,-1
 729 1276 l 1,79,80
 712 1186 712 1186 643.5 1129.5 c 128,-1,81
 575 1073 575 1073 474 1073 c 0,82,83
 267 1073 267 1073 215 1281 c 1,71,-1
EndSplineSet
EndChar

StartChar: Gdotaccent
Encoding: 288 288 219
Width: 1391
Flags: W
LayerCount: 2
Fore
SplineSet
0 580 m 0,0,1
 0 710 0 710 43 823 c 128,-1,2
 86 936 86 936 160 1017 c 128,-1,3
 234 1098 234 1098 332 1156 c 0,4,5
 525 1271 525 1271 761 1271 c 0,6,7
 927 1271 927 1271 1057 1242 c 0,8,9
 1090 1234 1090 1234 1166 1210 c 2,10,-1
 1242 1185 l 1,11,-1
 1201 746 l 1,12,-1
 1013 761 l 1,13,-1
 972 979 l 1,14,15
 922 1030 922 1030 862.5 1058.5 c 128,-1,16
 803 1087 803 1087 714 1087 c 0,17,18
 564 1087 564 1087 486 994 c 128,-1,19
 408 901 408 901 408 683 c 128,-1,20
 408 465 408 465 494 322 c 128,-1,21
 580 179 580 179 724 179 c 0,22,23
 833 179 833 179 909 235 c 1,24,-1
 909 355 l 1,25,-1
 688 419 l 1,26,-1
 711 591 l 1,27,-1
 1371 591 l 1,28,-1
 1350 435 l 1,29,-1
 1245 363 l 1,30,-1
 1245 93 l 1,31,32
 1180 51 1180 51 1018.5 13.5 c 128,-1,33
 857 -24 857 -24 740 -24 c 0,34,35
 372 -24 372 -24 186 129.5 c 128,-1,36
 0 283 0 283 0 580 c 0,0,1
498 1546 m 0,37,38
 498 1606 498 1606 547 1652.5 c 128,-1,39
 596 1699 596 1699 709.5 1699 c 128,-1,40
 823 1699 823 1699 874 1653.5 c 128,-1,41
 925 1608 925 1608 925 1549 c 0,42,43
 925 1393 925 1393 711.5 1393 c 128,-1,44
 498 1393 498 1393 498 1546 c 0,37,38
EndSplineSet
EndChar

StartChar: gdotaccent
Encoding: 289 289 220
Width: 1017
Flags: W
LayerCount: 2
Fore
SplineSet
371 645 m 0,0,1
 371 506 371 506 466 465 c 1,2,3
 465 464 465 464 463 464 c 1,4,5
 529 464 529 464 548.5 497 c 128,-1,6
 568 530 568 530 568 638 c 0,7,8
 568 668 568 668 552 716 c 0,9,10
 521 814 521 814 450 814 c 0,11,12
 416 814 416 814 393.5 775 c 128,-1,13
 371 736 371 736 371 645 c 0,0,1
278 -79 m 0,14,15
 278 -207 278 -207 463.5 -207 c 128,-1,16
 649 -207 649 -207 649 -103 c 0,17,18
 649 -49 649 -49 612.5 -23 c 128,-1,19
 576 3 576 3 492 3 c 2,20,-1
 295 3 l 1,21,22
 278 -43 278 -43 278 -79 c 0,14,15
27.5 -248.5 m 128,-1,24
 0 -205 0 -205 0 -155 c 128,-1,25
 0 -105 0 -105 43 -58 c 128,-1,26
 86 -11 86 -11 158 5 c 1,27,-1
 158 22 l 1,28,29
 110 45 110 45 87 80 c 128,-1,30
 64 115 64 115 64 175 c 128,-1,31
 64 235 64 235 126 287 c 128,-1,32
 188 339 188 339 259 355 c 1,33,-1
 256 373 l 1,34,35
 199 396 199 396 146 469 c 128,-1,36
 93 542 93 542 93 623 c 0,37,38
 93 750 93 750 197.5 847 c 128,-1,39
 302 944 302 944 470.5 944 c 128,-1,40
 639 944 639 944 751 881 c 1,41,-1
 987 913 l 1,42,-1
 1017 879 l 1,43,-1
 972 686 l 1,44,-1
 938 682 l 1,45,-1
 848 710 l 1,46,-1
 843 705 l 1,47,48
 846 679 846 679 846 655 c 0,49,50
 846 554 846 554 795 480 c 0,51,52
 695 333 695 333 480 333 c 0,53,54
 468 333 468 333 412 341 c 1,55,56
 387 314 387 314 387 290 c 0,57,58
 387 240 387 240 483 240 c 2,59,-1
 620 240 l 2,60,61
 792 240 792 240 876 181.5 c 128,-1,62
 960 123 960 123 960 -4 c 0,63,64
 960 -146 960 -146 812 -262 c 0,65,66
 741 -317 741 -317 630 -351 c 128,-1,67
 519 -385 519 -385 429.5 -385 c 128,-1,68
 340 -385 340 -385 293 -379.5 c 128,-1,69
 246 -374 246 -374 191.5 -358 c 128,-1,70
 137 -342 137 -342 96 -317 c 128,-1,23
 55 -292 55 -292 27.5 -248.5 c 128,-1,24
238 1226 m 0,71,72
 238 1281 238 1281 271 1316 c 0,73,74
 332 1379 332 1379 448 1379 c 0,75,76
 614 1379 614 1379 655 1280 c 0,77,78
 665 1256 665 1256 665 1229 c 0,79,80
 665 1073 665 1073 451.5 1073 c 128,-1,81
 238 1073 238 1073 238 1226 c 0,71,72
EndSplineSet
EndChar

StartChar: Gcommaaccent
Encoding: 290 290 221
Width: 1391
Flags: W
LayerCount: 2
Fore
SplineSet
0 580 m 0,0,1
 0 710 0 710 43 823 c 128,-1,2
 86 936 86 936 160 1017 c 128,-1,3
 234 1098 234 1098 332 1156 c 0,4,5
 525 1271 525 1271 761 1271 c 0,6,7
 927 1271 927 1271 1057 1242 c 0,8,9
 1090 1234 1090 1234 1166 1210 c 2,10,-1
 1242 1185 l 1,11,-1
 1201 746 l 1,12,-1
 1013 761 l 1,13,-1
 972 979 l 1,14,15
 922 1030 922 1030 862.5 1058.5 c 128,-1,16
 803 1087 803 1087 714 1087 c 0,17,18
 564 1087 564 1087 486 994 c 128,-1,19
 408 901 408 901 408 683 c 128,-1,20
 408 465 408 465 494 322 c 128,-1,21
 580 179 580 179 724 179 c 0,22,23
 833 179 833 179 909 235 c 1,24,-1
 909 355 l 1,25,-1
 688 419 l 1,26,-1
 711 591 l 1,27,-1
 1371 591 l 1,28,-1
 1350 435 l 1,29,-1
 1245 363 l 1,30,-1
 1245 93 l 1,31,32
 1180 51 1180 51 1018.5 13.5 c 128,-1,33
 857 -24 857 -24 740 -24 c 0,34,35
 372 -24 372 -24 186 129.5 c 128,-1,36
 0 283 0 283 0 580 c 0,0,1
560 -272 m 1,37,38
 583 -146 583 -146 760 -146 c 0,39,40
 836 -146 836 -146 882 -181 c 128,-1,41
 928 -216 928 -216 928 -278 c 128,-1,42
 928 -340 928 -340 877 -382 c 0,43,44
 778 -462 778 -462 586 -451 c 1,45,-1
 564 -391 l 1,46,47
 604 -385 604 -385 638 -367 c 128,-1,48
 672 -349 672 -349 672 -328.5 c 128,-1,49
 672 -308 672 -308 637 -293 c 128,-1,50
 602 -278 602 -278 560 -272 c 1,37,38
EndSplineSet
EndChar

StartChar: gcommaaccent
Encoding: 291 291 222
Width: 1017
Flags: W
LayerCount: 2
Fore
SplineSet
371 645 m 0,0,1
 371 506 371 506 466 465 c 1,2,3
 465 464 465 464 463 464 c 1,4,5
 529 464 529 464 548.5 497 c 128,-1,6
 568 530 568 530 568 638 c 0,7,8
 568 668 568 668 552 716 c 0,9,10
 521 814 521 814 450 814 c 0,11,12
 416 814 416 814 393.5 775 c 128,-1,13
 371 736 371 736 371 645 c 0,0,1
278 -79 m 0,14,15
 278 -207 278 -207 463.5 -207 c 128,-1,16
 649 -207 649 -207 649 -103 c 0,17,18
 649 -49 649 -49 612.5 -23 c 128,-1,19
 576 3 576 3 492 3 c 2,20,-1
 295 3 l 1,21,22
 278 -43 278 -43 278 -79 c 0,14,15
27.5 -248.5 m 128,-1,24
 0 -205 0 -205 0 -155 c 128,-1,25
 0 -105 0 -105 43 -58 c 128,-1,26
 86 -11 86 -11 158 5 c 1,27,-1
 158 22 l 1,28,29
 110 45 110 45 87 80 c 128,-1,30
 64 115 64 115 64 175 c 128,-1,31
 64 235 64 235 126 287 c 128,-1,32
 188 339 188 339 259 355 c 1,33,-1
 256 373 l 1,34,35
 199 396 199 396 146 469 c 128,-1,36
 93 542 93 542 93 623 c 0,37,38
 93 750 93 750 197.5 847 c 128,-1,39
 302 944 302 944 470.5 944 c 128,-1,40
 639 944 639 944 751 881 c 1,41,-1
 987 913 l 1,42,-1
 1017 879 l 1,43,-1
 972 686 l 1,44,-1
 938 682 l 1,45,-1
 848 710 l 1,46,-1
 843 705 l 1,47,48
 846 679 846 679 846 655 c 0,49,50
 846 554 846 554 795 480 c 0,51,52
 695 333 695 333 480 333 c 0,53,54
 468 333 468 333 412 341 c 1,55,56
 387 314 387 314 387 290 c 0,57,58
 387 240 387 240 483 240 c 2,59,-1
 620 240 l 2,60,61
 792 240 792 240 876 181.5 c 128,-1,62
 960 123 960 123 960 -4 c 0,63,64
 960 -146 960 -146 812 -262 c 0,65,66
 741 -317 741 -317 630 -351 c 128,-1,67
 519 -385 519 -385 429.5 -385 c 128,-1,68
 340 -385 340 -385 293 -379.5 c 128,-1,69
 246 -374 246 -374 191.5 -358 c 128,-1,70
 137 -342 137 -342 96 -317 c 128,-1,23
 55 -292 55 -292 27.5 -248.5 c 128,-1,24
692 1167 m 1,71,72
 669 1041 669 1041 492 1041 c 0,73,74
 416 1041 416 1041 370 1076 c 128,-1,75
 324 1111 324 1111 324 1173 c 128,-1,76
 324 1235 324 1235 375 1276 c 0,77,78
 474 1357 474 1357 666 1346 c 1,79,-1
 688 1286 l 1,80,81
 648 1280 648 1280 614 1262 c 128,-1,82
 580 1244 580 1244 580 1223.5 c 128,-1,83
 580 1203 580 1203 615 1188 c 128,-1,84
 650 1173 650 1173 692 1167 c 1,71,72
EndSplineSet
EndChar

StartChar: Hbar
Encoding: 294 294 223
Width: 1570
Flags: W
LayerCount: 2
Fore
SplineSet
1006 837 m 1,0,-1
 559 837 l 1,1,-1
 559 744 l 1,2,-1
 1006 744 l 1,3,-1
 1006 837 l 1,0,-1
15 772 m 1,4,-1
 27 976 l 1,5,-1
 186 976 l 1,6,-1
 186 1020 l 1,7,-1
 0 1094 l 1,8,-1
 25 1244 l 1,9,-1
 745 1244 l 1,10,-1
 726 1094 l 1,11,-1
 559 1027 l 1,12,-1
 559 937 l 1,13,-1
 1006 937 l 1,14,-1
 1006 1020 l 1,15,-1
 825 1094 l 1,16,-1
 842 1244 l 1,17,-1
 1570 1244 l 1,18,-1
 1551 1094 l 1,19,-1
 1383 1027 l 1,20,-1
 1383 976 l 1,21,-1
 1541 976 l 1,22,-1
 1531 772 l 1,23,-1
 1383 772 l 1,24,-1
 1383 211 l 1,25,-1
 1562 148 l 1,26,-1
 1548 0 l 1,27,-1
 825 0 l 1,28,-1
 839 138 l 1,29,-1
 1006 217 l 1,30,-1
 1006 493 l 1,31,-1
 559 493 l 1,32,-1
 559 211 l 1,33,-1
 740 148 l 1,34,-1
 722 0 l 1,35,-1
 5 0 l 1,36,-1
 17 138 l 1,37,-1
 186 217 l 1,38,-1
 186 772 l 1,39,-1
 15 772 l 1,4,-1
EndSplineSet
EndChar

StartChar: hbar
Encoding: 295 295 224
Width: 1176
Flags: W
LayerCount: 2
Fore
SplineSet
15 -2 m 1,0,-1
 32 155 l 1,1,-1
 174 227 l 1,2,-1
 174 982 l 1,3,-1
 0 1083 l 1,4,-1
 25 1247 l 1,5,-1
 415 1274 l 1,6,-1
 475 1219 l 1,7,-1
 475 1141 l 1,8,-1
 813 1141 l 1,9,-1
 807 989 l 1,10,-1
 475 989 l 1,11,-1
 475 898 l 1,12,-1
 455 765 l 1,13,-1
 470 759 l 1,14,15
 631 927 631 927 771 927 c 0,16,17
 887 927 887 927 952 857.5 c 128,-1,18
 1017 788 1017 788 1017 639 c 2,19,-1
 1017 227 l 1,20,-1
 1165 163 l 1,21,-1
 1142 -2 l 1,22,-1
 706 -2 l 1,23,-1
 706 427 l 2,24,25
 706 520 706 520 682.5 560 c 128,-1,26
 659 600 659 600 604 600 c 128,-1,27
 549 600 549 600 492 550 c 1,28,-1
 492 227 l 1,29,-1
 605 164 l 1,30,-1
 577 -2 l 1,31,-1
 15 -2 l 1,0,-1
EndSplineSet
EndChar

StartChar: Imacron
Encoding: 298 298 225
Width: 757
Flags: W
LayerCount: 2
Fore
SplineSet
0 1094 m 1,0,-1
 20 1244 l 1,1,-1
 747 1244 l 1,2,-1
 731 1084 l 1,3,-1
 552 1017 l 1,4,-1
 552 223 l 1,5,-1
 732 160 l 1,6,-1
 719 0 l 1,7,-1
 2 0 l 1,8,-1
 12 142 l 1,9,-1
 188 221 l 1,10,-1
 188 1020 l 1,11,-1
 0 1094 l 1,0,-1
146 1391 m 1,12,-1
 168 1586 l 1,13,-1
 620 1586 l 1,14,-1
 598 1391 l 1,15,-1
 146 1391 l 1,12,-1
EndSplineSet
EndChar

StartChar: imacron
Encoding: 299 299 226
Width: 638
Flags: W
LayerCount: 2
Fore
SplineSet
0 0 m 1,0,-1
 8 176 l 1,1,-1
 162 230 l 1,2,-1
 162 571 l 1,3,-1
 14 676 l 1,4,-1
 47 854 l 1,5,-1
 420 880 l 1,6,-1
 476 819 l 1,7,-1
 476 230 l 1,8,-1
 638 174 l 1,9,-1
 627 0 l 1,10,-1
 0 0 l 1,0,-1
82 1073 m 1,11,-1
 103 1268 l 1,12,-1
 556 1268 l 1,13,-1
 534 1073 l 1,14,-1
 82 1073 l 1,11,-1
EndSplineSet
EndChar

StartChar: Iogonek
Encoding: 302 302 227
Width: 757
Flags: W
LayerCount: 2
Fore
SplineSet
708 0 m 1,0,1
 644 -174 644 -174 778 -290 c 1,2,-1
 754 -385 l 1,3,4
 623 -377 623 -377 530.5 -327.5 c 128,-1,5
 438 -278 438 -278 438 -206 c 128,-1,6
 438 -134 438 -134 469 -91.5 c 128,-1,7
 500 -49 500 -49 574 0 c 1,8,-1
 2 0 l 1,9,-1
 12 142 l 1,10,-1
 188 221 l 1,11,-1
 188 1020 l 1,12,-1
 0 1094 l 1,13,-1
 20 1244 l 1,14,-1
 747 1244 l 1,15,-1
 731 1084 l 1,16,-1
 552 1017 l 1,17,-1
 552 223 l 1,18,-1
 732 160 l 1,19,-1
 719 0 l 1,20,-1
 708 0 l 1,0,1
EndSplineSet
EndChar

StartChar: iogonek
Encoding: 303 303 228
Width: 638
Flags: W
LayerCount: 2
Fore
SplineSet
124 1022.5 m 128,-1,1
 70 1067 70 1067 70 1135.5 c 128,-1,2
 70 1204 70 1204 131 1247 c 128,-1,3
 192 1290 192 1290 304 1290 c 128,-1,4
 416 1290 416 1290 477 1246 c 128,-1,5
 538 1202 538 1202 538 1135.5 c 128,-1,6
 538 1069 538 1069 479 1023.5 c 128,-1,7
 420 978 420 978 299 978 c 128,-1,0
 178 978 178 978 124 1022.5 c 128,-1,1
0 0 m 1,8,-1
 8 176 l 1,9,-1
 162 230 l 1,10,-1
 162 619 l 1,11,-1
 14 728 l 1,12,-1
 47 901 l 1,13,-1
 420 928 l 1,14,-1
 476 872 l 1,15,-1
 476 230 l 1,16,-1
 638 174 l 1,17,-1
 627 0 l 1,18,-1
 617 0 l 1,19,20
 558 -178 558 -178 688 -290 c 1,21,-1
 662 -385 l 1,22,23
 531 -377 531 -377 438.5 -327.5 c 128,-1,24
 346 -278 346 -278 346 -206 c 128,-1,25
 346 -134 346 -134 377.5 -91.5 c 128,-1,26
 409 -49 409 -49 483 0 c 1,27,-1
 0 0 l 1,8,-1
EndSplineSet
EndChar

StartChar: Idotaccent
Encoding: 304 304 229
Width: 757
Flags: W
LayerCount: 2
Fore
SplineSet
0 1094 m 1,0,-1
 20 1244 l 1,1,-1
 747 1244 l 1,2,-1
 731 1084 l 1,3,-1
 552 1017 l 1,4,-1
 552 223 l 1,5,-1
 732 160 l 1,6,-1
 719 0 l 1,7,-1
 2 0 l 1,8,-1
 12 142 l 1,9,-1
 188 221 l 1,10,-1
 188 1020 l 1,11,-1
 0 1094 l 1,0,-1
170 1544 m 0,12,13
 170 1604 170 1604 219.5 1650.5 c 128,-1,14
 269 1697 269 1697 382.5 1697 c 128,-1,15
 496 1697 496 1697 546.5 1651.5 c 128,-1,16
 597 1606 597 1606 597 1547 c 0,17,18
 597 1391 597 1391 383.5 1391 c 128,-1,19
 170 1391 170 1391 170 1544 c 0,12,13
EndSplineSet
EndChar

StartChar: dotlessi
Encoding: 305 305 230
Width: 638
Flags: W
LayerCount: 2
Fore
SplineSet
0 0 m 1,0,-1
 8 176 l 1,1,-1
 162 230 l 1,2,-1
 162 571 l 1,3,-1
 14 676 l 1,4,-1
 47 854 l 1,5,-1
 420 880 l 1,6,-1
 476 819 l 1,7,-1
 476 230 l 1,8,-1
 638 174 l 1,9,-1
 627 0 l 1,10,-1
 0 0 l 1,0,-1
EndSplineSet
EndChar

StartChar: Kcommaaccent
Encoding: 310 310 231
Width: 1507
Flags: W
LayerCount: 2
Fore
SplineSet
630 655 m 1,0,1
 681 717 681 717 695 740 c 2,2,-1
 867 1003 l 1,3,-1
 907 1244 l 1,4,-1
 1428 1244 l 1,5,-1
 1398 1094 l 1,6,-1
 1174 1000 l 1,7,-1
 942 685 l 1,8,-1
 1100 470 l 2,9,10
 1172 372 1172 372 1207 328 c 128,-1,11
 1242 284 1242 284 1289 238.5 c 128,-1,12
 1336 193 1336 193 1378.5 173 c 128,-1,13
 1421 153 1421 153 1482 139 c 2,14,-1
 1507 133 l 1,15,-1
 1475 2 l 1,16,17
 1444 -10 1444 -10 1369 -18.5 c 128,-1,18
 1294 -27 1294 -27 1232 -27 c 128,-1,19
 1170 -27 1170 -27 1098.5 -1 c 128,-1,20
 1027 25 1027 25 968 78 c 0,21,22
 865 169 865 169 763 346 c 2,23,-1
 627 584 l 1,24,-1
 630 655 l 1,0,1
0 1094 m 1,25,-1
 32 1244 l 1,26,-1
 742 1244 l 1,27,-1
 721 1094 l 1,28,-1
 585 1000 l 1,29,-1
 585 240 l 1,30,-1
 780 148 l 1,31,-1
 768 0 l 1,32,-1
 3 0 l 1,33,-1
 19 138 l 1,34,-1
 221 241 l 1,35,-1
 221 993 l 1,36,-1
 0 1094 l 1,25,-1
762 -226 m 1,37,38
 785 -100 785 -100 964 -100 c 0,39,40
 1040 -100 1040 -100 1086 -135 c 128,-1,41
 1132 -170 1132 -170 1132 -232 c 128,-1,42
 1132 -294 1132 -294 1080 -336 c 0,43,44
 981 -416 981 -416 788 -405 c 1,45,-1
 766 -345 l 1,46,47
 806 -339 806 -339 840 -321 c 128,-1,48
 874 -303 874 -303 874 -282.5 c 128,-1,49
 874 -262 874 -262 839 -247 c 128,-1,50
 804 -232 804 -232 762 -226 c 1,37,38
EndSplineSet
EndChar

StartChar: kcommaaccent
Encoding: 311 311 232
Width: 1157
Flags: W
LayerCount: 2
Fore
SplineSet
504 402 m 1,0,-1
 514 447 l 1,1,-1
 699 760 l 1,2,-1
 564 817 l 1,3,-1
 586 975 l 1,4,-1
 1122 975 l 1,5,-1
 1093 824 l 1,6,-1
 946 761 l 1,7,-1
 780 503 l 1,8,-1
 793 483 l 2,9,10
 881 347 881 347 954.5 270 c 128,-1,11
 1028 193 1028 193 1116 135 c 2,12,-1
 1157 108 l 1,13,-1
 1130 0 l 1,14,-1
 1101 -5 l 2,15,16
 924 -35 924 -35 832 2 c 0,17,18
 711 51 711 51 576 280 c 2,19,-1
 504 402 l 1,0,-1
0 0 m 1,20,-1
 16 176 l 1,21,-1
 167 230 l 1,22,-1
 167 975 l 1,23,-1
 0 1077 l 1,24,-1
 34 1249 l 1,25,-1
 422 1277 l 1,26,-1
 482 1218 l 1,27,-1
 482 230 l 1,28,-1
 593 174 l 1,29,-1
 568 0 l 1,30,-1
 0 0 l 1,20,-1
498 -230 m 1,31,32
 521 -104 521 -104 700 -104 c 0,33,34
 776 -104 776 -104 822 -139 c 128,-1,35
 868 -174 868 -174 868 -236 c 128,-1,36
 868 -298 868 -298 816 -340 c 0,37,38
 717 -420 717 -420 524 -409 c 1,39,-1
 502 -349 l 1,40,41
 542 -343 542 -343 576 -325 c 128,-1,42
 610 -307 610 -307 610 -286.5 c 128,-1,43
 610 -266 610 -266 575 -251 c 128,-1,44
 540 -236 540 -236 498 -230 c 1,31,32
EndSplineSet
EndChar

StartChar: Lacute
Encoding: 313 313 233
Width: 1202
Flags: W
LayerCount: 2
Fore
SplineSet
0 0 m 1,0,-1
 16 138 l 1,1,-1
 176 217 l 1,2,-1
 176 998 l 1,3,-1
 4 1098 l 1,4,-1
 23 1245 l 1,5,-1
 766 1245 l 1,6,-1
 745 1098 l 1,7,-1
 549 1000 l 1,8,-1
 549 200 l 1,9,-1
 819 178 l 1,10,-1
 993 453 l 1,11,-1
 1159 430 l 1,12,-1
 1112 0 l 1,13,-1
 0 0 l 1,0,-1
284 1402 m 1,14,-1
 439 1727 l 1,15,-1
 659 1713 l 1,16,-1
 428 1381 l 1,17,-1
 284 1402 l 1,14,-1
EndSplineSet
EndChar

StartChar: lacute
Encoding: 314 314 234
Width: 638
Flags: W
LayerCount: 2
Fore
SplineSet
0 0 m 1,0,-1
 15 176 l 1,1,-1
 167 230 l 1,2,-1
 167 975 l 1,3,-1
 0 1077 l 1,4,-1
 34 1250 l 1,5,-1
 425 1275 l 1,6,-1
 482 1218 l 1,7,-1
 482 230 l 1,8,-1
 638 174 l 1,9,-1
 625 0 l 1,10,-1
 0 0 l 1,0,-1
206 1399 m 1,11,-1
 361 1724 l 1,12,-1
 581 1710 l 1,13,-1
 350 1378 l 1,14,-1
 206 1399 l 1,11,-1
EndSplineSet
EndChar

StartChar: Lcommaaccent
Encoding: 315 315 235
Width: 1202
Flags: W
LayerCount: 2
Fore
SplineSet
0 0 m 1,0,-1
 16 138 l 1,1,-1
 176 217 l 1,2,-1
 176 998 l 1,3,-1
 4 1098 l 1,4,-1
 23 1245 l 1,5,-1
 766 1245 l 1,6,-1
 745 1098 l 1,7,-1
 549 1000 l 1,8,-1
 549 200 l 1,9,-1
 819 178 l 1,10,-1
 993 453 l 1,11,-1
 1159 430 l 1,12,-1
 1112 0 l 1,13,-1
 0 0 l 1,0,-1
376 -248 m 1,14,15
 399 -122 399 -122 576 -122 c 0,16,17
 652 -122 652 -122 698 -157 c 128,-1,18
 744 -192 744 -192 744 -254 c 128,-1,19
 744 -316 744 -316 693 -358 c 0,20,21
 594 -438 594 -438 402 -427 c 1,22,-1
 380 -367 l 1,23,24
 420 -361 420 -361 454 -343 c 128,-1,25
 488 -325 488 -325 488 -304.5 c 128,-1,26
 488 -284 488 -284 453 -269 c 128,-1,27
 418 -254 418 -254 376 -248 c 1,14,15
EndSplineSet
EndChar

